<mxfile host="Electron" modified="2024-03-16T10:27:57.253Z" agent="Mozilla/5.0 (Macintosh; Intel Mac OS X 10_15_7) AppleWebKit/537.36 (KHTML, like Gecko) draw.io/23.1.5 Chrome/120.0.6099.109 Electron/28.1.0 Safari/537.36" etag="jgWramUyyDfYEdzN5_CV" version="23.1.5" type="device">
  <diagram name="PÃ¡gina-1" id="V6OK0VOSAdguk1GGTU6W">
    <mxGraphModel dx="1114" dy="769" grid="1" gridSize="10" guides="1" tooltips="1" connect="1" arrows="1" fold="1" page="1" pageScale="1" pageWidth="827" pageHeight="1169" math="0" shadow="0">
      <root>
        <mxCell id="0" />
        <mxCell id="1" parent="0" />
        <mxCell id="Qo9TZvfHBqD3udErQPZc-20" value="" style="group" parent="1" vertex="1" connectable="0">
          <mxGeometry x="170" y="200" width="440" height="290" as="geometry" />
        </mxCell>
        <mxCell id="Qo9TZvfHBqD3udErQPZc-1" value="Communicator" style="rounded=0;whiteSpace=wrap;html=1;labelPosition=center;verticalLabelPosition=top;align=center;verticalAlign=bottom;" parent="Qo9TZvfHBqD3udErQPZc-20" vertex="1">
          <mxGeometry width="440" height="290" as="geometry" />
        </mxCell>
        <mxCell id="Qo9TZvfHBqD3udErQPZc-10" value="" style="shape=image;verticalLabelPosition=bottom;labelBackgroundColor=default;verticalAlign=top;aspect=fixed;imageAspect=0;image=data:image/png,iVBORw0KGgoAAAANSUhEUgAAAG0AAABvCAYAAADmME5dAAAKs2lDQ1BJQ0MgUHJvZmlsZQAASImVlwdQU+kWx797bzoJARKQTuhNkE4AKaEHUHoVlZAECCWEQBCwK4sruBZERFBZ0KWIgmsBZK1YsKLYsKALsgio62JBVFTeBYbg7pv33rwz8833y8n5/ud8d+6ZORcACp0jEqXCcgCkCbPEIT7ujKjoGAZ+CCAAAvKADLAcbqaIFRQUAFCb2f9uH+6jsajdMZvU+vf//6vJ8/iZXACgIJTjeZncNJSPoWuEKxJnAYDsR/26y7JEk3wZZboYLRDlnklOnOaRSY6fYgxmKiYsxANlZQAIZA5HnAgAWQ/1M7K5iagO2RNlCyFPIEQZ/Q1c0tLSeSijeYERGiNCeVKfGf+dTuLfNOOlmhxOopSn7zJlBE9BpiiVk/t/Po7/bWmpkpkcBugiJ4l9Q9AdrQt6kJLuL2Vh/MLAGRbwpuKnOEniGz7D3EyPmBnmcTz9pWdTFwbMcILAmy3VyWKHzTA/0yt0hsXpIdJcCWIP1gxzxLN5JSnhUn8Sny3Vz0sKi5zhbEHEwhnOTAn1n43xkPrFkhBp/Xyhj/tsXm/p3dMyv7uvgC09m5UU5iu9O2e2fr6QNauZGSWtjcf39JqNCZfGi7LcpblEqUHSeH6qj9SfmR0qPZuFvpCzZ4OkzzCZ4xc0wyAA+AAGCEf3MBACWCASsIEn8Mri50y+o8AjXZQrFiQmZTFYaJfxGWwh13wuw8rCygaAyZ6dfiXehUz1IqR0etaXjvYQ8wPaJ9tmffElALQUoKkfzfr09gJAzQeguZ0rEWdP+ybbCWABCVABHagATaALjIAZsAJ2wAm4AS/gBwLReqPBEsAFSSANiMEysAKsBQWgCGwFO0A5qAT7QB04BI6AFnASnAOXwDVwC9wDj0EvGAAvwQj4AMYhCMJDFIgGqUBakD5kCllBTMgF8oICoBAoGoqDEiEhJIFWQOuhIqgYKoeqoHroV+gEdA66AnVBD6E+aBh6C32GEZgM02EN2ACeBzNhFuwPh8GL4UQ4A86D8+HNcBlcDR+Em+Fz8DX4HtwLv4RHEYDIIEqINmKGMBEPJBCJQRIQMbIKKURKkWqkEWlDOpA7SC/yCvmEwWFoGAbGDOOE8cWEY7iYDMwqzCZMOaYO04y5gLmD6cOMYL5hKVh1rCnWEcvGRmETscuwBdhSbA32OPYi9h52APsBh8Mp4Qxx9jhfXDQuGbcctwm3B9eEO4vrwvXjRvF4vAreFO+MD8Rz8Fn4Avwu/EH8Gfxt/AD+I0GGoEWwIngTYghCwjpCKeEA4TThNmGQME6UI+oTHYmBRB4xl7iFuJ/YRrxJHCCOk+RJhiRnUhgpmbSWVEZqJF0k9ZDeycjI6Mg4yATLCGTWyJTJHJa5LNMn84msQDYhe5BjyRLyZnIt+Sz5IfkdhUIxoLhRYihZlM2Uesp5ylPKR1marLksW5Ynu1q2QrZZ9rbsayqRqk9lUZdQ86il1KPUm9RXckQ5AzkPOY7cKrkKuRNy3XKj8jR5S/lA+TT5TfIH5K/IDyngFQwUvBR4CvkK+xTOK/TTEJouzYPGpa2n7addpA3QcXRDOpueTC+iH6J30kcUFRRtFCMUcxQrFE8p9iohSgZKbKVUpS1KR5TuK32eozGHNYc/Z+Ocxjm354wpqym7KfOVC5WblO8pf1ZhqHippKhsU2lReaKKUTVRDVZdprpX9aLqKzW6mpMaV61Q7YjaI3VY3UQ9RH25+j716+qjGpoaPhoijV0a5zVeaSppumkma5ZontYc1qJpuWgJtEq0zmi9YCgyWIxURhnjAmNEW13bV1uiXaXdqT2uY6gTrrNOp0nniS5Jl6mboFui2647oqelt0BvhV6D3iN9oj5TP0l/p36H/piBoUGkwQaDFoMhQ2VDtmGeYYNhjxHFyNUow6ja6K4xzphpnGK8x/iWCWxia5JkUmFy0xQ2tTMVmO4x7ZqLneswVzi3em63GdmMZZZt1mDWZ65kHmC+zrzF/PU8vXkx87bN65j3zcLWItViv8VjSwVLP8t1lm2Wb61MrLhWFVZ3rSnW3tarrVut39iY2vBt9to8sKXZLrDdYNtu+9XO3k5s12g3bK9nH2e/276bSWcGMTcxLztgHdwdVjucdPjkaOeY5XjE8S8nM6cUpwNOQ/MN5/Pn75/f76zjzHGucu51YbjEufzs0uuq7cpxrXZ95qbrxnOrcRtkGbOSWQdZr90t3MXux93HPBw9Vnqc9UQ8fTwLPTu9FLzCvcq9nnrreCd6N3iP+Nj6LPc564v19ffd5tvN1mBz2fXsET97v5V+F/zJ/qH+5f7PAkwCxAFtC+AFfgu2L+hZqL9QuLAlEASyA7cHPgkyDMoI+i0YFxwUXBH8PMQyZEVIRygtdGnogdAPYe5hW8IehxuFS8LbI6gRsRH1EWORnpHFkb1R86JWRl2LVo0WRLfG4GMiYmpiRhd5LdqxaCDWNrYg9v5iw8U5i68sUV2SuuTUUupSztKjcdi4yLgDcV84gZxqzmg8O353/AjXg7uT+5LnxivhDfOd+cX8wQTnhOKEoUTnxO2Jw0muSaVJrwQegnLBm2Tf5MrksZTAlNqUidTI1KY0Qlpc2gmhgjBFeCFdMz0nvUtkKioQ9WY4ZuzIGBH7i2syoczFma1ZdHQ4ui4xkvwg6ct2ya7I/rgsYtnRHPkcYc71XJPcjbmDed55vyzHLOcub1+hvWLtir6VrJVVq6BV8avaV+uuzl89sMZnTd1a0tqUtTfWWawrXvd+feT6tnyN/DX5/T/4/NBQIFsgLuje4LSh8kfMj4IfOzdab9y18Vshr/BqkUVRadGXTdxNV3+y/Knsp4nNCZs7t9ht2bsVt1W49f421211xfLFecX92xdsby5hlBSWvN+xdMeVUpvSyp2knZKdvWUBZa279HZt3fWlPKn8XoV7RdNu9d0bd4/t4e25vddtb2OlRmVR5eefBT8/qPKpaq42qC7dh9uXve/5/oj9Hb8wf6mvUa0pqvlaK6ztrQupu1BvX19/QP3Alga4QdIwfDD24K1DnodaG80aq5qUmooOg8OSwy9+jfv1/hH/I+1HmUcbj+kf232cdrywGWrObR5pSWrpbY1u7Trhd6K9zant+G/mv9We1D5ZcUrx1JbTpNP5pyfO5J0ZPSs6++pc4rn+9qXtj89Hnb97IfhC50X/i5cveV8638HqOHPZ+fLJK45XTlxlXm25Znet+brt9eM3bG8c77TrbL5pf7P1lsOttq75Xadvu94+d8fzzqW77LvX7i2813U//P6D7tju3ge8B0MPUx++eZT9aPzxmh5sT+ETuSelT9WfVv9u/HtTr13vqT7PvuvPQp897uf2v/wj848vA/nPKc9LB7UG64eshk4Oew/ferHoxcBL0cvxVwV/yv+5+7XR62N/uf11fSRqZOCN+M3E203vVN7Vvrd53z4aNPr0Q9qH8bHCjyof6z4xP3V8jvw8OL7sC/5L2Vfjr23f/L/1TKRNTIg4Ys7UKICgC05IAOBtLQCUaABotwAgLZqeqacMmv4OmCLwn3h67p4yOwD2dQMQthyAgBsA7CpHR1pUnxoLQBAV9TsB2Npaumbm36lZfdI00W+F7M8Azoh4cHDvzEwstek5/ru6/7mDSVUb8M/9XxE0Ca4xw0U6AAAAVmVYSWZNTQAqAAAACAABh2kABAAAAAEAAAAaAAAAAAADkoYABwAAABIAAABEoAIABAAAAAEAAABtoAMABAAAAAEAAABvAAAAAEFTQ0lJAAAAU2NyZWVuc2hvdP6DJlIAAAHWaVRYdFhNTDpjb20uYWRvYmUueG1wAAAAAAA8eDp4bXBtZXRhIHhtbG5zOng9ImFkb2JlOm5zOm1ldGEvIiB4OnhtcHRrPSJYTVAgQ29yZSA2LjAuMCI+CiAgIDxyZGY6UkRGIHhtbG5zOnJkZj0iaHR0cDovL3d3dy53My5vcmcvMTk5OS8wMi8yMi1yZGYtc3ludGF4LW5zIyI+CiAgICAgIDxyZGY6RGVzY3JpcHRpb24gcmRmOmFib3V0PSIiCiAgICAgICAgICAgIHhtbG5zOmV4aWY9Imh0dHA6Ly9ucy5hZG9iZS5jb20vZXhpZi8xLjAvIj4KICAgICAgICAgPGV4aWY6UGl4ZWxZRGltZW5zaW9uPjExMTwvZXhpZjpQaXhlbFlEaW1lbnNpb24+CiAgICAgICAgIDxleGlmOlBpeGVsWERpbWVuc2lvbj4xMDk8L2V4aWY6UGl4ZWxYRGltZW5zaW9uPgogICAgICAgICA8ZXhpZjpVc2VyQ29tbWVudD5TY3JlZW5zaG90PC9leGlmOlVzZXJDb21tZW50PgogICAgICA8L3JkZjpEZXNjcmlwdGlvbj4KICAgPC9yZGY6UkRGPgo8L3g6eG1wbWV0YT4KtKywLQAAEr5JREFUeAHtnQeQFEUXx/uOQxFEVJADRDhRMYEBATFjDmXOAUssc8KIiGXAnHPOiqEUSy2VMitSKooZc0RE1DKgGFBUsL/3a75ZZmcn9OyE3T33Vd3t7kzH9+/4+r3XDQPaj9QNqkHFIx0veOzQC9Jf8C12IhlG8JZqPv+8T4MLYBHSN4hWbRraqYYOjT0EtDbB6Ze88U2tJFT9Qfoc0Gqe6tzUXzXpdrNUn+WWU4sttpj6999/088pxRSbmprUP//8oz755BP1008/xUq5oaFBdenSRa244opKa131dXVXrrGxUf38889q6tSpas7cmappmWWWUWeeeaYaOHCgmjdvnjtsqt9hGgTDyiHiU/jx48erc889NzZo5Nu5c2d1xBFHqKFDh6q//vqrnGJUJA6NdeLEierUU09Vs6fLqNi/f3/96quvSp2ypblz5ybKQBqUvvLKK3XPnj1Bvey/FVZYQU+aNClRWSoR+bnnntMySujmpsG6UQqghKGZtiCG3SlTpqhrr722rHyIf80116izzz5bzZgxo6w0nEiffvqpOvbYY9VLL73kPKqJTzACK6gxjxIztM2cOVONGTNG3XbbbbGzvP7669VZZ52lvv/++9hx/SJMnjxZHXPMMerll1/2e131z3IBDS60adNG/fDDD+qMM85Qd911lzVjbrzxRnX66aebuNaRLAK+/vrr6vDDD1cAWGuUG2jOQuTLL780E6oNcLfccosaPXq0+vHHHzPh69tvv60OPPBA9dprr2WSflaJ5gaauwLTpk0zwN15553ux0Xfb731VjVy5MjYq8SiRCx+vPfee2r48OGKnlcrlAg0JkabP5jRtm3bIp4A3CmnnKJeeeWVouf8YN474YQTzN6k5GUGDz744AO17777GuBs6pM0TNIqNMVN4O+//1ZvvvmmeuCBB9Tnn3+unGEvKh2/IW769OnqyCOPVFdddZVae+21zYZ37NixuQLmlPujjz5Su+66q1pzzTXNftB5nvYnK+Hu3bur7bffXm2wwQaqQ4cO8bPo16+f9b5l9uzZ+rLLLtPt27cve58kJSyJu8Yaa2hpCFqGRL344ouXvPeLU+vPpLFr2XpokexIx42mp556Svft23f+Ps0WZlrICy+8YHrBH3/8YRvNKtw333yjvv32W/Xxxx8X9iJWEWs4kMCkpAOocePGxd4nWw+Pf/75p7r77ruLRF3S41Tv3r1Nd0fEREGCCNkZw6qXRMKhLr/8crXNNtuYP95fd9116tdff/UGzfz3UkstpVZddVWzPckiM7Y8zOXuut1+++1q9913V0sssYR9lrbD46xZs/SQIUMKQ9eiiy6qR4wYoWVeKvRt6Y066A8xjJSq6E+E1FpaWiG+82XUqFGa9L3hs/wt84yWRqlFIB1Yh6C62TynbjKva5Gbamkchbrx/auvvnKqHvjpHh5VHNDWWWedQmYbbrihlpYTmIn3hQg8C3FhPoCJAFQjU/QSz44//vjU584g0Hv06KFlAeQtRia/kcFKz9IyMhl+LLnkkvqLL76IzMsNWtlL/l69epmjDmFEJEmJiobVjh07mlUj+zCGVS/x7JxzzlEHHXSQWnjhhb2vU/299NJLm7z22WefVNMNSgzJ0HJyFOZsgVh9267A56epy5M9komTaVDhgp4zDx566KHqxBNPVIAXRICFvBGJxUILLRQULNFz5lPkocOGDfNtPIkSD4kM//waa0iUolelzbzodfAPek8c4vCSg9ZLLrnEgNGpU6fI6IBK+IsuukjJHBcZPk4Azg/ZxB9wwAGK86o8Cd7F5Z+7fGWD5k4k6jsFlLHbtGpERnGGPMLS2xA0L7LIIlFZWb1fa6211Hnnnac22WSTmEOTVfKZB8qliTEcsJReZZVVVLt27WJXiiH1kEMOMa2T01u2H+VSc3OzOv/88w1gSYaocvNPI15uoCXtJYh7mAshjmpEOhO7/uzDOEjdeOONE80psTNOOUIuoKVVZoA77LDDDMNPO+009fvvv1snDWAXXnih2nPPPTPbPFsXJmHAmgKNujqrT5bOnASwwIkiAGNBs8cee2S2Eo0qQ5rvc1mIpFlg0mKoZag8+OCDI+dIAENMttdee7UKwKh/zfU0Cg2xd7vgggvMUHnzzTf7Lk66du1qAKOH1eqiY35ti//XLGhUgzmOPRxD5U033VS0OAEwUbkzQ2JxlSv/yysBidugaho02M8+DuBgBMCxOHGGRHpYJUkEyeqXX34xUn0aFkQ5kfI7m2vCfP311yX7Rd6zPUIr2gtyzYMGI5BoXHzxxUa++dBDDxkNZOawShOAPP/88+qkk04yGs30KMDjFB8NAAhQOZpxS2XQ9EYadNRRR5n9qbcerQI0KgVDUBend6277rreelbkN0DIaYjaeuutjbKtn1IwwMrRTEn5aHR77713yXMe1OTq0bcm8pA5rloAc8qI/QCnGeiE2BLiNfaUQQL1VgWaLVPyDsfxz8knn6zk3C4y65VWWslIbTiBCKI6aEGcSfk5Qmr2lmGnFQjVUSuUw+bQ3OughbIn3ZdyGm+MP/yAQ2BwxRVXKJvD2Dpo6eISmhoiOFaE2267bYn887jjjjOryNAE/v+yDpoNl1IMwx4SI84BAwYUUt1ll12MFY/tCX0dtALr8vsiho1Gq7pPnz5m/rr00ksj9W3YaDuSE+t9mrcVODv8/KpaXTn99ttvCqsbJDAOM+OUEB0bFhzLL7+8wpbgww8/DIwOrzEQmX8U1TFcYIxFCRaTKJmit//uu++ahBGxPPHEE8ZoQcx/1ZZbbmlOpt27+sAStJIXovammIfgSzmEaAq7b3hmAzpHUJzYd2noror0HmV3rkWsosUEScsu3ujVS7fUknBBT08KaPT1JFMtLUCL7M+EQw9STGy1WGsaZU8BtlWT9DKjW+/wI6/P5qZB2oAmZqx6zpw5+v7779eDBw/W0nU1oMQpiAPiyiuvrMUYUItQtNWDhuF6HB6lEdaAhsXK008/rcVVg6ZXpZEwacixvv7ss89aba+jp1UMNHTY6V1pgeVOR2y9tEygrbLHVRK0RkyMxI+I8Dp9euutt8wO389aJv3c/jspZr5Pw+YMLwJYfdYpHQ5kDhrFpCejZJq2MWI6LKi9VHIBTSY1Y6P94IMP1h6HqrDEuYBGvellWHjiuadOyTiQG2j0NhYmAGdD6FbwV6dSDuQGGlkjhhGLxkj/IDh+wVVFfdVZChhPcgWNDHGzFOQdB4dlOBrjaP79998vUR0jfp0qABoeUf18Ub344otmT3fDDTeo7777zghREarWqZQD1kczpVHLe4KJklsyjvSaeQ6vPTxn7nOIM6RqJU6hK3U8lTtogIJGLQqZaNpy/P7www+XmC2hD4iPjaykNUkaA0cprIKpRyUod9CoJNq14lfE6No//vjjRZ4P3ExgGA2a/9zh8v7OsE3jo2FVgpg0FoxHOZUAj90ctT/77LMF9eicsq75bORoJvzkOqsa4oMEmzEMJvBNHGRDjVoZ85p7nsuqTHHSpaeh4s38XIneVpHhEX0THKBgX4ZrCsDzCpRhzHDxhLDzzjtXhDFhIKIigANrHNT46eGHxU3rXSZnaVI433RRURBNW+k8C+ixxx7TooOvBcxCHJnstXgXXxCoyr7J6YUWbw2F8gbVN+3nnFznvrlGu5Y5zU1YleDhjp6FajQkGFX1hQcM6ayAK0G5g4aRHF5UvdTS0mLmN5y8YIQAaJViirds1fY71zmNeQo9v9VWW82XD8wVyBwBjfmiXP9bvom3ooe5gsbQhy8q7MjCaLPNNlOicKREQyws2H/2XW6gIUUYNGiQ2mqrrayYzTBaJ38O5Dan4e4Vjdwg60b/4tWf+nEgF9DoZTjcxCdVnZJzIBfQsDfGKScLjTol50DmoG2++ebq6quvjucNO3m9WnUKjcsuu6yxQPQzKU1ac26UwHsphuJ1So8Djcj+uAQOT6Ncp8FeKgkRH7e3bJK5lakOWBJu+sdtdG7A465MkQGq/fbbz1glxt3YMl/RW3fYYQdju4aeB+C1ZkJqUwkqrAzoIWxoGc7eeOMNde+99xrNKa4UQc4GuG6xEitCgEJiTw/daKONjHu+9dZbr2LH8HkyEH4hJIi7hSEeQgPHzZKTDvwMagSEgf+OsKGByxS4DdDPdwXmou+8844BcZpct+HcCUPiq6++uuLmXrFHU+uvv76Si33y5FnF8+IaFvQy+YThtkQjp0NgSYt+DKMThvNIi4JAo3NghXvHHXcoNbNXsSWoRAolMTfVskHWIh8MDVd/Gc4B8cGs5YDXHOuI5MfqZie5nEljsNm1bcyjGe5MwxL/nnvuiXWvp20r/K+EY2gUWE11+cQTXRS5j4Ks+zW3uNONIXQXAQ+F0jol5wBzVhyyAo0JEH+K3ObnEGMszpwZ0+uULwesQEMJBz/BbmI1c9999xkXd05Xd7+vf8+OA5GgoSyKL2A/YDBf4upj/I3UKT8OhILG5MdtE9hlB9GMGTMUN77X7c6COJT+81DQ6GHsRaKI3vbII4/EvtsyKt2479n8s2Bq7RQIGvdPYxjh7MLDGIFOPpfuTJkyJSxY5u+4RwYxGqrmrZl8QcNODCEytmS2RAvn/pc4cWzTtgmHIhBOLlnhcgMUxoutlQqyR3cF5dJWc5HOTjvtZKT+jryMFSSg8Bv3rnizZkhyFik8d8sn3Wlm+Z0bDbl+2Nl+oPXLSTmay1tssUWWWVckbV/QUHND6u8mdu0MO05PwvscZkpuArw8bbbYdgAYPcwrVUDNnMvyHODibmDd9aq2777DoyPBR1Dp/nN6FJXgu/sd3znOiSM8TcIMABszZozpYV7AnHSdHvfkk09WZARwypH2py9oaWeSdnrI7pB/MiTiLDOMAI45jlECoFsD1RxoOLZki8EFBbYegBgqcfU0fvx4q/vWqh3YmgLNAQzNLla4cYged/TRRxtTYfcwHyeNaglbM6ABmHh8Nap45Upf6HHcbjh58uTCijcJEBxiVqIB1ARoMIchkduROBZKQqx+SQfhQbkEUM8884zx70xjypuqHjT2fdiuoShUbg/zMnXixIlq9OjRZQGHPBbHbGyJMPavxOKmbNDy2PewSkTKAoPizmFeoLy/AY4rQsaNG2dtHkwvxxRr//33NzJO9D3K2eLAuyT8Kws0hoesWxh5cB8aQmvbVaIXmKjfU6dONUMlfkyiCMc0LIDGjh0buc2ISov3SebCskAjUzSzEBRnRcgS2YfNv0Agq1yUcvzrP/roo4GZMP+x1wMwd2Mtt7ewIHJU6AAvLoCxQHMnjm4k6gZRm9tAToS8QNsZHZQsG4U7e9QDGYL9TgcYPrEFx+cJCyI3MTzibsmWiM/Z44QJEwpDMmK/uKI/X9mjXyFIuKWlpTB5I1RGDQH9vb59+5qM3aD6pRH1jPmBdJlvHOFvVJy03rOP434zR1ZJj+KCWOoYNJ8ileE4yobp+BuhcXA9iXsFjE+VKMvYkjqirDpp0iThdzjJKk7LqsnXBYPIHc0tGWl8CnC+eUjBc3kutgdaepcWM2MtiqSheVLWOHX2q4OMKFqGynDmy1s5ajI3bsTSe6QXYAvNTXresZxWmdZfJTzguFuy8MdoS+MtKGo+paxx6u3Oh++sQocNGxbbIYD18Egm6K2zv8GlBGM93Z1x2gsiYcsh0mGCRlHI5sS8nDzC4qDmziYee4QhQ4YYtXdOEtib+RHhueeTBm1DNAiGUmwfdtxxR7XddtuVZ6RiOzz69V+GTGlpms+0/khPFjhaTLBChyZhUqrvZW7REyZMMPVw6irSDi1qgrp3794lFySRvyjvalmIWdfd4ZX0UCcL60/38Birp3lbk20L88aL+o1BPWmjCZbHCpIFFtZCWP64Rw1Wh1wczmKBUwVklu4VJGV0/qLqlOZ7u36dZo6WaeHLGNCytnHDhSGOrocOHVoEmLuYDJUMm1x87rbbk27iDpbb96oFDQ7Q41j4ZGVGxVYFMy8brwsyRBrb8d122y3+Ej1lOKsaNOrKUcqoUaNSBw67OnxNbrrpptYsxdQZX8sjRoww5ZF5PLY0wzqzkICJ5rSQdFN7xRwDcDAIIxA230kJpSQ2zmxh4hLGfygTMWx369YtbvR0wotzsZq444zVqTj11LLETrRqlDlMy5GK9aotLKAIssNep/pONL21OHozRoVNyA4RiPJZ6Y1tWDOkxw0cOFBxJzQLB1zRxiX8bbGYYFXIWVgSclaZgkySZKzisrfDCbdz+24DF7E2NzcbwWceBbAqZUAgCs/mm9Nn99I7IHjJY6QcPXv2NKp/1dxAvQWngQAYl0x00v1UQ7e2g7UcyXnD+f+2bFSSYAUounDRISKKnTiBiPRDX8sRjtyt27FNi/ofUPdbZ0KjBtAAAAAASUVORK5CYII=;" parent="Qo9TZvfHBqD3udErQPZc-20" vertex="1">
          <mxGeometry x="410.53" y="264.4117647058823" width="25.136176470588232" height="25.588235294117645" as="geometry" />
        </mxCell>
        <mxCell id="Qo9TZvfHBqD3udErQPZc-17" value="" style="group" parent="Qo9TZvfHBqD3udErQPZc-20" vertex="1" connectable="0">
          <mxGeometry x="59" y="194.05882352941177" width="141" height="61.41176470588235" as="geometry" />
        </mxCell>
        <mxCell id="Qo9TZvfHBqD3udErQPZc-15" value="mqtt_message_receiver" style="rounded=0;whiteSpace=wrap;html=1;" parent="Qo9TZvfHBqD3udErQPZc-17" vertex="1">
          <mxGeometry width="140" height="59.705882352941174" as="geometry" />
        </mxCell>
        <mxCell id="Qo9TZvfHBqD3udErQPZc-16" value="" style="shape=image;verticalLabelPosition=bottom;labelBackgroundColor=default;verticalAlign=top;aspect=fixed;imageAspect=0;image=data:image/png,iVBORw0KGgoAAAANSUhEUgAAAG0AAABvCAYAAADmME5dAAAKs2lDQ1BJQ0MgUHJvZmlsZQAASImVlwdQU+kWx797bzoJARKQTuhNkE4AKaEHUHoVlZAECCWEQBCwK4sruBZERFBZ0KWIgmsBZK1YsKLYsKALsgio62JBVFTeBYbg7pv33rwz8833y8n5/ud8d+6ZORcACp0jEqXCcgCkCbPEIT7ujKjoGAZ+CCAAAvKADLAcbqaIFRQUAFCb2f9uH+6jsajdMZvU+vf//6vJ8/iZXACgIJTjeZncNJSPoWuEKxJnAYDsR/26y7JEk3wZZboYLRDlnklOnOaRSY6fYgxmKiYsxANlZQAIZA5HnAgAWQ/1M7K5iagO2RNlCyFPIEQZ/Q1c0tLSeSijeYERGiNCeVKfGf+dTuLfNOOlmhxOopSn7zJlBE9BpiiVk/t/Po7/bWmpkpkcBugiJ4l9Q9AdrQt6kJLuL2Vh/MLAGRbwpuKnOEniGz7D3EyPmBnmcTz9pWdTFwbMcILAmy3VyWKHzTA/0yt0hsXpIdJcCWIP1gxzxLN5JSnhUn8Sny3Vz0sKi5zhbEHEwhnOTAn1n43xkPrFkhBp/Xyhj/tsXm/p3dMyv7uvgC09m5UU5iu9O2e2fr6QNauZGSWtjcf39JqNCZfGi7LcpblEqUHSeH6qj9SfmR0qPZuFvpCzZ4OkzzCZ4xc0wyAA+AAGCEf3MBACWCASsIEn8Mri50y+o8AjXZQrFiQmZTFYaJfxGWwh13wuw8rCygaAyZ6dfiXehUz1IqR0etaXjvYQ8wPaJ9tmffElALQUoKkfzfr09gJAzQeguZ0rEWdP+ybbCWABCVABHagATaALjIAZsAJ2wAm4AS/gBwLReqPBEsAFSSANiMEysAKsBQWgCGwFO0A5qAT7QB04BI6AFnASnAOXwDVwC9wDj0EvGAAvwQj4AMYhCMJDFIgGqUBakD5kCllBTMgF8oICoBAoGoqDEiEhJIFWQOuhIqgYKoeqoHroV+gEdA66AnVBD6E+aBh6C32GEZgM02EN2ACeBzNhFuwPh8GL4UQ4A86D8+HNcBlcDR+Em+Fz8DX4HtwLv4RHEYDIIEqINmKGMBEPJBCJQRIQMbIKKURKkWqkEWlDOpA7SC/yCvmEwWFoGAbGDOOE8cWEY7iYDMwqzCZMOaYO04y5gLmD6cOMYL5hKVh1rCnWEcvGRmETscuwBdhSbA32OPYi9h52APsBh8Mp4Qxx9jhfXDQuGbcctwm3B9eEO4vrwvXjRvF4vAreFO+MD8Rz8Fn4Avwu/EH8Gfxt/AD+I0GGoEWwIngTYghCwjpCKeEA4TThNmGQME6UI+oTHYmBRB4xl7iFuJ/YRrxJHCCOk+RJhiRnUhgpmbSWVEZqJF0k9ZDeycjI6Mg4yATLCGTWyJTJHJa5LNMn84msQDYhe5BjyRLyZnIt+Sz5IfkdhUIxoLhRYihZlM2Uesp5ylPKR1marLksW5Ynu1q2QrZZ9rbsayqRqk9lUZdQ86il1KPUm9RXckQ5AzkPOY7cKrkKuRNy3XKj8jR5S/lA+TT5TfIH5K/IDyngFQwUvBR4CvkK+xTOK/TTEJouzYPGpa2n7addpA3QcXRDOpueTC+iH6J30kcUFRRtFCMUcxQrFE8p9iohSgZKbKVUpS1KR5TuK32eozGHNYc/Z+Ocxjm354wpqym7KfOVC5WblO8pf1ZhqHippKhsU2lReaKKUTVRDVZdprpX9aLqKzW6mpMaV61Q7YjaI3VY3UQ9RH25+j716+qjGpoaPhoijV0a5zVeaSppumkma5ZontYc1qJpuWgJtEq0zmi9YCgyWIxURhnjAmNEW13bV1uiXaXdqT2uY6gTrrNOp0nniS5Jl6mboFui2647oqelt0BvhV6D3iN9oj5TP0l/p36H/piBoUGkwQaDFoMhQ2VDtmGeYYNhjxHFyNUow6ja6K4xzphpnGK8x/iWCWxia5JkUmFy0xQ2tTMVmO4x7ZqLneswVzi3em63GdmMZZZt1mDWZ65kHmC+zrzF/PU8vXkx87bN65j3zcLWItViv8VjSwVLP8t1lm2Wb61MrLhWFVZ3rSnW3tarrVut39iY2vBt9to8sKXZLrDdYNtu+9XO3k5s12g3bK9nH2e/276bSWcGMTcxLztgHdwdVjucdPjkaOeY5XjE8S8nM6cUpwNOQ/MN5/Pn75/f76zjzHGucu51YbjEufzs0uuq7cpxrXZ95qbrxnOrcRtkGbOSWQdZr90t3MXux93HPBw9Vnqc9UQ8fTwLPTu9FLzCvcq9nnrreCd6N3iP+Nj6LPc564v19ffd5tvN1mBz2fXsET97v5V+F/zJ/qH+5f7PAkwCxAFtC+AFfgu2L+hZqL9QuLAlEASyA7cHPgkyDMoI+i0YFxwUXBH8PMQyZEVIRygtdGnogdAPYe5hW8IehxuFS8LbI6gRsRH1EWORnpHFkb1R86JWRl2LVo0WRLfG4GMiYmpiRhd5LdqxaCDWNrYg9v5iw8U5i68sUV2SuuTUUupSztKjcdi4yLgDcV84gZxqzmg8O353/AjXg7uT+5LnxivhDfOd+cX8wQTnhOKEoUTnxO2Jw0muSaVJrwQegnLBm2Tf5MrksZTAlNqUidTI1KY0Qlpc2gmhgjBFeCFdMz0nvUtkKioQ9WY4ZuzIGBH7i2syoczFma1ZdHQ4ui4xkvwg6ct2ya7I/rgsYtnRHPkcYc71XJPcjbmDed55vyzHLOcub1+hvWLtir6VrJVVq6BV8avaV+uuzl89sMZnTd1a0tqUtTfWWawrXvd+feT6tnyN/DX5/T/4/NBQIFsgLuje4LSh8kfMj4IfOzdab9y18Vshr/BqkUVRadGXTdxNV3+y/Knsp4nNCZs7t9ht2bsVt1W49f421211xfLFecX92xdsby5hlBSWvN+xdMeVUpvSyp2knZKdvWUBZa279HZt3fWlPKn8XoV7RdNu9d0bd4/t4e25vddtb2OlRmVR5eefBT8/qPKpaq42qC7dh9uXve/5/oj9Hb8wf6mvUa0pqvlaK6ztrQupu1BvX19/QP3Alga4QdIwfDD24K1DnodaG80aq5qUmooOg8OSwy9+jfv1/hH/I+1HmUcbj+kf232cdrywGWrObR5pSWrpbY1u7Trhd6K9zant+G/mv9We1D5ZcUrx1JbTpNP5pyfO5J0ZPSs6++pc4rn+9qXtj89Hnb97IfhC50X/i5cveV8638HqOHPZ+fLJK45XTlxlXm25Znet+brt9eM3bG8c77TrbL5pf7P1lsOttq75Xadvu94+d8fzzqW77LvX7i2813U//P6D7tju3ge8B0MPUx++eZT9aPzxmh5sT+ETuSelT9WfVv9u/HtTr13vqT7PvuvPQp897uf2v/wj848vA/nPKc9LB7UG64eshk4Oew/ferHoxcBL0cvxVwV/yv+5+7XR62N/uf11fSRqZOCN+M3E203vVN7Vvrd53z4aNPr0Q9qH8bHCjyof6z4xP3V8jvw8OL7sC/5L2Vfjr23f/L/1TKRNTIg4Ys7UKICgC05IAOBtLQCUaABotwAgLZqeqacMmv4OmCLwn3h67p4yOwD2dQMQthyAgBsA7CpHR1pUnxoLQBAV9TsB2Npaumbm36lZfdI00W+F7M8Azoh4cHDvzEwstek5/ru6/7mDSVUb8M/9XxE0Ca4xw0U6AAAAVmVYSWZNTQAqAAAACAABh2kABAAAAAEAAAAaAAAAAAADkoYABwAAABIAAABEoAIABAAAAAEAAABtoAMABAAAAAEAAABvAAAAAEFTQ0lJAAAAU2NyZWVuc2hvdP6DJlIAAAHWaVRYdFhNTDpjb20uYWRvYmUueG1wAAAAAAA8eDp4bXBtZXRhIHhtbG5zOng9ImFkb2JlOm5zOm1ldGEvIiB4OnhtcHRrPSJYTVAgQ29yZSA2LjAuMCI+CiAgIDxyZGY6UkRGIHhtbG5zOnJkZj0iaHR0cDovL3d3dy53My5vcmcvMTk5OS8wMi8yMi1yZGYtc3ludGF4LW5zIyI+CiAgICAgIDxyZGY6RGVzY3JpcHRpb24gcmRmOmFib3V0PSIiCiAgICAgICAgICAgIHhtbG5zOmV4aWY9Imh0dHA6Ly9ucy5hZG9iZS5jb20vZXhpZi8xLjAvIj4KICAgICAgICAgPGV4aWY6UGl4ZWxZRGltZW5zaW9uPjExMTwvZXhpZjpQaXhlbFlEaW1lbnNpb24+CiAgICAgICAgIDxleGlmOlBpeGVsWERpbWVuc2lvbj4xMDk8L2V4aWY6UGl4ZWxYRGltZW5zaW9uPgogICAgICAgICA8ZXhpZjpVc2VyQ29tbWVudD5TY3JlZW5zaG90PC9leGlmOlVzZXJDb21tZW50PgogICAgICA8L3JkZjpEZXNjcmlwdGlvbj4KICAgPC9yZGY6UkRGPgo8L3g6eG1wbWV0YT4KtKywLQAAEr5JREFUeAHtnQeQFEUXx/uOQxFEVJADRDhRMYEBATFjDmXOAUssc8KIiGXAnHPOiqEUSy2VMitSKooZc0RE1DKgGFBUsL/3a75ZZmcn9OyE3T33Vd3t7kzH9+/4+r3XDQPaj9QNqkHFIx0veOzQC9Jf8C12IhlG8JZqPv+8T4MLYBHSN4hWbRraqYYOjT0EtDbB6Ze88U2tJFT9Qfoc0Gqe6tzUXzXpdrNUn+WWU4sttpj6999/088pxRSbmprUP//8oz755BP1008/xUq5oaFBdenSRa244opKa131dXVXrrGxUf38889q6tSpas7cmappmWWWUWeeeaYaOHCgmjdvnjtsqt9hGgTDyiHiU/jx48erc889NzZo5Nu5c2d1xBFHqKFDh6q//vqrnGJUJA6NdeLEierUU09Vs6fLqNi/f3/96quvSp2ypblz5ybKQBqUvvLKK3XPnj1Bvey/FVZYQU+aNClRWSoR+bnnntMySujmpsG6UQqghKGZtiCG3SlTpqhrr722rHyIf80116izzz5bzZgxo6w0nEiffvqpOvbYY9VLL73kPKqJTzACK6gxjxIztM2cOVONGTNG3XbbbbGzvP7669VZZ52lvv/++9hx/SJMnjxZHXPMMerll1/2e131z3IBDS60adNG/fDDD+qMM85Qd911lzVjbrzxRnX66aebuNaRLAK+/vrr6vDDD1cAWGuUG2jOQuTLL780E6oNcLfccosaPXq0+vHHHzPh69tvv60OPPBA9dprr2WSflaJ5gaauwLTpk0zwN15553ux0Xfb731VjVy5MjYq8SiRCx+vPfee2r48OGKnlcrlAg0JkabP5jRtm3bIp4A3CmnnKJeeeWVouf8YN474YQTzN6k5GUGDz744AO17777GuBs6pM0TNIqNMVN4O+//1ZvvvmmeuCBB9Tnn3+unGEvKh2/IW769OnqyCOPVFdddZVae+21zYZ37NixuQLmlPujjz5Su+66q1pzzTXNftB5nvYnK+Hu3bur7bffXm2wwQaqQ4cO8bPo16+f9b5l9uzZ+rLLLtPt27cve58kJSyJu8Yaa2hpCFqGRL344ouXvPeLU+vPpLFr2XpokexIx42mp556Svft23f+Ps0WZlrICy+8YHrBH3/8YRvNKtw333yjvv32W/Xxxx8X9iJWEWs4kMCkpAOocePGxd4nWw+Pf/75p7r77ruLRF3S41Tv3r1Nd0fEREGCCNkZw6qXRMKhLr/8crXNNtuYP95fd9116tdff/UGzfz3UkstpVZddVWzPckiM7Y8zOXuut1+++1q9913V0sssYR9lrbD46xZs/SQIUMKQ9eiiy6qR4wYoWVeKvRt6Y066A8xjJSq6E+E1FpaWiG+82XUqFGa9L3hs/wt84yWRqlFIB1Yh6C62TynbjKva5Gbamkchbrx/auvvnKqHvjpHh5VHNDWWWedQmYbbrihlpYTmIn3hQg8C3FhPoCJAFQjU/QSz44//vjU584g0Hv06KFlAeQtRia/kcFKz9IyMhl+LLnkkvqLL76IzMsNWtlL/l69epmjDmFEJEmJiobVjh07mlUj+zCGVS/x7JxzzlEHHXSQWnjhhb2vU/299NJLm7z22WefVNMNSgzJ0HJyFOZsgVh9267A56epy5M9komTaVDhgp4zDx566KHqxBNPVIAXRICFvBGJxUILLRQULNFz5lPkocOGDfNtPIkSD4kM//waa0iUolelzbzodfAPek8c4vCSg9ZLLrnEgNGpU6fI6IBK+IsuukjJHBcZPk4Azg/ZxB9wwAGK86o8Cd7F5Z+7fGWD5k4k6jsFlLHbtGpERnGGPMLS2xA0L7LIIlFZWb1fa6211Hnnnac22WSTmEOTVfKZB8qliTEcsJReZZVVVLt27WJXiiH1kEMOMa2T01u2H+VSc3OzOv/88w1gSYaocvNPI15uoCXtJYh7mAshjmpEOhO7/uzDOEjdeOONE80psTNOOUIuoKVVZoA77LDDDMNPO+009fvvv1snDWAXXnih2nPPPTPbPFsXJmHAmgKNujqrT5bOnASwwIkiAGNBs8cee2S2Eo0qQ5rvc1mIpFlg0mKoZag8+OCDI+dIAENMttdee7UKwKh/zfU0Cg2xd7vgggvMUHnzzTf7Lk66du1qAKOH1eqiY35ti//XLGhUgzmOPRxD5U033VS0OAEwUbkzQ2JxlSv/yysBidugaho02M8+DuBgBMCxOHGGRHpYJUkEyeqXX34xUn0aFkQ5kfI7m2vCfP311yX7Rd6zPUIr2gtyzYMGI5BoXHzxxUa++dBDDxkNZOawShOAPP/88+qkk04yGs30KMDjFB8NAAhQOZpxS2XQ9EYadNRRR5n9qbcerQI0KgVDUBend6277rreelbkN0DIaYjaeuutjbKtn1IwwMrRTEn5aHR77713yXMe1OTq0bcm8pA5rloAc8qI/QCnGeiE2BLiNfaUQQL1VgWaLVPyDsfxz8knn6zk3C4y65VWWslIbTiBCKI6aEGcSfk5Qmr2lmGnFQjVUSuUw+bQ3OughbIn3ZdyGm+MP/yAQ2BwxRVXKJvD2Dpo6eISmhoiOFaE2267bYn887jjjjOryNAE/v+yDpoNl1IMwx4SI84BAwYUUt1ll12MFY/tCX0dtALr8vsiho1Gq7pPnz5m/rr00ksj9W3YaDuSE+t9mrcVODv8/KpaXTn99ttvCqsbJDAOM+OUEB0bFhzLL7+8wpbgww8/DIwOrzEQmX8U1TFcYIxFCRaTKJmit//uu++ahBGxPPHEE8ZoQcx/1ZZbbmlOpt27+sAStJIXovammIfgSzmEaAq7b3hmAzpHUJzYd2noror0HmV3rkWsosUEScsu3ujVS7fUknBBT08KaPT1JFMtLUCL7M+EQw9STGy1WGsaZU8BtlWT9DKjW+/wI6/P5qZB2oAmZqx6zpw5+v7779eDBw/W0nU1oMQpiAPiyiuvrMUYUItQtNWDhuF6HB6lEdaAhsXK008/rcVVg6ZXpZEwacixvv7ss89aba+jp1UMNHTY6V1pgeVOR2y9tEygrbLHVRK0RkyMxI+I8Dp9euutt8wO389aJv3c/jspZr5Pw+YMLwJYfdYpHQ5kDhrFpCejZJq2MWI6LKi9VHIBTSY1Y6P94IMP1h6HqrDEuYBGvellWHjiuadOyTiQG2j0NhYmAGdD6FbwV6dSDuQGGlkjhhGLxkj/IDh+wVVFfdVZChhPcgWNDHGzFOQdB4dlOBrjaP79998vUR0jfp0qABoeUf18Ub344otmT3fDDTeo7777zghREarWqZQD1kczpVHLe4KJklsyjvSaeQ6vPTxn7nOIM6RqJU6hK3U8lTtogIJGLQqZaNpy/P7www+XmC2hD4iPjaykNUkaA0cprIKpRyUod9CoJNq14lfE6No//vjjRZ4P3ExgGA2a/9zh8v7OsE3jo2FVgpg0FoxHOZUAj90ctT/77LMF9eicsq75bORoJvzkOqsa4oMEmzEMJvBNHGRDjVoZ85p7nsuqTHHSpaeh4s38XIneVpHhEX0THKBgX4ZrCsDzCpRhzHDxhLDzzjtXhDFhIKIigANrHNT46eGHxU3rXSZnaVI433RRURBNW+k8C+ixxx7TooOvBcxCHJnstXgXXxCoyr7J6YUWbw2F8gbVN+3nnFznvrlGu5Y5zU1YleDhjp6FajQkGFX1hQcM6ayAK0G5g4aRHF5UvdTS0mLmN5y8YIQAaJViirds1fY71zmNeQo9v9VWW82XD8wVyBwBjfmiXP9bvom3ooe5gsbQhy8q7MjCaLPNNlOicKREQyws2H/2XW6gIUUYNGiQ2mqrrayYzTBaJ38O5Dan4e4Vjdwg60b/4tWf+nEgF9DoZTjcxCdVnZJzIBfQsDfGKScLjTol50DmoG2++ebq6quvjucNO3m9WnUKjcsuu6yxQPQzKU1ac26UwHsphuJ1So8Djcj+uAQOT6Ncp8FeKgkRH7e3bJK5lakOWBJu+sdtdG7A465MkQGq/fbbz1glxt3YMl/RW3fYYQdju4aeB+C1ZkJqUwkqrAzoIWxoGc7eeOMNde+99xrNKa4UQc4GuG6xEitCgEJiTw/daKONjHu+9dZbr2LH8HkyEH4hJIi7hSEeQgPHzZKTDvwMagSEgf+OsKGByxS4DdDPdwXmou+8844BcZpct+HcCUPiq6++uuLmXrFHU+uvv76Si33y5FnF8+IaFvQy+YThtkQjp0NgSYt+DKMThvNIi4JAo3NghXvHHXcoNbNXsSWoRAolMTfVskHWIh8MDVd/Gc4B8cGs5YDXHOuI5MfqZie5nEljsNm1bcyjGe5MwxL/nnvuiXWvp20r/K+EY2gUWE11+cQTXRS5j4Ks+zW3uNONIXQXAQ+F0jol5wBzVhyyAo0JEH+K3ObnEGMszpwZ0+uULwesQEMJBz/BbmI1c9999xkXd05Xd7+vf8+OA5GgoSyKL2A/YDBf4upj/I3UKT8OhILG5MdtE9hlB9GMGTMUN77X7c6COJT+81DQ6GHsRaKI3vbII4/EvtsyKt2479n8s2Bq7RQIGvdPYxjh7MLDGIFOPpfuTJkyJSxY5u+4RwYxGqrmrZl8QcNODCEytmS2RAvn/pc4cWzTtgmHIhBOLlnhcgMUxoutlQqyR3cF5dJWc5HOTjvtZKT+jryMFSSg8Bv3rnizZkhyFik8d8sn3Wlm+Z0bDbl+2Nl+oPXLSTmay1tssUWWWVckbV/QUHND6u8mdu0MO05PwvscZkpuArw8bbbYdgAYPcwrVUDNnMvyHODibmDd9aq2777DoyPBR1Dp/nN6FJXgu/sd3znOiSM8TcIMABszZozpYV7AnHSdHvfkk09WZARwypH2py9oaWeSdnrI7pB/MiTiLDOMAI45jlECoFsD1RxoOLZki8EFBbYegBgqcfU0fvx4q/vWqh3YmgLNAQzNLla4cYged/TRRxtTYfcwHyeNaglbM6ABmHh8Nap45Upf6HHcbjh58uTCijcJEBxiVqIB1ARoMIchkduROBZKQqx+SQfhQbkEUM8884zx70xjypuqHjT2fdiuoShUbg/zMnXixIlq9OjRZQGHPBbHbGyJMPavxOKmbNDy2PewSkTKAoPizmFeoLy/AY4rQsaNG2dtHkwvxxRr//33NzJO9D3K2eLAuyT8Kws0hoesWxh5cB8aQmvbVaIXmKjfU6dONUMlfkyiCMc0LIDGjh0buc2ISov3SebCskAjUzSzEBRnRcgS2YfNv0Agq1yUcvzrP/roo4GZMP+x1wMwd2Mtt7ewIHJU6AAvLoCxQHMnjm4k6gZRm9tAToS8QNsZHZQsG4U7e9QDGYL9TgcYPrEFx+cJCyI3MTzibsmWiM/Z44QJEwpDMmK/uKI/X9mjXyFIuKWlpTB5I1RGDQH9vb59+5qM3aD6pRH1jPmBdJlvHOFvVJy03rOP434zR1ZJj+KCWOoYNJ8ileE4yobp+BuhcXA9iXsFjE+VKMvYkjqirDpp0iThdzjJKk7LqsnXBYPIHc0tGWl8CnC+eUjBc3kutgdaepcWM2MtiqSheVLWOHX2q4OMKFqGynDmy1s5ajI3bsTSe6QXYAvNTXresZxWmdZfJTzguFuy8MdoS+MtKGo+paxx6u3Oh++sQocNGxbbIYD18Egm6K2zv8GlBGM93Z1x2gsiYcsh0mGCRlHI5sS8nDzC4qDmziYee4QhQ4YYtXdOEtib+RHhueeTBm1DNAiGUmwfdtxxR7XddtuVZ6RiOzz69V+GTGlpms+0/khPFjhaTLBChyZhUqrvZW7REyZMMPVw6irSDi1qgrp3794lFySRvyjvalmIWdfd4ZX0UCcL60/38Birp3lbk20L88aL+o1BPWmjCZbHCpIFFtZCWP64Rw1Wh1wczmKBUwVklu4VJGV0/qLqlOZ7u36dZo6WaeHLGNCytnHDhSGOrocOHVoEmLuYDJUMm1x87rbbk27iDpbb96oFDQ7Q41j4ZGVGxVYFMy8brwsyRBrb8d122y3+Ej1lOKsaNOrKUcqoUaNSBw67OnxNbrrpptYsxdQZX8sjRoww5ZF5PLY0wzqzkICJ5rSQdFN7xRwDcDAIIxA230kJpSQ2zmxh4hLGfygTMWx369YtbvR0wotzsZq444zVqTj11LLETrRqlDlMy5GK9aotLKAIssNep/pONL21OHozRoVNyA4RiPJZ6Y1tWDOkxw0cOFBxJzQLB1zRxiX8bbGYYFXIWVgSclaZgkySZKzisrfDCbdz+24DF7E2NzcbwWceBbAqZUAgCs/mm9Nn99I7IHjJY6QcPXv2NKp/1dxAvQWngQAYl0x00v1UQ7e2g7UcyXnD+f+2bFSSYAUounDRISKKnTiBiPRDX8sRjtyt27FNi/ofUPdbZ0KjBtAAAAAASUVORK5CYII=;" parent="Qo9TZvfHBqD3udErQPZc-17" vertex="1">
          <mxGeometry x="111.52999999999997" y="35.8235294117647" width="25.136176470588232" height="25.588235294117645" as="geometry" />
        </mxCell>
        <mxCell id="Qo9TZvfHBqD3udErQPZc-19" value="" style="group" parent="Qo9TZvfHBqD3udErQPZc-20" vertex="1" connectable="0">
          <mxGeometry x="59" y="46.91176470588235" width="140" height="59.705882352941174" as="geometry" />
        </mxCell>
        <mxCell id="Qo9TZvfHBqD3udErQPZc-3" value="MqttMessageReceiver" style="rounded=0;whiteSpace=wrap;html=1;" parent="Qo9TZvfHBqD3udErQPZc-19" vertex="1">
          <mxGeometry width="140" height="59.705882352941174" as="geometry" />
        </mxCell>
        <mxCell id="Qo9TZvfHBqD3udErQPZc-14" value="" style="shape=image;verticalLabelPosition=bottom;labelBackgroundColor=default;verticalAlign=top;aspect=fixed;imageAspect=0;image=data:image/png,iVBORw0KGgoAAAANSUhEUgAAAJAAAACYCAYAAAALFWDVAAAMPWlDQ1BJQ0MgUHJvZmlsZQAASImVVwdYU8kWnluSkJDQAhGQEnoTpFcpIbQAAtLBRkgChBJiIKjY0UUF14KKKNjQVRHbWgBZCyJ2FsHeFwsKyrpYsJc3KaDrvvK9+b65899/zvznzLlz750BQL2FKxbnohoA5IkKJbGhgczklFQmqReggAzUgS0w5/IKxKyYmEgAy1D79/LmGkBk7WV7mdY/+/9r0eQLCngAIDEQp/MLeHkQHwQAr+GJJYUAEGW82dRCsQzDCrQlMECIF8lwpgLXyHC6Au+T28THsiFuA0CFyuVKMgFQ64Q8s4iXCTXUBiB2FPGFIgDUmRD75eXl8yFOg9ga2oghlul7pn+nk/k3zfRhTS43cxgr5iIvKkHCAnEud/r/mY7/XfJypUM+LGGlZknCYmVzhnm7kZMfIcNUiPtF6VHREGtB/E7Il9tDjFKypGEJCnvUgFfAhjkDDIgd+dygCIgNIA4R5UZFKvn0DGEIB2K4QtBpwkJOPMS6EC8SFATHKW02SfJjlb7QhgwJm6Xkz3Ilcr8yX/ekOQkspf7LLAFHqY+pFWfFJ0FMgdi8SJgYBbEaxA4FOXERSpsxxVnsqCEbiTRWFr85xLECUWigQh8rypCExCrty/IKhuaLbcoScqKUeH9hVnyYIj9YG48rjx/OBesUiFgJQzqCguTIobnwBUHBirljvQJRQpxS5524MDBWMRaniHNjlPa4qSA3VMabQuxaUBSnHIsnFsIFqdDHM8SFMfGKOPHibG54jCIefDmIBGwQBJhACms6yAfZQNjR39gP7xQ9IYALJCATCIC9khkakSTvEcFrHCgGf0IkAAXD4wLlvQJQBPnPw6ziag8y5L1F8hE54DHEeSAC5MJ7qXyUaNhbIngEGeE/vHNh5cF4c2GV9f97foj9xrAgE6lkpEMemepDlsRgYhAxjBhCtMH1cT/cB4+E1wBYnXFP3GtoHt/sCY8JXYQHhKuEbsLNycISyQ9RjgXdUD9EmYv073OBW0JNNzwQ94XqUBln4PrAHneFfli4P/TsBlm2Mm5ZVpg/aP9tBt89DaUd2ZGMkkeQA8jWP45Us1VzG1aR5fr7/ChiTR/ON3u450f/7O+yz4dtxI+W2CLsAHYGO4Gdw45gjYCJHceasHbsqAwPr65H8tU15C1WHk8O1BH+w9/Qk5VlssCx3rHP8ZOir1AwTfaNBux88XSJMDOrkMmCfwQBkyPiOYxiOjs6uwIg+78oPl+vGPL/BsI4/42b0gKAVxkkM79xXDMADj8GgP7mG2f2Er42ywE42smTSooUHC67EOBXQh2+aXrACJgBazgfZ+AOfEAACAbhIBrEgxQwCUafBde5BEwFM8E8UArKwXKwGqwDG8EWsAPsBvtBIzgCToDT4ALoBFfBbbh6esAzMADegI8IgpAQGkJH9BBjxAKxQ5wRT8QPCUYikVgkBUlDMhERIkVmIvORcqQCWYdsRuqQX5HDyAnkHNKF3ETuI33IS+QDiqFUVBs1RC3R0agnykIj0Hh0IpqJTkGL0QXoUrQKrUV3oQ3oCfQCehXtRp+hgxjAVDEGZoLZY54YG4vGUrEMTILNxsqwSqwW24M1w+d8GevG+rH3OBGn40zcHq7gMDwB5+FT8Nn4EnwdvgNvwNvwy/h9fAD/QqARDAh2BG8Ch5BMyCRMJZQSKgnbCIcIp+C71EN4QyQSGUQrogd8F1OI2cQZxCXE9cS9xBZiF/EhcZBEIumR7Ei+pGgSl1RIKiWtJe0iHSddIvWQ3qmoqhirOKuEqKSqiFRKVCpVdqocU7mk8kTlI1mDbEH2JkeT+eTp5GXkreRm8kVyD/kjRZNiRfGlxFOyKfMoVZQ9lFOUO5RXqqqqpqpequNUhapzVatU96meVb2v+p6qRbWlsqkTqFLqUup2agv1JvUVjUazpAXQUmmFtKW0OtpJ2j3aOzW6moMaR42vNketWq1B7ZLac3WyuoU6S32SerF6pfoB9Yvq/RpkDUsNtgZXY7ZGtcZhjesag5p0TSfNaM08zSWaOzXPafZqkbQstYK1+FoLtLZondR6SMfoZnQ2nUefT99KP0Xv0SZqW2lztLO1y7V3a3doD+ho6bjqJOpM06nWOarTzcAYlgwOI5exjLGfcY3xYYThCNYIwYjFI/aMuDTire5I3QBdgW6Z7l7dq7of9Jh6wXo5eiv0GvXu6uP6tvrj9Kfqb9A/pd8/Unukz0jeyLKR+0feMkANbA1iDWYYbDFoNxg0NDIMNRQbrjU8adhvxDAKMMo2WmV0zKjPmG7sZyw0XmV83PgpU4fJYuYyq5htzAETA5MwE6nJZpMOk4+mVqYJpiWme03vmlHMPM0yzFaZtZoNmBubjzWfaV5vfsuCbOFpkWWxxuKMxVtLK8sky4WWjZa9VrpWHKtiq3qrO9Y0a3/rKda11ldsiDaeNjk26206bVFbN9ss22rbi3aonbud0G69XdcowiivUaJRtaOu21PtWfZF9vX29x0YDpEOJQ6NDs9Hm49OHb1i9JnRXxzdHHMdtzredtJyCncqcWp2euls68xzrna+4kJzCXGZ49Lk8sLVzlXgusH1hhvdbazbQrdWt8/uHu4S9z3ufR7mHmkeNR7XPbU9YzyXeJ71IngFes3xOuL13tvdu9B7v/dfPvY+OT47fXrHWI0RjNk65qGvqS/Xd7Nvtx/TL81vk1+3v4k/17/W/0GAWQA/YFvAE5YNK5u1i/U80DFQEngo8C3bmz2L3RKEBYUGlQV1BGsFJwSvC74XYhqSGVIfMhDqFjojtCWMEBYRtiLsOseQw+PUcQbCPcJnhbdFUCPiItZFPIi0jZRENo9Fx4aPXTn2TpRFlCiqMRpEc6JXRt+NsYqZEvPbOOK4mHHV4x7HOsXOjD0TR4+bHLcz7k18YPyy+NsJ1gnShNZE9cQJiXWJb5OCkiqSupNHJ89KvpCinyJMaUolpSambksdHB88fvX4ngluE0onXJtoNXHaxHOT9CflTjo6WX0yd/KBNEJaUtrOtE/caG4tdzCdk16TPsBj89bwnvED+Kv4fQJfQYXgSYZvRkVGb6Zv5srMviz/rMqsfiFbuE74Ijsse2P225zonO05X3OTcvfmqeSl5R0WaYlyRG35RvnT8rvEduJScfcU7ymrpwxIIiTbCpCCiQVNhdpwI98utZb+JL1f5FdUXfRuauLUA9M0p4mmtU+3nb54+pPikOJfZuAzeDNaZ5rMnDfz/izWrM2zkdnps1vnmM1ZMKdnbujcHfMo83Lm/V7iWFJR8np+0vzmBYYL5i54+FPoT/WlaqWS0usLfRZuXIQvEi7qWOyyeO3iL2X8svPljuWV5Z+W8Jac/9np56qfvy7NWNqxzH3ZhuXE5aLl11b4r9hRoVlRXPFw5diVDauYq8pWvV49efW5StfKjWsoa6Rruqsiq5rWmq9dvvbTuqx1V6sDq/fWGNQsrnm7nr/+0oaADXs2Gm4s3/hhk3DTjc2hmxtqLWsrtxC3FG15vDVx65lfPH+p26a/rXzb5+2i7d07Yne01XnU1e002LmsHq2X1vftmrCrc3fQ7qY99ns272XsLd8H9kn3Pf017ddr+yP2tx7wPLDnoMXBmkP0Q2UNSMP0hoHGrMbuppSmrsPhh1ubfZoP/ebw2/YjJkeqj+ocXXaMcmzBsa/Hi48Ptohb+k9knnjYOrn19snkk1faxrV1nIo4dfZ0yOmTZ1hnjp/1PXvknPe5w+c9zzdecL/Q0O7Wfuh3t98Pdbh3NFz0uNjU6dXZ3DWm69gl/0snLgddPn2Fc+XC1airXdcSrt24PuF69w3+jd6buTdf3Cq69fH23DuEO2V3Ne5W3jO4V/uHzR97u927j94Put/+IO7B7Ye8h88eFTz61LPgMe1x5RPjJ3W9zr1H+kL6Op+Of9rzTPzsY3/pn5p/1jy3fn7wr4C/2geSB3peSF58fbnkld6r7a9dX7cOxgzee5P35uPbsnd673a893x/5kPShycfp34ifar6bPO5+UvElztf875+FXMlXPlWAIMVzcgA4OV2AGgpcO8Az2eU8Yrzn7wgijOrHIH/hBVnRHlxB2B7AAAJcwGIhHuUDbBaQEyFrWwLHx8AUBeX4Tp0VpOfK2WFCM8BmxxkqLOnZ+j8NlwUZ87v4v6xBTJVV/Bj+y9aI3sQ0vLvSgAAAIplWElmTU0AKgAAAAgABAEaAAUAAAABAAAAPgEbAAUAAAABAAAARgEoAAMAAAABAAIAAIdpAAQAAAABAAAATgAAAAAAAACQAAAAAQAAAJAAAAABAAOShgAHAAAAEgAAAHigAgAEAAAAAQAAAJCgAwAEAAAAAQAAAJgAAAAAQVNDSUkAAABTY3JlZW5zaG90iopDaAAAAAlwSFlzAAAWJQAAFiUBSVIk8AAAAdZpVFh0WE1MOmNvbS5hZG9iZS54bXAAAAAAADx4OnhtcG1ldGEgeG1sbnM6eD0iYWRvYmU6bnM6bWV0YS8iIHg6eG1wdGs9IlhNUCBDb3JlIDYuMC4wIj4KICAgPHJkZjpSREYgeG1sbnM6cmRmPSJodHRwOi8vd3d3LnczLm9yZy8xOTk5LzAyLzIyLXJkZi1zeW50YXgtbnMjIj4KICAgICAgPHJkZjpEZXNjcmlwdGlvbiByZGY6YWJvdXQ9IiIKICAgICAgICAgICAgeG1sbnM6ZXhpZj0iaHR0cDovL25zLmFkb2JlLmNvbS9leGlmLzEuMC8iPgogICAgICAgICA8ZXhpZjpQaXhlbFlEaW1lbnNpb24+MTUyPC9leGlmOlBpeGVsWURpbWVuc2lvbj4KICAgICAgICAgPGV4aWY6UGl4ZWxYRGltZW5zaW9uPjE0NDwvZXhpZjpQaXhlbFhEaW1lbnNpb24+CiAgICAgICAgIDxleGlmOlVzZXJDb21tZW50PlNjcmVlbnNob3Q8L2V4aWY6VXNlckNvbW1lbnQ+CiAgICAgIDwvcmRmOkRlc2NyaXB0aW9uPgogICA8L3JkZjpSREY+CjwveDp4bXBtZXRhPgomoUTjAAAAHGlET1QAAAACAAAAAAAAAEwAAAAoAAAATAAAAEwAABhh7lg2fAAAGC1JREFUeAHsnelzG0d6xt8ZXLwpUqRIUaQk66RkSbZXvtaJnWxlN8luUqnK/5ar8mfkY/Jhs/amnIplr09JtmRJJE1LIinxvgkiz/N2v8AABECAIAmQQlcNG9PHOz39/vB0Tw9mGGQQpBmaPbDHHgiaAO2x55rVtAeaADVBqKkHmgDV1H3Nyk2AmgzU1ANNgGrqvmblJkBNBmrqgSZANXVfs3IToCYDNfVAE6Cauq9ZuQlQk4GaeqAqgHjTI41t+4DvfgQ4RsDTqvtNFm0FGrMtoaTRpu2aOvuoVA6CUCSM4bwR7xKqAmgL/be2mZEtUnSAgQDFcCzG9Q1EJpAw2JRkuCIx2apvcw7p6EEsLkGiDU5I7HrEqgCaW8/I44WMvFx3dlUp4ORCR2fTWYz5kWaEVt7SLUYZrYc4BDxxAoSNwdJpx5Rpm3kFShggN+7tuyzs1BBiACcRLktr7KV0xJ5LMrZYg7VGropeZce2dIp0npagtVfCVJsEseSuja4KoO/nM/If4xm5D4gY1NFpxNgUIu8vQhJnOiGI+NDSY8xDuuXzM8vFfBrVh3m6RdIsP4O8LYjBdoESJjKBtCGPxyZgmW1UriG0xWblZPKh9LXck1Mt30h7/FkN1hq4agh6Yhiu+q9IZvTvJDw1KvFECqNYfNdGVwXQFy8z8u8PMvLFC+cYKoSC4gEyEAiUAWRpCgjKJ+B45htAhMKAYWyfmW+fNR11GFOZOJKktzIKiZ0h7SeR17YdSAJlFS7sM51bpYHKFQs2JBEsSU9iXIbaP5cBwNPXchdKNJ1vRr+4VRjPr13/vYAnEJOgrUuC7kGR4dsiV38nQf9VicfjEob7PAf6nAA9BECIGdQ5cJbG2KdiUF1UYYqlMx+bKo8vHwcMCgjT6Tyfb4AZiKY+doyA9lGWgcdXuBAnkMbPBIFlCRPjSgLrcGsJXkpv7IGcav1GznTckRMtjzGULWIOtJFvBgcO/JafcUT2QihMvEUVJzb6NxIOvaFDmKQ6cV6YEBCwXUJVCvT5bEb+7ZEDSKGBYxjrPAcxHUqFIUDRdHO6gaJ1UU2dvunVCvUVGsawo3XwWWHEvgHEOmaP5WnLwDP7/N5oOtuDtjDd2ohPJUMomxKXNemOjcnp1P/JqdTX0tdxT1oTLwBWoFu0cg4eB1I0r6E/m/K09kjQe17CM7cldvWvJTx5sepmVwXQHcyB/vVJRj5/CadgCCEweaDAWTpEFab7fTqeikKHsh6HozgAsn2mGSimQLavyobyBksWMp+mwNCmt0+IWEZtIiZIplileikFlemOT0h/8lsZbvtYelIPnPKEmzvgMRuEiHTmYLKcBo5NeQauAZzfAqA3JegYkCDVUXWjqwLoMwD0L2MAaM4BZJNnA4nDig056lDvQPv206GqUFHHck7k9xUK+EPhYYx0boSoEiWycqpEqMM2UIS5nwSotFUshMGWxIM16YpPykDqG+lv+QqT5i+lDZNmKs9uwcGDC36FabfSdczfR+Wxs9gTQHfmnXMIUFSJ1GFeAczh2qfemUzLKhRawDw6V1UDeXSw2mA6NgXIx7ZfTomoaNF8up72mF4OoGS4JJ2ApT95V0ba/yA9yR8wiV7E4uE6oNgdjCMD0D4qz94BGs8IAWKg8hCgPCVCmoLFGBsdmI0BiSoUYk2HDRuSOJnOlmNd1rMN+wSN+dnY2zVQFUTmw7aW8XUJEY9ZbC7E1eVYsC6diacKD1VnsPWOtMWeSTqNlVjolwOoPES54atB50IHoDzoHA3VKxABWkBdOCg7NNFpBhKcaEOawoE8A0OhYVnbYIMOVlDM+QXldVjyeSynNhDThs6hENvxshBFyqttlmcatuhcKBGsSHtsRvpS38m5jv+W3uR9Sco82oSrLR260Doc0AGCWxk8eIng8qxs6XIlqh9s8gEojzW4NoC8FVUc3OKIQUW0j9F/jFWh4DQDSGPv3KhS2FCjABRRIk0nWN4uYwWIEPl0wsx0HQ49LDyeARRVovh2WhIYnri6fDJxH/Oer+R0+/9iofCpU55MwfqHQkQVOmJKdIDKcyAA2VBmymTKYA6n05kWBcoAKKdErG9DEMFUNYEtjb09BQWfs/Y8UDymQaTtQJkWWZHuzIycin8nZ1O/V+VJJRYASER5rIcsVoioMEdIiQ5QeXLdUsWDhXoV9lNGPvOTaB3GYEmVxoYwOM7AiYJkTjfICAJBylMi1sWWVRzk6z4g0Aky9rUOyxAM1jc7lueBUfveFssRnjjugcSx1tMtU3I6vCdD8T/JUOpTzHl+lu0ANw717jMKlgo4sRDGqETlghvyyqtVufo15x2C8lgbqxvCcA/snycBEOZAuhLMvvabOgzOi16VRQEyh+pkGeV0H36wWJXDO5rOZrpBZ5BxX9UEcRYcHtOna8zPzPdpdlzaSGXWpT2zJIPxe3K55T+lP35XUjKnK8y4FNCDOjh4UkXCUQHoEJTHeqdqgP7pZ0yicVOaAPHnMXRQNUpUaqU6uj5EmxzSCAEXGm1YUniQp4pCSPC5EiWKUXkyaenKvJSB4JEMx7+Uc6mPpSs2jhuuCaz12JyHQ5QpDE+sIKBhlr/bhDo6qS6wcnC7h6g8dhJ7AuizJQ8OAfJqUokScfjKrgPRP9gICyHIpiNZAUK6XmXtw0p1PIOfZWChcCD4Xm7E/kuGwm+lLZzFcLaKo4XadNyo8H2SgyT7zfA5GilEDToXOkTlsS7ZM0A0oI6uVIkAm16tMSZ48Fc2hg1VGcSaDttUG1WgIldllSpRDL/pSKbT0o5L8xPBhAzHvpTR2O+lLxiD6sQiyoPj8sBVQeSUqiGUqA7KQ/8z1ASQM4C/uyiRTpxZxsAhHIDFAFJosM803ZBf7qqM5W0OVG5OlNjelLb0mgxmHio4Q8G30hVMSypY9rcoeJRIgOEjqUR1UB7rtZoBoiE6tNicSBWn0vUh2GB5KpHC5SFSWABeqZXq7MSZ9VFOVcsrT0d6Qfq3f5Kz8rVcCT9R5bETdzGHIlTMKg/OI2+/kuGsjkpUR+WxftwXgGhM+50KAwDMBwaQKpD3E/MqUSKbOJdTIqqPAofj8rPaRpxKb0rnxpoMpR/JqHwiQ3JPOoMZXHEt23lr7CbEWzoxzs84IkpUR+Wx/to3gGhQwSBAcCi/1Iyztzj8vsFlIJmCcF+HNNbxKqR5rOc3VRfk2dDHctH1oRC/BuMQ1LU1LyPrP8n59LdyOfgfOSkTdr55MRcFQ/xUg3FhyFciqkyZBUSc6KGuDzWA8lh/HShAChHBIBBFfj+kwDEfm0HDNAOEsSoR03w5wkSQrLx+9vmcNCcyW3Jm65G8tf4HAHQXyjMF5Vmx882LywGkBXEwNydqMIAaQHmsI/cXIDhXv8xwKB1tU4tKlYhQ2HDH+gRIQWHsbeqQhs82V9J8KE8MW8fWsvRvPZPXNu/Krc1PZGD7iQ5PpRYHc0OYqQsbnR+cEtk8Bwe2k4oWI2g4SbfttGFFacuUzcWWU2HcQMpjLd5XgGhUwaGzAYN+9iDxcyVKVG6l2iCy+Q73WT6epvKk5czGmNxe/SMAui8nMs9wz4tznpxzdzrfOdQNT0XmQr6XKoeI9gxGX7kgigJUNUQNpDx2WvsOEA0Tlr0qUTUr1TbEdWxCeTan5NL6PQD0sZzeGouogSPYFGInRGirqgcBMuezTjRElcMpTTE7PHE7Tjk4mBcFKXqkop8bUHmsnQcCEI0Tot3Whzi0aTkCh40KlV2RZn2fzmEqm+5ta3mfP7w+Ie8sfipX1r6Tvu1Jad/OPQBojqIxc+5O5zuHllYiczgOXtaOa5wDxGBknZ3B2uXK8mTLhAZUHmvtgQHEA9DJFSsRYNIhjrEHKxsDIJ1M+2GRd65ouzW9Kr1bs3Jp7Xt5b/GPuPJ6pL/z4S8NUQJbvuN3c345JTKHw6i3ewhK1MDK4/qBfqjm5xy4G8+bqbwXVmmgo3dTIp04ExoDB3V0Qu33VW3AhE6YEescCGaH1n+W20t35MrqPRncHJfO9BxPSK+c2PdOadgA2NaG8DOhKuV8B1xJJYKNQ12pbmDl0U5lvx40QDwQfVdMiVRx9rBS3ba5Jj2b81CeB/LewqdyDsqTyizjSoyP37g76w4SB89OJSJApYcY5u3P+lAOVgewdXt+7IYxtsnaixbjJ7UBn9vquyCx4bf3/NxW/pH2f+9QAGKztW+oKH4YghC4IQsAqQKx77ApbLso0dDqc3l74Su5svy9DK8/ke70C/f6FT40nx268h2ixpmrDSE8ewMIJrSRFa0PWVkcs/zxDDQHkD3EqM+o3/pHiY3c3vNzW9reA/xzaABpXxpA9DNhQVzNSjWVp3d9Xi4vP5Z3576Q86uP8Sz8HB5ndq8LcXA4Ep0C8ajOKfzEz66MG8JYJj9fC6EM8/fhqsyZ0xMtt1LNNpli6nNofLS484yEI+9I4sbf49Hjq2ap4eK6AmSKo0NZBSvVw8vP5Z25r+Tq4kM5szaBWxZz+KEYbkVgDYjBOYKfDSIDxiCK7pvTikHkyjnVKLY+ZHZ41HJ2mI8AICsBiEUJUMiXG9z4B6c8XUMS8LUrDRoOFyD4kUOYTqqdj7VbyikRC7RtrcuplQW5PP9Y3p+9I68tP8HPNJaweBh92YFBw6HJoDDn0orlM2awfadGbt/l2N9ySpRTO2fLlbXjmgUfZxVm57AKB5B8CeKYuyU7JNM+ICHmPMlbAKiBlcfO8FAB4kF1CoJ+js6F6Eum71Ai38ozK9Py7tRdub7wQM6uPJYTG7OYMAMUkuiDm5NEoSilRCxDn7myBKe0853SlFQigqEg0mI5Ozxg1JZvA+ZsAR4xEr4RrKXVvZ/nwl/ps+qJ3hGJtXbTcEOHQweIvUHfVaJEKShPz+aSXJkflw+m/ySXFp7gftcc3gPEn6LqdbrvXHOkcwwlzjndADPnWr5zpqvMNMsvriAHpUQ8AypQ0HZC5OR5vJ/nFxJcAkB4S0al7+dx51C/v3UBiKerArCLEp1eeSFvvfhBrs8/lAuLjzCBfomfb+ASm+qTHaZoDU5QJTBAdgPI1eHfeipRiLeCBYkkXuiEN4NdwetV8H6eePeQhJjzVPp+Hp5DPUPdAOJJl1Ki1s0N6V1ahvJMyPvTX6vydG+8kBasPOev85hiGEC0aooShcwUxvIZMzDdlXf7Bp6B6FLtL1WtsvUhO561zywgxvECrITqS1DbuiXoGZHgzFtHTnnsjOoKEBuxQ4mQNrg0K29OP5LrL3/ExPmR9K3OYNhaV+VBDd/2Qic5p+eUyPJLzYVohmX2ByBtFOFQgM02gYxAxHzsh3FMmpMpKM9lkcu/OZLKo+eLP3UHiA2hDzknovJ0ry3LpblJeffpfbk8NyYn16akdcv9IEzRyXO4QWJOynegA6ScErG+qY0Dyc13zJ51k4tdXiXrQ1avQNEUIKhPexfmOWclGD66ymNn2BAAsTH04+DirLz1HMoz/ViuzDyB8rzAs1tbusqsZfzkWFcg7QxURaLfdAdE5Urky2fBLIQyeyB8cMCVvCrLKprVKQBI1RNfg/5LEr/5txI7++aRm/PYmVlcf4DQn6kt9yP4Sy8n5YOJ72R0Zkz6lmeEK8/pGFDga2g1eIcULiQVgSg6lBymEpUaEt0KM96G2jkowQjAufEbiQ9cPjJXWwZMYVxfgMAF75r3rSzKtRc/yevPH8vNpz9gDjSF2xOYsAKUDJXB+AEoCkOjKxGHKm2rA56dzgcZAyhP+DrAOfuGJHqGJdZ2dK62CsGx/foBBCiS6S1px1rP+bkpeWfygYxOP5Hh2Z+lE2s/aVzi8h1P+XMUazYdw6cpOFeJhsIhwxzphqnS60O04eHUoSy6T5vVzoncUOeUD3X58spOXJ4P4zL9JpUHQ1iF72GOnl0jfq4PQAqGyAlMmC/Mzsi16XF5a+K+DM/j3wlsb+i8xy1VmyMNpCgI+wGQs09Ic0OPO0Z0v/TE2tXbOScye87lQf/FiPKcORbKYzAfPkAR5RleeCm3no3J6NS4XARE3WsLUB48s47bQk5hDJioQ5jmlabmuZB1A+3TZuHxbL9Q2ayei4utD6ktKE/QiXtbI7eOnfJYDxwuQAXKMzo9Ibcmf5ARDGEt6XWsMm9h2GIhOpQKYw5kc91nl+aGFP1fOnpTLTqUGQw27Ph6foiyYYVON5u5NDueAWv71QPEFof9F6A8v5b4Oc55jpfy8PwYDg+gksozId2ri7IVp/KgEBwdBSN3NcXmlnBszUpk0Llj5I4T3SdEBiXTcyGnQJj085eELVCern78HOPmsVUeO/vDAaik8uBNGbiE5/0tKo+bNNNJcBYVQ4cVLASqerDJhQBRIfKBYykXDApzulMTZ8vX8/Zpw2w7hXP7tBPdLzUXMoBoI5PBnXUoT/zmX0ri3M1jqzyujw9DgQAPL8lbAcoI5zxPx+Ta1BjmPE550vgpw3b2P+PR6Rha/NC1U4kMIDbfAeFOxA8xdVIiBxZWqFva9Z+VUHkSt34liUGAdEyutgyYwvhgFcgrT+f6mgwvzMvV6Ul5e+x7OTv7XFpw+Z7QOQ9A4MilIR8gVQWCkqdEDpycMrAi01CXylXznMhBmrNfeDzmFw5nrk546jwWCH+FOc9NSfaePlZXW+qeIn8ODiBAwbei8g1hpxfnsUj4k1x/Ni6j2HqW5/3VFuYLdAaVwyDAvlMg5zi2OQqGDUHOwczNlXNXZ9Vc3lt9r2A8tgaDxPIdIJaXvQpUpcSJ4r/7hd39WCB8/ZVRHtcXdNVBPBfmlad1c1NOrq7IlSnconh8Ty7OPNXbE3EsILqrLUoPnKPKkYOIABGsHBwsA1AIGxTGIOJJ5JSCe8yvBCCW9cqiMW+42k1X5jE4aHL2fXmFxsqjFNYcqDzJmx9J/Pzrr4zyuD46CIAiytO3siQXXkxDeSbkzfEHMoCfabh1HgeONSL7jfZOdc4rpUTRy3vnZGeHDjbACus6IPOhZC0PptXLg9bnK7QOHoPKHQfHasH/Fe0agPJcl+Qbf4E5z2vHfs7DXomG/VWgAuW5OPNcbo/j14TTz6VndQlXXBu5S/U8Z5njzVFsIj4XKJFTqihAvhwipxROtaJDHku4UAwiA4jHtfxK14cC/Oj9LIasjyRxHgD1Dr4Scx7rTYv3D6AiyjP6fFJuTj6RU5gDZQPFR7/5hMaGKe88KIGCky3M9HJXZVaQ5RwELsWA3E2JUI+gajCIbCizfdpiAez7L4gqT2cfLtOv4ekJAHQak+djfrXl+mjn3/0ByHeszXmyygMF6l5bkRTmQjsC1UWHDoOmcJ81CEYOIAceHWmA0MkMLOccbvuurCvH8rnAskzPHZd5uXmV5ZsSOdtqn7dYsOwQG4DyXP9AEmdHJXly4JVUHuvP2gECPHa11be8LK+9nMGV1lOvPPjXhhoKHYxE/63eARGdm1Ui58zarsqgKLRXAFghRJUoUdjWLjEMVVSexA0ABJBeVeXxjkW31nIVVqA8F2am5RdPxuU1xCdWl3WV2R2Iw0KxJzwJEiApq0RUHA9SZLhRh6uSEJCc+hykEsVPn5XUGx9izoOhq+cUlAe3LDC+VfLfja3Dj1u8d4AIj++NvqUlLBJO4WrrmdyYmMScx/4jnSvgvu14Fx1+nprvYCSpkWJD0mEokT+uqhPbSpgNRnzGC4q4hXjoL+w6iQXCqwDozyX5Cs952EvRsDeA8OpBnVhSHMDFxekZ+fWD+xi6nkF5Vt2cZ8eQQccQoAIlKgoQm7hTmfZfiQoBih4XyoaXMIZ45Dg+MII5zy8VIM554sfgl4Q80/0IewOI/2wFR29f35D+uWW5/vSZfPTooZybfYFU/w2OfKutoW6xbgMQcYLqgwJUCItlegerTaahHCe/eXCyLSwXvbxnObaDwWJ+tnI2qXb2chNqV97ZS2PNqlXWE/2YLF+V7vd/KW3nzkkiiUk0fi3ZDK4H9gSQ/rsn+ODczKx8+COeogBAnEC34+3wOWd4x0WcXRQg8wTK5c+FmFEIENNgl2WzV1HFAPLlEOUPmYUAuXK05ewhVuDY9owshcPyPP5nWCi8Kuff65Pe8x2SagnxKLtSz8qvfNgTQHdnNqE8Kzrn+fDHH6E8s74j/TcajnfffOdsl2nf9nJzoUKICu2Zv5ieu7w3xdDL+zzFYTkHg6tpQBaqmE/3ZbcybfhHUL0yF1yRp8EHuFUxImevhTJ4PpATg4G0duAVLPqrSWvPqxv/PwAAAP//zN1ZTAAAFpVJREFU7Z1ZcxxHdoVv9QKgse8bSVBcQI7CY2mkGY39ZP9J/wi/euzwy7zNiBPhcMzG0UggHaRIiOIKkAQXiNi6fM7NvNlZhQaBBqqxdWdEIatyuVmV9+uTWVnVjSRFkAOG/32Tyr89TuX5gzX5l7sP5dPHT2Vq/Y0MbG5EFlJJpC5JUkcaTXvzCWOmM95GzI1lcgH5+frZY5ZHmWRHRG35Y7YDe0xPrE0tx/a4Mbh9Z4/1rX1fL0GJtCRv04vyOP0neZUuyvudSUmr/TIwnMjMlUQWfykyeSmRam8i5bKz2sl/k1YA+mZ1U/797rq8u/Nc/vXOA7m8+so5LMBiXUkHwykAxpzmnO0cqXkAyIEUOxhJcCLr5Os3O45tslYMhoOIdmJ4WIrBQMP5aT6P67IpffJeJmQ1vSFP0n+WtfolSbdwQv4yJmZErn2RyPyiyOhsIrXBREolmNBzdpY77W9LAD15uCZ/+t1DeXf3hcyuvZOhD1Qe72wqQviksxuRro5i75ujGs7cU4mCM+L6DrKGPQ8d1SoDL+sgj/AGJXJtuvbcvjtPs29KlMrrZE7ul76UFwDow86sbNcHtWgJRarYentEBkdFZq91lYgeZmgJoLW7K7L830sKUHVnR0ph9KPDmg1J5kgDiE2aE/nJdfUyShQAcmWbKU+sbAqQqkhk1yuMgqTtETTLZ+w2B9uObCW9sp6MyNPkqtwr/Upep5ck2amielkFseIBKneViE7JhJYAenNnRX78r+8UoFIK5wcY9gPInIa2M842xzaZEwWQTCm899Dm0ZUI8yRTzLQM5ZmV78ufyZPSNXmTzMhmOiClnZKU6hiicOrcCA+3rhJl+GlNgd4CoMf/CYAQNybEhMMrTWY4YUMEhKA1nO8Acnn8y7C/Enn7GWDzk2W0kYETh3peWxn1cUrEujuymbg5z9PSFblf/kJWSxdkJ4XyAKoyVIfA0CRZNogIUFeJ1G36pyUFUoB+sySMnSPoWAdQgMU+2aGNJorBvIyzCRrt7KVE+wFEg/S0A9YNUXQ86zUDiG2JvJYZKM/n8qR8VV6Wp+RDAuWplwAI7rAACqHhaXHjDVfJA9VVIu0+/dMSQBzCHgOgd3dWvcPpCIPI9jk8mOJYQwdVItbdxAbvWdChbDeEWWWzwmwHdRVGA4jHOEdVL+an8kF65W15XJ6VPpEHGLpWoDybSRVXAuXBqVewqQJ5eGhOhzI0o/vIb6ZEc7g7G8HdWf8QAMR5d8Ld2aEBci5zDmlA5MBxQxIhIFQWdkOgOepsV07vnPIAWXWUy899sscsyPNpAKTHqkyxgqWyUpmVb2ufy+PKFVmvT8pW2q/rP0SOpxMgIkjYmMbNINpLiaavJ3L1K5EprBP1VROp4Bb/vIeCADKQCAI377ADKxHr8BPLeu1bH9oo9UB5RuTHnk/k77VfAKR5SbYrfthykPD0CQrvvAgPt8xQhjwFCudLkGIlGpsT+eRLt040OS0ygFWABDLE7byGggBi9xACAwk9q/sOJJfHMgyxkqAcvaF1fZ4e7zUXytf3bSqwrk21BRvZYZRtQnmq0/Jd/8/lEQB6VZmUDekHILjT2vF3WzChKoOYABk4jBUkn08ceJqWzzyC1NMLaMZE5q6lcvPXdZm6CDsVAMrVxnMajggQP2F5ANCbAQinKM6ZcQ96hYLjHUDMox0XmipR5kPsAOEQ5uo1O24MZR9KffIGyvOob0EBelGdw91WBVU5YXZKUiYQ2A/HHwFIwUHLvHSeVl6JJudSuf6rHZnHkDYyWZG+QSwJnNMV6yMD5FxOBzqQsp/8/QByddTGLhCZd1gl8sqnNkWeV2fkb0M/l+W+y7JWGVfl4RpPkro5jyoMgFF40KxBFIBCGk1ZOcYxRLrv61GJeqFEQ2OpzF4Vuf5l6Vw/O2sRoFXchd2Vt0t2G49e88EAakyomeeV5sBzIRqLbToA916p9vZDHTtmXJcP5V4oz7As1xbkr0OfybPeWUyWsbpM5YkUhnAYNEUqUSc8O2sNoKVX8ug39+Td0gs4iOrAISQOpkR0oAOIQLghCR4LjmYdpOfnLkzWegaR2dtLiQwYKx8f462Bnin5Zvgf5EHtsrzsGZOfkn60ifkO13k4dKEam7ONx7aAqPt+eDu0EnXAs7OWAFpbei2P/uO+XwfCAh1WcxvK46HwADTS6Vzv2AMrEes0QtPbe50T7YaQsG6Uq/K6OiTL/Rfl9tA/ytOeWdlJsBQI5SEYYfOAxJNiA4iXEUMUK1acbrbMBmPC2bOF+oj5uHAcd2fXz+lT/EMB9HbppYKT7JqjmGLQ+YTAjtGTuu9AcnkswxBDgHIeQJfn/jYFyAqgfF7JntUm5Pb4Tfl+4BJu1SdkA8rDOy2b87AJG6oCAExD8zEoeYgOqkRciCRAtihf7cOcaJx3Z+fvKf4hAXql7nNDU1aJGsrDIgaQg+lgSmQQGSG0QfD2WR+Cym1WqDyD8mBoXv4y/qk8rs3IllTRbMndlnvTBMHA0ZjH2AhVM4AMHApoPPSxrh5H9qhA9vSer4EYRKBcJuahRHghbX4Rd2fT5+N9oiMBZIC0RYmMH1UkAkQIm8yFonLPa+Pyt4lFuT94ARPmcVkv9+MUG8oTFAYOpzluGSXyEBkwATQPDj4PWieAEx/7SbmBqW2hXgXcG0S9A3jUMZ1CiUSufl6SiQtn/83GIwLkvMchppRsqFIEf6rD0cManIoQOBecolBZssENcY3XRLyHfL29lGij3COve6A8w3Pyl4mb8mP/tCpPXUoBFCoDgdAFQsQ8vQAI9+0YeUGJ/L4BZZek4CGPddQO4gMpEdaCKtVUlejKZ4mCNIq3HPlm41ldsW4bQA6MxhDmYEFPazgcQKZ4eSV65pXn3vAFedI/Ju8quNuyOQ/ao5PN0eZ8Hao8SJqGMgGoGBwoi8IR5R9aiWCXQ1lffyojU27F+tqXdVWis7piXRBABCI7F3KgoL/oHVUQlon3j/LU3gH4oVqW1V6nPLcxdP04MCU/4Q4MeujmMh4QPkhg07phv11KZMpF4EJbaJfHXGAMcyKvRJMX6kKA+IrsyERZ+gagmGfs2VkhAJky7J4LGUamRAYRP4o2OUbP+iHKlUb6AdeHHg2Oy//gDfd7I3Oy1jMAePpYE+Y473GghEkxjBtENvTQsUUqkb0GYvbZXv49Ip0T8fK9Eo1OA6DrKV7W5yQbT/DP2LOzggByrndzlHYqETyCsFHtkbXakNwdn5VbczdkGSAZMIzDEJMDhEpkzqWdopXIAKISxbCaArK986ZEhQLkVIUKstfd0mGVCD1vZMDxz4cn5JuF63JnYlYe9A7JWqk3oyQxQAYWlUYdi/rmXIuLUiLaUYgIrj9lbR9AKbw+Tcvx7gzHZ12JCgYIHcI+aXJX5nIMoEbshi8Obc3mRD4dAxO97pQHc56pGfnTwqI8xOrcGzyW2MKEmU7hJ1wd5uMYJAWIZagOPEevEjwvdSgW/hgzBKejTGzX5jhsh/sa59pSW8w3YH07QZVgfy8lmphP5eoXdb07G5kqS+0MzIlOCCC6CT2LzU2s6TnuO2BcHssYQK7ss5Fx+fvCNbk7NSs/1AblZaVXdgAQviASnB7PaWKADKzwng+sG0R5gNiyQRTKRyAoOAQE7RJIHjO29gJESNcyPt/AtWFUy0VK1FtL8RQf3zvDnOjGV3WZvHj650RtAoiO328uRDc5aHYBo9ruPEKo1qsVWQEwD6dn5Pbla/LDyJisYaK8pa9kNBzHauYwA4axOTbveHOoOZL5BhXPjscckszhBpXaYTq2ZkrE8gSPdu18mKZ2YFfb8PYzcyKeK05q8mIqi7/G+0R8x/qU3521BSAHBuDYdy6UB8h5O6tEqQJza+GK/N/MjLwcHgRQPVLHJ9eUxwAhQObkVpRInUtn0+nYCAYDbSkEiNUu0hUCO2Z+EyVS8GgnV07bYZq3bfkGcFixHkxllCvWi7jNP+V3Z20CSPvfD0n7KRHVCr1KCkJwQ9d6L5RnoF/uQHluLVyV5bFR2amw++G47dStq9AhHpwYJPvkm+OtCTuOHW8ONUcSACtnTteYADEP7TOfm7UTKxHLKIi+DOtaObMXbMAWy2eU6AytE7UVoIMrUR4i9DhoWB4fka+vXZal2WlZ6R9Q5cHIpUEdzE8/QGoGkObTcV5ReGyAxYCEOQ6yDRKFK6qnoKA+6wUAcMz0uB2FBGkBFoLk68Tlgg20aemMWfasrRO1GSD1dctKtN5TVeX5bm5avr5+WUEKAoWOtqBznnOkRAQofg2E9/58dnaaV6yPBaBWlWh5bFjBIUAvRvuFQOn8AB0cAkHCpp/gc6JEnLDHL6LptUJx+ezstK5YHxNAzu17r1RzMp0ClIqsDvbJd3NTCtDDqRHhlycUFECCh1wKjForWImqmJTr0AbjhDIMKdFQFg9hNtzFdZhmcysFm8eAgmUOMificMq5EOuo4lp8ipXoWAHaW4kcQMvjVJ5LsgSAqDzva3gZjH3pHarriTFEmskCR1MiOtcAoklzPoEwkBQAOJTHmoY4BipTzpdhmkKFeloWsQLl8w04xrYxnxtB4hAdfkHnlCrRMQNE96BjcivVTnlqsjQ/CYAW5OHUsFMedJp2IDpY67Hj0bF+Ydol+jwe8Gl3ecvdnfHYnG2A6ZwJTlHVoNOwr05GPZ1M02lMj+pyzs5ymm/laYPlbOMxNt6JxUpjAGke67IMy6Kc5emxT9N0tHeWlOhUAETluUXlAUAvRmsN5UFnqpQz9oEdn1EiHvuQB4jJWt47jA4MjgMsBpCmET6/mSOZbuUZ09kfVSLmo5wBw1ghYzo2A5lpu0Di+bCu37Qt1DntSnRCALmV6p/wQ5WrA1Secfl6cUGW91Aez0eI1LHo8KBE6HQG/YRHd2UGn4FgDgxKAAcpIIyxBYAsnTZhWzfsE4iWlIg2CQRjb9POYRdAyA/ARRCd9jnRiQDEjyInzT9MDMgfrs/K0oVxWdlHeQhIHOjUXUrkna1K5NeHrI6W9/l5JSI4TKMDWU4d7hWBQxjTNN3Hqg7M9+WZZ6AExYnsGCwGiEG0lxKpfbRr9nl8WpXoRADSOc9QTe7MjcgfbszK8vSQ4Auj6LHsnMecv1esjm1VibzTaZPQcPKsAMHhwbFIj4cqzonobLbHQMe2Q4lsDhWAQ1sKLs8T18l0niM/OBrn7s7m8F380cmqvtmIEscSTgSgHyaGVHnuXBiRlTHMefpwr84JMy/ZO+mgV69ORYdycq37rI9NO56dHikR00x9aN8Ask96qEd7KMt0HdZYj+W9XYtVKdCG1Wf6UZTIXkgzWFXN0K7Z30+J5m8kcvOrMt5sJPLHE44VoKKUJ9816lA4cr85UYDHQCAg2MxBFscgKUAsk4OI58DyeylRbNeUheUNMObzvK0tHhtALBMgtX3f3seUaOqS4DWQEn4VBD8zM4JFyRrstPkd62MFSJVncVbuzB9deejAOKgz6BSAZI4x58RzIstTB3knEo54yAr1LJ/OpdLQmWhU65pjWRf5cX2WC+V9uQAO7ChcSCdQLGvtBYhoj3k+39rU9lGeec3mRDWuWM/i2x54n+jqL+r4SnX73yc6FoCaKg9XmDls+Q6MYTjsvjoWDjpuJVLHR280qjKZ83F9PC86XxXIgxGAwjHzCZGBR3sxQAoOiuj1IaadjynRcT47OxaAds15aqRH+8z/0cNC/qgz6JRjVKI8QDwHhQAx94OS2DHzmyiRgod0UxrGqmy0wbroIbXHfeZ5kDg0n9SKdVsBaqo8h7jbapUsdm5mxRrHDOzo8/geEUGigu11d9bO7521FaBdynOEuy0C0EogRDqUHYMSUR10eKKqUEHgUIUY6TZUaRkcWzpjUxgCoPuM/WZpcblgA5dm6YxPUonaAtBJKU8eML3rIkBwin5CfYGuEhX3Ddi2AHSSyhNDlAHIMvCJtbueou/OVCEAq85vOkSJCgXotCiPsUJ5z8yFmEGAfChCiew1EJvg2pCy1/qQQabDHM7DhiKbVMfHOixySON1YGOsQ5tP03Rvg+0zz15I4yWGO9zcinWRc6JCATotysPOs8COz8yFLIPp2NQxnLv4FWst79NVwbCvjosUxerR6QYQzZqTzeF06EHmRKGcnQ9iAphpPw8Sz8efm8Ebv9EYLhNlNKBQO95sLASg06Y81nkW07HtUCIOgao0dDadiQa1LbaHfSrIQZSIE20FjfVox+phP8CaB4jHPs2UiG3F60O0xdBOJSoEoNOoPK7rGn+1M9HhmfUhyzbHwQGtKJE6m3X8Zo5kuub5OCgM27c0xAEApNvdGssy3WLaNIi4r+nehh6jbca2aVuobyvV4RJph6FgJToSQKddeVyPNf6q89Dh+ZVqK6GT6tPwRmMOKJ63QbQLIA+cAUTla1WJjvIU/0gAnQXlMTgsVmeg05spUR4g1omdl5mT8JNPO6YGXoXCUOTrMp/OZazqkKtnyqMAxODQHuFgfR8bREyzPLNv7Wp5awv1DqJER3mKfyiAnt1/K6sFvM9jTj3uWJ0OB+WVKH9XRocxaHk4g7Ee0zH+Wxx6jHSt6yEysDgnokOtHp1eiZ6ZMT0PkAGjgKC85fNY7aAOy+jcCjEDj3UY9WVsLsY6+TlRmA+xrr87m1o4/FP8QwH07Yvtwt7n0R44gT/qDHY4nG6OCZ9wgnDA94h46qxPgAI42FeHMt3y6WSkHwQgtYfyMRgGlsUHAYhlactA4tei9EOBNIKk/4UKENUGDv8UvyWAVu6tybe/fSR/fJPKrU8vujcJ8VwUPwAfTgx7ZyewE9GpKX9jCPvsXwYbyggFgwFCNaii5/mp5i1zJh95plhUNvwraKdw2C2jTmXHbTrURHadk1EW39nmvpZjDPT42JDONzB5HjacaTpsJvzv2XV8EyUqx/81XUFt/NAfLLB9bDhnXpeeG47jUEJD+g3YS/ipvV/i94muJjI0WpXeGh378dASQPefrstv/7wqt9+l8nQGv4Y6iDeW0EbufD7e4mnKxYnTKRtwHn+oasNfiKoJhigFxC4OcR8cNb5dl344QqGya7Ey/hhFZH3T/fAVk3p26jKwhZ883+a/SrdKzgaPUjh7m//sF3ZrKNOPdgbgVaQoAooB6jFmuwwK09a2lH7akBLiOL2S4F9M8VfbEIeyqBdDphn+D5UowYnVhkXG5vCbjVdKcvlnFfyrqoIBeri2Kb9/tC7ff0hlq78mO1X3xb/4ZM7i/iY6lwDhsjQoHFQJbgw+Hb//JGMECA7+WNiErXUoEH85jaFaBxQAiCA1C/xVWf6iPv8JTB8AqilAJenRMaZZDZeWbKEmAEoAUBwaAFHDGoHXRTUy2Bo5bg8/cAvVSWUM//f10s0yfpuoYIDeb9VlZX1b3qMf6uUyhq79G8if5Gk85nwAc1vJcNGEEbqjimvHlX/0MlIoGlkxeyVqDA4g93vU09+lRT6HMZTlkAd49uvdhA2goYQ/lBQF1iwneGCqmhVlYFc/HNmkcIQqwuGM/9ujHz9+XsXXrvYLLQ1h+xnr5ndeD3QB6jyfF3rFXYAK7c7OM9YFqPN8XugVdwEqtDs7z1gXoM7zeaFX3AWo0O7sPGNdgDrP54VecRegQruz84x1Aeo8nxd6xV2ACu3OzjPWBajzfF7oFXcBKrQ7O89YF6DO83mhV9wFqNDu7Dxj/w8o9lFV27DyYQAAAABJRU5ErkJggg==;" parent="Qo9TZvfHBqD3udErQPZc-19" vertex="1">
          <mxGeometry x="116" y="38.10088235294119" width="20.470588235294116" height="21.604999999999997" as="geometry" />
        </mxCell>
        <mxCell id="Qo9TZvfHBqD3udErQPZc-21" style="edgeStyle=orthogonalEdgeStyle;rounded=0;orthogonalLoop=1;jettySize=auto;html=1;entryX=0.5;entryY=1;entryDx=0;entryDy=0;startArrow=classic;startFill=1;endArrow=none;endFill=0;" parent="Qo9TZvfHBqD3udErQPZc-20" source="Qo9TZvfHBqD3udErQPZc-15" target="Qo9TZvfHBqD3udErQPZc-3" edge="1">
          <mxGeometry relative="1" as="geometry" />
        </mxCell>
        <mxCell id="Qo9TZvfHBqD3udErQPZc-18" value="" style="group" parent="Qo9TZvfHBqD3udErQPZc-20" vertex="1" connectable="0">
          <mxGeometry x="290.53" y="51.17647058823529" width="120" height="51.17647058823529" as="geometry" />
        </mxCell>
        <mxCell id="Qo9TZvfHBqD3udErQPZc-2" value="MqttClient" style="rounded=0;whiteSpace=wrap;html=1;" parent="Qo9TZvfHBqD3udErQPZc-18" vertex="1">
          <mxGeometry width="120" height="51.17647058823529" as="geometry" />
        </mxCell>
        <mxCell id="Qo9TZvfHBqD3udErQPZc-13" value="" style="shape=image;verticalLabelPosition=bottom;labelBackgroundColor=default;verticalAlign=top;aspect=fixed;imageAspect=0;image=data:image/png,iVBORw0KGgoAAAANSUhEUgAAAJAAAACYCAYAAAALFWDVAAAMPWlDQ1BJQ0MgUHJvZmlsZQAASImVVwdYU8kWnluSkJDQAhGQEnoTpFcpIbQAAtLBRkgChBJiIKjY0UUF14KKKNjQVRHbWgBZCyJ2FsHeFwsKyrpYsJc3KaDrvvK9+b65899/zvznzLlz750BQL2FKxbnohoA5IkKJbGhgczklFQmqReggAzUgS0w5/IKxKyYmEgAy1D79/LmGkBk7WV7mdY/+/9r0eQLCngAIDEQp/MLeHkQHwQAr+GJJYUAEGW82dRCsQzDCrQlMECIF8lwpgLXyHC6Au+T28THsiFuA0CFyuVKMgFQ64Q8s4iXCTXUBiB2FPGFIgDUmRD75eXl8yFOg9ga2oghlul7pn+nk/k3zfRhTS43cxgr5iIvKkHCAnEud/r/mY7/XfJypUM+LGGlZknCYmVzhnm7kZMfIcNUiPtF6VHREGtB/E7Il9tDjFKypGEJCnvUgFfAhjkDDIgd+dygCIgNIA4R5UZFKvn0DGEIB2K4QtBpwkJOPMS6EC8SFATHKW02SfJjlb7QhgwJm6Xkz3Ilcr8yX/ekOQkspf7LLAFHqY+pFWfFJ0FMgdi8SJgYBbEaxA4FOXERSpsxxVnsqCEbiTRWFr85xLECUWigQh8rypCExCrty/IKhuaLbcoScqKUeH9hVnyYIj9YG48rjx/OBesUiFgJQzqCguTIobnwBUHBirljvQJRQpxS5524MDBWMRaniHNjlPa4qSA3VMabQuxaUBSnHIsnFsIFqdDHM8SFMfGKOPHibG54jCIefDmIBGwQBJhACms6yAfZQNjR39gP7xQ9IYALJCATCIC9khkakSTvEcFrHCgGf0IkAAXD4wLlvQJQBPnPw6ziag8y5L1F8hE54DHEeSAC5MJ7qXyUaNhbIngEGeE/vHNh5cF4c2GV9f97foj9xrAgE6lkpEMemepDlsRgYhAxjBhCtMH1cT/cB4+E1wBYnXFP3GtoHt/sCY8JXYQHhKuEbsLNycISyQ9RjgXdUD9EmYv073OBW0JNNzwQ94XqUBln4PrAHneFfli4P/TsBlm2Mm5ZVpg/aP9tBt89DaUd2ZGMkkeQA8jWP45Us1VzG1aR5fr7/ChiTR/ON3u450f/7O+yz4dtxI+W2CLsAHYGO4Gdw45gjYCJHceasHbsqAwPr65H8tU15C1WHk8O1BH+w9/Qk5VlssCx3rHP8ZOir1AwTfaNBux88XSJMDOrkMmCfwQBkyPiOYxiOjs6uwIg+78oPl+vGPL/BsI4/42b0gKAVxkkM79xXDMADj8GgP7mG2f2Er42ywE42smTSooUHC67EOBXQh2+aXrACJgBazgfZ+AOfEAACAbhIBrEgxQwCUafBde5BEwFM8E8UArKwXKwGqwDG8EWsAPsBvtBIzgCToDT4ALoBFfBbbh6esAzMADegI8IgpAQGkJH9BBjxAKxQ5wRT8QPCUYikVgkBUlDMhERIkVmIvORcqQCWYdsRuqQX5HDyAnkHNKF3ETuI33IS+QDiqFUVBs1RC3R0agnykIj0Hh0IpqJTkGL0QXoUrQKrUV3oQ3oCfQCehXtRp+hgxjAVDEGZoLZY54YG4vGUrEMTILNxsqwSqwW24M1w+d8GevG+rH3OBGn40zcHq7gMDwB5+FT8Nn4EnwdvgNvwNvwy/h9fAD/QqARDAh2BG8Ch5BMyCRMJZQSKgnbCIcIp+C71EN4QyQSGUQrogd8F1OI2cQZxCXE9cS9xBZiF/EhcZBEIumR7Ei+pGgSl1RIKiWtJe0iHSddIvWQ3qmoqhirOKuEqKSqiFRKVCpVdqocU7mk8kTlI1mDbEH2JkeT+eTp5GXkreRm8kVyD/kjRZNiRfGlxFOyKfMoVZQ9lFOUO5RXqqqqpqpequNUhapzVatU96meVb2v+p6qRbWlsqkTqFLqUup2agv1JvUVjUazpAXQUmmFtKW0OtpJ2j3aOzW6moMaR42vNketWq1B7ZLac3WyuoU6S32SerF6pfoB9Yvq/RpkDUsNtgZXY7ZGtcZhjesag5p0TSfNaM08zSWaOzXPafZqkbQstYK1+FoLtLZondR6SMfoZnQ2nUefT99KP0Xv0SZqW2lztLO1y7V3a3doD+ho6bjqJOpM06nWOarTzcAYlgwOI5exjLGfcY3xYYThCNYIwYjFI/aMuDTire5I3QBdgW6Z7l7dq7of9Jh6wXo5eiv0GvXu6uP6tvrj9Kfqb9A/pd8/Unukz0jeyLKR+0feMkANbA1iDWYYbDFoNxg0NDIMNRQbrjU8adhvxDAKMMo2WmV0zKjPmG7sZyw0XmV83PgpU4fJYuYyq5htzAETA5MwE6nJZpMOk4+mVqYJpiWme03vmlHMPM0yzFaZtZoNmBubjzWfaV5vfsuCbOFpkWWxxuKMxVtLK8sky4WWjZa9VrpWHKtiq3qrO9Y0a3/rKda11ldsiDaeNjk26206bVFbN9ss22rbi3aonbud0G69XdcowiivUaJRtaOu21PtWfZF9vX29x0YDpEOJQ6NDs9Hm49OHb1i9JnRXxzdHHMdtzredtJyCncqcWp2euls68xzrna+4kJzCXGZ49Lk8sLVzlXgusH1hhvdbazbQrdWt8/uHu4S9z3ufR7mHmkeNR7XPbU9YzyXeJ71IngFes3xOuL13tvdu9B7v/dfPvY+OT47fXrHWI0RjNk65qGvqS/Xd7Nvtx/TL81vk1+3v4k/17/W/0GAWQA/YFvAE5YNK5u1i/U80DFQEngo8C3bmz2L3RKEBYUGlQV1BGsFJwSvC74XYhqSGVIfMhDqFjojtCWMEBYRtiLsOseQw+PUcQbCPcJnhbdFUCPiItZFPIi0jZRENo9Fx4aPXTn2TpRFlCiqMRpEc6JXRt+NsYqZEvPbOOK4mHHV4x7HOsXOjD0TR4+bHLcz7k18YPyy+NsJ1gnShNZE9cQJiXWJb5OCkiqSupNHJ89KvpCinyJMaUolpSambksdHB88fvX4ngluE0onXJtoNXHaxHOT9CflTjo6WX0yd/KBNEJaUtrOtE/caG4tdzCdk16TPsBj89bwnvED+Kv4fQJfQYXgSYZvRkVGb6Zv5srMviz/rMqsfiFbuE74Ijsse2P225zonO05X3OTcvfmqeSl5R0WaYlyRG35RvnT8rvEduJScfcU7ymrpwxIIiTbCpCCiQVNhdpwI98utZb+JL1f5FdUXfRuauLUA9M0p4mmtU+3nb54+pPikOJfZuAzeDNaZ5rMnDfz/izWrM2zkdnps1vnmM1ZMKdnbujcHfMo83Lm/V7iWFJR8np+0vzmBYYL5i54+FPoT/WlaqWS0usLfRZuXIQvEi7qWOyyeO3iL2X8svPljuWV5Z+W8Jac/9np56qfvy7NWNqxzH3ZhuXE5aLl11b4r9hRoVlRXPFw5diVDauYq8pWvV49efW5StfKjWsoa6Rruqsiq5rWmq9dvvbTuqx1V6sDq/fWGNQsrnm7nr/+0oaADXs2Gm4s3/hhk3DTjc2hmxtqLWsrtxC3FG15vDVx65lfPH+p26a/rXzb5+2i7d07Yne01XnU1e002LmsHq2X1vftmrCrc3fQ7qY99ns272XsLd8H9kn3Pf017ddr+yP2tx7wPLDnoMXBmkP0Q2UNSMP0hoHGrMbuppSmrsPhh1ubfZoP/ebw2/YjJkeqj+ocXXaMcmzBsa/Hi48Ptohb+k9knnjYOrn19snkk1faxrV1nIo4dfZ0yOmTZ1hnjp/1PXvknPe5w+c9zzdecL/Q0O7Wfuh3t98Pdbh3NFz0uNjU6dXZ3DWm69gl/0snLgddPn2Fc+XC1airXdcSrt24PuF69w3+jd6buTdf3Cq69fH23DuEO2V3Ne5W3jO4V/uHzR97u927j94Put/+IO7B7Ye8h88eFTz61LPgMe1x5RPjJ3W9zr1H+kL6Op+Of9rzTPzsY3/pn5p/1jy3fn7wr4C/2geSB3peSF58fbnkld6r7a9dX7cOxgzee5P35uPbsnd673a893x/5kPShycfp34ifar6bPO5+UvElztf875+FXMlXPlWAIMVzcgA4OV2AGgpcO8Az2eU8Yrzn7wgijOrHIH/hBVnRHlxB2B7AAAJcwGIhHuUDbBaQEyFrWwLHx8AUBeX4Tp0VpOfK2WFCM8BmxxkqLOnZ+j8NlwUZ87v4v6xBTJVV/Bj+y9aI3sQ0vLvSgAAAIplWElmTU0AKgAAAAgABAEaAAUAAAABAAAAPgEbAAUAAAABAAAARgEoAAMAAAABAAIAAIdpAAQAAAABAAAATgAAAAAAAACQAAAAAQAAAJAAAAABAAOShgAHAAAAEgAAAHigAgAEAAAAAQAAAJCgAwAEAAAAAQAAAJgAAAAAQVNDSUkAAABTY3JlZW5zaG90iopDaAAAAAlwSFlzAAAWJQAAFiUBSVIk8AAAAdZpVFh0WE1MOmNvbS5hZG9iZS54bXAAAAAAADx4OnhtcG1ldGEgeG1sbnM6eD0iYWRvYmU6bnM6bWV0YS8iIHg6eG1wdGs9IlhNUCBDb3JlIDYuMC4wIj4KICAgPHJkZjpSREYgeG1sbnM6cmRmPSJodHRwOi8vd3d3LnczLm9yZy8xOTk5LzAyLzIyLXJkZi1zeW50YXgtbnMjIj4KICAgICAgPHJkZjpEZXNjcmlwdGlvbiByZGY6YWJvdXQ9IiIKICAgICAgICAgICAgeG1sbnM6ZXhpZj0iaHR0cDovL25zLmFkb2JlLmNvbS9leGlmLzEuMC8iPgogICAgICAgICA8ZXhpZjpQaXhlbFlEaW1lbnNpb24+MTUyPC9leGlmOlBpeGVsWURpbWVuc2lvbj4KICAgICAgICAgPGV4aWY6UGl4ZWxYRGltZW5zaW9uPjE0NDwvZXhpZjpQaXhlbFhEaW1lbnNpb24+CiAgICAgICAgIDxleGlmOlVzZXJDb21tZW50PlNjcmVlbnNob3Q8L2V4aWY6VXNlckNvbW1lbnQ+CiAgICAgIDwvcmRmOkRlc2NyaXB0aW9uPgogICA8L3JkZjpSREY+CjwveDp4bXBtZXRhPgomoUTjAAAAHGlET1QAAAACAAAAAAAAAEwAAAAoAAAATAAAAEwAABhh7lg2fAAAGC1JREFUeAHsnelzG0d6xt8ZXLwpUqRIUaQk66RkSbZXvtaJnWxlN8luUqnK/5ar8mfkY/Jhs/amnIplr09JtmRJJE1LIinxvgkiz/N2v8AABECAIAmQQlcNG9PHOz39/vB0Tw9mGGQQpBmaPbDHHgiaAO2x55rVtAeaADVBqKkHmgDV1H3Nyk2AmgzU1ANNgGrqvmblJkBNBmrqgSZANXVfs3IToCYDNfVAE6Cauq9ZuQlQk4GaeqAqgHjTI41t+4DvfgQ4RsDTqvtNFm0FGrMtoaTRpu2aOvuoVA6CUCSM4bwR7xKqAmgL/be2mZEtUnSAgQDFcCzG9Q1EJpAw2JRkuCIx2apvcw7p6EEsLkGiDU5I7HrEqgCaW8/I44WMvFx3dlUp4ORCR2fTWYz5kWaEVt7SLUYZrYc4BDxxAoSNwdJpx5Rpm3kFShggN+7tuyzs1BBiACcRLktr7KV0xJ5LMrZYg7VGropeZce2dIp0npagtVfCVJsEseSuja4KoO/nM/If4xm5D4gY1NFpxNgUIu8vQhJnOiGI+NDSY8xDuuXzM8vFfBrVh3m6RdIsP4O8LYjBdoESJjKBtCGPxyZgmW1UriG0xWblZPKh9LXck1Mt30h7/FkN1hq4agh6Yhiu+q9IZvTvJDw1KvFECqNYfNdGVwXQFy8z8u8PMvLFC+cYKoSC4gEyEAiUAWRpCgjKJ+B45htAhMKAYWyfmW+fNR11GFOZOJKktzIKiZ0h7SeR17YdSAJlFS7sM51bpYHKFQs2JBEsSU9iXIbaP5cBwNPXchdKNJ1vRr+4VRjPr13/vYAnEJOgrUuC7kGR4dsiV38nQf9VicfjEob7PAf6nAA9BECIGdQ5cJbG2KdiUF1UYYqlMx+bKo8vHwcMCgjT6Tyfb4AZiKY+doyA9lGWgcdXuBAnkMbPBIFlCRPjSgLrcGsJXkpv7IGcav1GznTckRMtjzGULWIOtJFvBgcO/JafcUT2QihMvEUVJzb6NxIOvaFDmKQ6cV6YEBCwXUJVCvT5bEb+7ZEDSKGBYxjrPAcxHUqFIUDRdHO6gaJ1UU2dvunVCvUVGsawo3XwWWHEvgHEOmaP5WnLwDP7/N5oOtuDtjDd2ohPJUMomxKXNemOjcnp1P/JqdTX0tdxT1oTLwBWoFu0cg4eB1I0r6E/m/K09kjQe17CM7cldvWvJTx5sepmVwXQHcyB/vVJRj5/CadgCCEweaDAWTpEFab7fTqeikKHsh6HozgAsn2mGSimQLavyobyBksWMp+mwNCmt0+IWEZtIiZIplileikFlemOT0h/8lsZbvtYelIPnPKEmzvgMRuEiHTmYLKcBo5NeQauAZzfAqA3JegYkCDVUXWjqwLoMwD0L2MAaM4BZJNnA4nDig056lDvQPv206GqUFHHck7k9xUK+EPhYYx0boSoEiWycqpEqMM2UIS5nwSotFUshMGWxIM16YpPykDqG+lv+QqT5i+lDZNmKs9uwcGDC36FabfSdczfR+Wxs9gTQHfmnXMIUFSJ1GFeAczh2qfemUzLKhRawDw6V1UDeXSw2mA6NgXIx7ZfTomoaNF8up72mF4OoGS4JJ2ApT95V0ba/yA9yR8wiV7E4uE6oNgdjCMD0D4qz94BGs8IAWKg8hCgPCVCmoLFGBsdmI0BiSoUYk2HDRuSOJnOlmNd1rMN+wSN+dnY2zVQFUTmw7aW8XUJEY9ZbC7E1eVYsC6diacKD1VnsPWOtMWeSTqNlVjolwOoPES54atB50IHoDzoHA3VKxABWkBdOCg7NNFpBhKcaEOawoE8A0OhYVnbYIMOVlDM+QXldVjyeSynNhDThs6hENvxshBFyqttlmcatuhcKBGsSHtsRvpS38m5jv+W3uR9Sco82oSrLR260Doc0AGCWxk8eIng8qxs6XIlqh9s8gEojzW4NoC8FVUc3OKIQUW0j9F/jFWh4DQDSGPv3KhS2FCjABRRIk0nWN4uYwWIEPl0wsx0HQ49LDyeARRVovh2WhIYnri6fDJxH/Oer+R0+/9iofCpU55MwfqHQkQVOmJKdIDKcyAA2VBmymTKYA6n05kWBcoAKKdErG9DEMFUNYEtjb09BQWfs/Y8UDymQaTtQJkWWZHuzIycin8nZ1O/V+VJJRYASER5rIcsVoioMEdIiQ5QeXLdUsWDhXoV9lNGPvOTaB3GYEmVxoYwOM7AiYJkTjfICAJBylMi1sWWVRzk6z4g0Aky9rUOyxAM1jc7lueBUfveFssRnjjugcSx1tMtU3I6vCdD8T/JUOpTzHl+lu0ANw717jMKlgo4sRDGqETlghvyyqtVufo15x2C8lgbqxvCcA/snycBEOZAuhLMvvabOgzOi16VRQEyh+pkGeV0H36wWJXDO5rOZrpBZ5BxX9UEcRYcHtOna8zPzPdpdlzaSGXWpT2zJIPxe3K55T+lP35XUjKnK8y4FNCDOjh4UkXCUQHoEJTHeqdqgP7pZ0yicVOaAPHnMXRQNUpUaqU6uj5EmxzSCAEXGm1YUniQp4pCSPC5EiWKUXkyaenKvJSB4JEMx7+Uc6mPpSs2jhuuCaz12JyHQ5QpDE+sIKBhlr/bhDo6qS6wcnC7h6g8dhJ7AuizJQ8OAfJqUokScfjKrgPRP9gICyHIpiNZAUK6XmXtw0p1PIOfZWChcCD4Xm7E/kuGwm+lLZzFcLaKo4XadNyo8H2SgyT7zfA5GilEDToXOkTlsS7ZM0A0oI6uVIkAm16tMSZ48Fc2hg1VGcSaDttUG1WgIldllSpRDL/pSKbT0o5L8xPBhAzHvpTR2O+lLxiD6sQiyoPj8sBVQeSUqiGUqA7KQ/8z1ASQM4C/uyiRTpxZxsAhHIDFAFJosM803ZBf7qqM5W0OVG5OlNjelLb0mgxmHio4Q8G30hVMSypY9rcoeJRIgOEjqUR1UB7rtZoBoiE6tNicSBWn0vUh2GB5KpHC5SFSWABeqZXq7MSZ9VFOVcsrT0d6Qfq3f5Kz8rVcCT9R5bETdzGHIlTMKg/OI2+/kuGsjkpUR+WxftwXgGhM+50KAwDMBwaQKpD3E/MqUSKbOJdTIqqPAofj8rPaRpxKb0rnxpoMpR/JqHwiQ3JPOoMZXHEt23lr7CbEWzoxzs84IkpUR+Wx/to3gGhQwSBAcCi/1Iyztzj8vsFlIJmCcF+HNNbxKqR5rOc3VRfk2dDHctH1oRC/BuMQ1LU1LyPrP8n59LdyOfgfOSkTdr55MRcFQ/xUg3FhyFciqkyZBUSc6KGuDzWA8lh/HShAChHBIBBFfj+kwDEfm0HDNAOEsSoR03w5wkSQrLx+9vmcNCcyW3Jm65G8tf4HAHQXyjMF5Vmx882LywGkBXEwNydqMIAaQHmsI/cXIDhXv8xwKB1tU4tKlYhQ2HDH+gRIQWHsbeqQhs82V9J8KE8MW8fWsvRvPZPXNu/Krc1PZGD7iQ5PpRYHc0OYqQsbnR+cEtk8Bwe2k4oWI2g4SbfttGFFacuUzcWWU2HcQMpjLd5XgGhUwaGzAYN+9iDxcyVKVG6l2iCy+Q73WT6epvKk5czGmNxe/SMAui8nMs9wz4tznpxzdzrfOdQNT0XmQr6XKoeI9gxGX7kgigJUNUQNpDx2WvsOEA0Tlr0qUTUr1TbEdWxCeTan5NL6PQD0sZzeGouogSPYFGInRGirqgcBMuezTjRElcMpTTE7PHE7Tjk4mBcFKXqkop8bUHmsnQcCEI0Tot3Whzi0aTkCh40KlV2RZn2fzmEqm+5ta3mfP7w+Ie8sfipX1r6Tvu1Jad/OPQBojqIxc+5O5zuHllYiczgOXtaOa5wDxGBknZ3B2uXK8mTLhAZUHmvtgQHEA9DJFSsRYNIhjrEHKxsDIJ1M+2GRd65ouzW9Kr1bs3Jp7Xt5b/GPuPJ6pL/z4S8NUQJbvuN3c345JTKHw6i3ewhK1MDK4/qBfqjm5xy4G8+bqbwXVmmgo3dTIp04ExoDB3V0Qu33VW3AhE6YEescCGaH1n+W20t35MrqPRncHJfO9BxPSK+c2PdOadgA2NaG8DOhKuV8B1xJJYKNQ12pbmDl0U5lvx40QDwQfVdMiVRx9rBS3ba5Jj2b81CeB/LewqdyDsqTyizjSoyP37g76w4SB89OJSJApYcY5u3P+lAOVgewdXt+7IYxtsnaixbjJ7UBn9vquyCx4bf3/NxW/pH2f+9QAGKztW+oKH4YghC4IQsAqQKx77ApbLso0dDqc3l74Su5svy9DK8/ke70C/f6FT40nx268h2ixpmrDSE8ewMIJrSRFa0PWVkcs/zxDDQHkD3EqM+o3/pHiY3c3vNzW9reA/xzaABpXxpA9DNhQVzNSjWVp3d9Xi4vP5Z3576Q86uP8Sz8HB5ndq8LcXA4Ep0C8ajOKfzEz66MG8JYJj9fC6EM8/fhqsyZ0xMtt1LNNpli6nNofLS484yEI+9I4sbf49Hjq2ap4eK6AmSKo0NZBSvVw8vP5Z25r+Tq4kM5szaBWxZz+KEYbkVgDYjBOYKfDSIDxiCK7pvTikHkyjnVKLY+ZHZ41HJ2mI8AICsBiEUJUMiXG9z4B6c8XUMS8LUrDRoOFyD4kUOYTqqdj7VbyikRC7RtrcuplQW5PP9Y3p+9I68tP8HPNJaweBh92YFBw6HJoDDn0orlM2awfadGbt/l2N9ySpRTO2fLlbXjmgUfZxVm57AKB5B8CeKYuyU7JNM+ICHmPMlbAKiBlcfO8FAB4kF1CoJ+js6F6Eum71Ai38ozK9Py7tRdub7wQM6uPJYTG7OYMAMUkuiDm5NEoSilRCxDn7myBKe0853SlFQigqEg0mI5Ozxg1JZvA+ZsAR4xEr4RrKXVvZ/nwl/ps+qJ3hGJtXbTcEOHQweIvUHfVaJEKShPz+aSXJkflw+m/ySXFp7gftcc3gPEn6LqdbrvXHOkcwwlzjndADPnWr5zpqvMNMsvriAHpUQ8AypQ0HZC5OR5vJ/nFxJcAkB4S0al7+dx51C/v3UBiKerArCLEp1eeSFvvfhBrs8/lAuLjzCBfomfb+ASm+qTHaZoDU5QJTBAdgPI1eHfeipRiLeCBYkkXuiEN4NdwetV8H6eePeQhJjzVPp+Hp5DPUPdAOJJl1Ki1s0N6V1ahvJMyPvTX6vydG+8kBasPOev85hiGEC0aooShcwUxvIZMzDdlXf7Bp6B6FLtL1WtsvUhO561zywgxvECrITqS1DbuiXoGZHgzFtHTnnsjOoKEBuxQ4mQNrg0K29OP5LrL3/ExPmR9K3OYNhaV+VBDd/2Qic5p+eUyPJLzYVohmX2ByBtFOFQgM02gYxAxHzsh3FMmpMpKM9lkcu/OZLKo+eLP3UHiA2hDzknovJ0ry3LpblJeffpfbk8NyYn16akdcv9IEzRyXO4QWJOynegA6ScErG+qY0Dyc13zJ51k4tdXiXrQ1avQNEUIKhPexfmOWclGD66ymNn2BAAsTH04+DirLz1HMoz/ViuzDyB8rzAs1tbusqsZfzkWFcg7QxURaLfdAdE5Urky2fBLIQyeyB8cMCVvCrLKprVKQBI1RNfg/5LEr/5txI7++aRm/PYmVlcf4DQn6kt9yP4Sy8n5YOJ72R0Zkz6lmeEK8/pGFDga2g1eIcULiQVgSg6lBymEpUaEt0KM96G2jkowQjAufEbiQ9cPjJXWwZMYVxfgMAF75r3rSzKtRc/yevPH8vNpz9gDjSF2xOYsAKUDJXB+AEoCkOjKxGHKm2rA56dzgcZAyhP+DrAOfuGJHqGJdZ2dK62CsGx/foBBCiS6S1px1rP+bkpeWfygYxOP5Hh2Z+lE2s/aVzi8h1P+XMUazYdw6cpOFeJhsIhwxzphqnS60O04eHUoSy6T5vVzoncUOeUD3X58spOXJ4P4zL9JpUHQ1iF72GOnl0jfq4PQAqGyAlMmC/Mzsi16XF5a+K+DM/j3wlsb+i8xy1VmyMNpCgI+wGQs09Ic0OPO0Z0v/TE2tXbOScye87lQf/FiPKcORbKYzAfPkAR5RleeCm3no3J6NS4XARE3WsLUB48s47bQk5hDJioQ5jmlabmuZB1A+3TZuHxbL9Q2ayei4utD6ktKE/QiXtbI7eOnfJYDxwuQAXKMzo9Ibcmf5ARDGEt6XWsMm9h2GIhOpQKYw5kc91nl+aGFP1fOnpTLTqUGQw27Ph6foiyYYVON5u5NDueAWv71QPEFof9F6A8v5b4Oc55jpfy8PwYDg+gksozId2ri7IVp/KgEBwdBSN3NcXmlnBszUpk0Llj5I4T3SdEBiXTcyGnQJj085eELVCern78HOPmsVUeO/vDAaik8uBNGbiE5/0tKo+bNNNJcBYVQ4cVLASqerDJhQBRIfKBYykXDApzulMTZ8vX8/Zpw2w7hXP7tBPdLzUXMoBoI5PBnXUoT/zmX0ri3M1jqzyujw9DgQAPL8lbAcoI5zxPx+Ta1BjmPE550vgpw3b2P+PR6Rha/NC1U4kMIDbfAeFOxA8xdVIiBxZWqFva9Z+VUHkSt34liUGAdEyutgyYwvhgFcgrT+f6mgwvzMvV6Ul5e+x7OTv7XFpw+Z7QOQ9A4MilIR8gVQWCkqdEDpycMrAi01CXylXznMhBmrNfeDzmFw5nrk546jwWCH+FOc9NSfaePlZXW+qeIn8ODiBAwbei8g1hpxfnsUj4k1x/Ni6j2HqW5/3VFuYLdAaVwyDAvlMg5zi2OQqGDUHOwczNlXNXZ9Vc3lt9r2A8tgaDxPIdIJaXvQpUpcSJ4r/7hd39WCB8/ZVRHtcXdNVBPBfmlad1c1NOrq7IlSnconh8Ty7OPNXbE3EsILqrLUoPnKPKkYOIABGsHBwsA1AIGxTGIOJJ5JSCe8yvBCCW9cqiMW+42k1X5jE4aHL2fXmFxsqjFNYcqDzJmx9J/Pzrr4zyuD46CIAiytO3siQXXkxDeSbkzfEHMoCfabh1HgeONSL7jfZOdc4rpUTRy3vnZGeHDjbACus6IPOhZC0PptXLg9bnK7QOHoPKHQfHasH/Fe0agPJcl+Qbf4E5z2vHfs7DXomG/VWgAuW5OPNcbo/j14TTz6VndQlXXBu5S/U8Z5njzVFsIj4XKJFTqihAvhwipxROtaJDHku4UAwiA4jHtfxK14cC/Oj9LIasjyRxHgD1Dr4Scx7rTYv3D6AiyjP6fFJuTj6RU5gDZQPFR7/5hMaGKe88KIGCky3M9HJXZVaQ5RwELsWA3E2JUI+gajCIbCizfdpiAez7L4gqT2cfLtOv4ekJAHQak+djfrXl+mjn3/0ByHeszXmyygMF6l5bkRTmQjsC1UWHDoOmcJ81CEYOIAceHWmA0MkMLOccbvuurCvH8rnAskzPHZd5uXmV5ZsSOdtqn7dYsOwQG4DyXP9AEmdHJXly4JVUHuvP2gECPHa11be8LK+9nMGV1lOvPPjXhhoKHYxE/63eARGdm1Ui58zarsqgKLRXAFghRJUoUdjWLjEMVVSexA0ABJBeVeXxjkW31nIVVqA8F2am5RdPxuU1xCdWl3WV2R2Iw0KxJzwJEiApq0RUHA9SZLhRh6uSEJCc+hykEsVPn5XUGx9izoOhq+cUlAe3LDC+VfLfja3Dj1u8d4AIj++NvqUlLBJO4WrrmdyYmMScx/4jnSvgvu14Fx1+nprvYCSpkWJD0mEokT+uqhPbSpgNRnzGC4q4hXjoL+w6iQXCqwDozyX5Cs952EvRsDeA8OpBnVhSHMDFxekZ+fWD+xi6nkF5Vt2cZ8eQQccQoAIlKgoQm7hTmfZfiQoBih4XyoaXMIZ45Dg+MII5zy8VIM554sfgl4Q80/0IewOI/2wFR29f35D+uWW5/vSZfPTooZybfYFU/w2OfKutoW6xbgMQcYLqgwJUCItlegerTaahHCe/eXCyLSwXvbxnObaDwWJ+tnI2qXb2chNqV97ZS2PNqlXWE/2YLF+V7vd/KW3nzkkiiUk0fi3ZDK4H9gSQ/rsn+ODczKx8+COeogBAnEC34+3wOWd4x0WcXRQg8wTK5c+FmFEIENNgl2WzV1HFAPLlEOUPmYUAuXK05ewhVuDY9owshcPyPP5nWCi8Kuff65Pe8x2SagnxKLtSz8qvfNgTQHdnNqE8Kzrn+fDHH6E8s74j/TcajnfffOdsl2nf9nJzoUKICu2Zv5ieu7w3xdDL+zzFYTkHg6tpQBaqmE/3ZbcybfhHUL0yF1yRp8EHuFUxImevhTJ4PpATg4G0duAVLPqrSWvPqxv/PwAAAP//zN1ZTAAAFpVJREFU7Z1ZcxxHdoVv9QKgse8bSVBcQI7CY2mkGY39ZP9J/wi/euzwy7zNiBPhcMzG0UggHaRIiOIKkAQXiNi6fM7NvNlZhQaBBqqxdWdEIatyuVmV9+uTWVnVjSRFkAOG/32Tyr89TuX5gzX5l7sP5dPHT2Vq/Y0MbG5EFlJJpC5JUkcaTXvzCWOmM95GzI1lcgH5+frZY5ZHmWRHRG35Y7YDe0xPrE0tx/a4Mbh9Z4/1rX1fL0GJtCRv04vyOP0neZUuyvudSUmr/TIwnMjMlUQWfykyeSmRam8i5bKz2sl/k1YA+mZ1U/797rq8u/Nc/vXOA7m8+so5LMBiXUkHwykAxpzmnO0cqXkAyIEUOxhJcCLr5Os3O45tslYMhoOIdmJ4WIrBQMP5aT6P67IpffJeJmQ1vSFP0n+WtfolSbdwQv4yJmZErn2RyPyiyOhsIrXBREolmNBzdpY77W9LAD15uCZ/+t1DeXf3hcyuvZOhD1Qe72wqQviksxuRro5i75ujGs7cU4mCM+L6DrKGPQ8d1SoDL+sgj/AGJXJtuvbcvjtPs29KlMrrZE7ul76UFwDow86sbNcHtWgJRarYentEBkdFZq91lYgeZmgJoLW7K7L830sKUHVnR0ph9KPDmg1J5kgDiE2aE/nJdfUyShQAcmWbKU+sbAqQqkhk1yuMgqTtETTLZ+w2B9uObCW9sp6MyNPkqtwr/Upep5ck2amielkFseIBKneViE7JhJYAenNnRX78r+8UoFIK5wcY9gPInIa2M842xzaZEwWQTCm899Dm0ZUI8yRTzLQM5ZmV78ufyZPSNXmTzMhmOiClnZKU6hiicOrcCA+3rhJl+GlNgd4CoMf/CYAQNybEhMMrTWY4YUMEhKA1nO8Acnn8y7C/Enn7GWDzk2W0kYETh3peWxn1cUrEujuymbg5z9PSFblf/kJWSxdkJ4XyAKoyVIfA0CRZNogIUFeJ1G36pyUFUoB+sySMnSPoWAdQgMU+2aGNJorBvIyzCRrt7KVE+wFEg/S0A9YNUXQ86zUDiG2JvJYZKM/n8qR8VV6Wp+RDAuWplwAI7rAACqHhaXHjDVfJA9VVIu0+/dMSQBzCHgOgd3dWvcPpCIPI9jk8mOJYQwdVItbdxAbvWdChbDeEWWWzwmwHdRVGA4jHOEdVL+an8kF65W15XJ6VPpEHGLpWoDybSRVXAuXBqVewqQJ5eGhOhzI0o/vIb6ZEc7g7G8HdWf8QAMR5d8Ld2aEBci5zDmlA5MBxQxIhIFQWdkOgOepsV07vnPIAWXWUy899sscsyPNpAKTHqkyxgqWyUpmVb2ufy+PKFVmvT8pW2q/rP0SOpxMgIkjYmMbNINpLiaavJ3L1K5EprBP1VROp4Bb/vIeCADKQCAI377ADKxHr8BPLeu1bH9oo9UB5RuTHnk/k77VfAKR5SbYrfthykPD0CQrvvAgPt8xQhjwFCudLkGIlGpsT+eRLt040OS0ygFWABDLE7byGggBi9xACAwk9q/sOJJfHMgyxkqAcvaF1fZ4e7zUXytf3bSqwrk21BRvZYZRtQnmq0/Jd/8/lEQB6VZmUDekHILjT2vF3WzChKoOYABk4jBUkn08ceJqWzzyC1NMLaMZE5q6lcvPXdZm6CDsVAMrVxnMajggQP2F5ANCbAQinKM6ZcQ96hYLjHUDMox0XmipR5kPsAOEQ5uo1O24MZR9KffIGyvOob0EBelGdw91WBVU5YXZKUiYQ2A/HHwFIwUHLvHSeVl6JJudSuf6rHZnHkDYyWZG+QSwJnNMV6yMD5FxOBzqQsp/8/QByddTGLhCZd1gl8sqnNkWeV2fkb0M/l+W+y7JWGVfl4RpPkro5jyoMgFF40KxBFIBCGk1ZOcYxRLrv61GJeqFEQ2OpzF4Vuf5l6Vw/O2sRoFXchd2Vt0t2G49e88EAakyomeeV5sBzIRqLbToA916p9vZDHTtmXJcP5V4oz7As1xbkr0OfybPeWUyWsbpM5YkUhnAYNEUqUSc8O2sNoKVX8ug39+Td0gs4iOrAISQOpkR0oAOIQLghCR4LjmYdpOfnLkzWegaR2dtLiQwYKx8f462Bnin5Zvgf5EHtsrzsGZOfkn60ifkO13k4dKEam7ONx7aAqPt+eDu0EnXAs7OWAFpbei2P/uO+XwfCAh1WcxvK46HwADTS6Vzv2AMrEes0QtPbe50T7YaQsG6Uq/K6OiTL/Rfl9tA/ytOeWdlJsBQI5SEYYfOAxJNiA4iXEUMUK1acbrbMBmPC2bOF+oj5uHAcd2fXz+lT/EMB9HbppYKT7JqjmGLQ+YTAjtGTuu9AcnkswxBDgHIeQJfn/jYFyAqgfF7JntUm5Pb4Tfl+4BJu1SdkA8rDOy2b87AJG6oCAExD8zEoeYgOqkRciCRAtihf7cOcaJx3Z+fvKf4hAXql7nNDU1aJGsrDIgaQg+lgSmQQGSG0QfD2WR+Cym1WqDyD8mBoXv4y/qk8rs3IllTRbMndlnvTBMHA0ZjH2AhVM4AMHApoPPSxrh5H9qhA9vSer4EYRKBcJuahRHghbX4Rd2fT5+N9oiMBZIC0RYmMH1UkAkQIm8yFonLPa+Pyt4lFuT94ARPmcVkv9+MUG8oTFAYOpzluGSXyEBkwATQPDj4PWieAEx/7SbmBqW2hXgXcG0S9A3jUMZ1CiUSufl6SiQtn/83GIwLkvMchppRsqFIEf6rD0cManIoQOBecolBZssENcY3XRLyHfL29lGij3COve6A8w3Pyl4mb8mP/tCpPXUoBFCoDgdAFQsQ8vQAI9+0YeUGJ/L4BZZek4CGPddQO4gMpEdaCKtVUlejKZ4mCNIq3HPlm41ldsW4bQA6MxhDmYEFPazgcQKZ4eSV65pXn3vAFedI/Ju8quNuyOQ/ao5PN0eZ8Hao8SJqGMgGoGBwoi8IR5R9aiWCXQ1lffyojU27F+tqXdVWis7piXRBABCI7F3KgoL/oHVUQlon3j/LU3gH4oVqW1V6nPLcxdP04MCU/4Q4MeujmMh4QPkhg07phv11KZMpF4EJbaJfHXGAMcyKvRJMX6kKA+IrsyERZ+gagmGfs2VkhAJky7J4LGUamRAYRP4o2OUbP+iHKlUb6AdeHHg2Oy//gDfd7I3Oy1jMAePpYE+Y473GghEkxjBtENvTQsUUqkb0GYvbZXv49Ip0T8fK9Eo1OA6DrKV7W5yQbT/DP2LOzggByrndzlHYqETyCsFHtkbXakNwdn5VbczdkGSAZMIzDEJMDhEpkzqWdopXIAKISxbCaArK986ZEhQLkVIUKstfd0mGVCD1vZMDxz4cn5JuF63JnYlYe9A7JWqk3oyQxQAYWlUYdi/rmXIuLUiLaUYgIrj9lbR9AKbw+Tcvx7gzHZ12JCgYIHcI+aXJX5nIMoEbshi8Obc3mRD4dAxO97pQHc56pGfnTwqI8xOrcGzyW2MKEmU7hJ1wd5uMYJAWIZagOPEevEjwvdSgW/hgzBKejTGzX5jhsh/sa59pSW8w3YH07QZVgfy8lmphP5eoXdb07G5kqS+0MzIlOCCC6CT2LzU2s6TnuO2BcHssYQK7ss5Fx+fvCNbk7NSs/1AblZaVXdgAQviASnB7PaWKADKzwng+sG0R5gNiyQRTKRyAoOAQE7RJIHjO29gJESNcyPt/AtWFUy0VK1FtL8RQf3zvDnOjGV3WZvHj650RtAoiO328uRDc5aHYBo9ruPEKo1qsVWQEwD6dn5Pbla/LDyJisYaK8pa9kNBzHauYwA4axOTbveHOoOZL5BhXPjscckszhBpXaYTq2ZkrE8gSPdu18mKZ2YFfb8PYzcyKeK05q8mIqi7/G+0R8x/qU3521BSAHBuDYdy6UB8h5O6tEqQJza+GK/N/MjLwcHgRQPVLHJ9eUxwAhQObkVpRInUtn0+nYCAYDbSkEiNUu0hUCO2Z+EyVS8GgnV07bYZq3bfkGcFixHkxllCvWi7jNP+V3Z20CSPvfD0n7KRHVCr1KCkJwQ9d6L5RnoF/uQHluLVyV5bFR2amw++G47dStq9AhHpwYJPvkm+OtCTuOHW8ONUcSACtnTteYADEP7TOfm7UTKxHLKIi+DOtaObMXbMAWy2eU6AytE7UVoIMrUR4i9DhoWB4fka+vXZal2WlZ6R9Q5cHIpUEdzE8/QGoGkObTcV5ReGyAxYCEOQ6yDRKFK6qnoKA+6wUAcMz0uB2FBGkBFoLk68Tlgg20aemMWfasrRO1GSD1dctKtN5TVeX5bm5avr5+WUEKAoWOtqBznnOkRAQofg2E9/58dnaaV6yPBaBWlWh5bFjBIUAvRvuFQOn8AB0cAkHCpp/gc6JEnLDHL6LptUJx+ezstK5YHxNAzu17r1RzMp0ClIqsDvbJd3NTCtDDqRHhlycUFECCh1wKjForWImqmJTr0AbjhDIMKdFQFg9hNtzFdZhmcysFm8eAgmUOMificMq5EOuo4lp8ipXoWAHaW4kcQMvjVJ5LsgSAqDzva3gZjH3pHarriTFEmskCR1MiOtcAoklzPoEwkBQAOJTHmoY4BipTzpdhmkKFeloWsQLl8w04xrYxnxtB4hAdfkHnlCrRMQNE96BjcivVTnlqsjQ/CYAW5OHUsFMedJp2IDpY67Hj0bF+Ydol+jwe8Gl3ecvdnfHYnG2A6ZwJTlHVoNOwr05GPZ1M02lMj+pyzs5ymm/laYPlbOMxNt6JxUpjAGke67IMy6Kc5emxT9N0tHeWlOhUAETluUXlAUAvRmsN5UFnqpQz9oEdn1EiHvuQB4jJWt47jA4MjgMsBpCmET6/mSOZbuUZ09kfVSLmo5wBw1ghYzo2A5lpu0Di+bCu37Qt1DntSnRCALmV6p/wQ5WrA1Secfl6cUGW91Aez0eI1LHo8KBE6HQG/YRHd2UGn4FgDgxKAAcpIIyxBYAsnTZhWzfsE4iWlIg2CQRjb9POYRdAyA/ARRCd9jnRiQDEjyInzT9MDMgfrs/K0oVxWdlHeQhIHOjUXUrkna1K5NeHrI6W9/l5JSI4TKMDWU4d7hWBQxjTNN3Hqg7M9+WZZ6AExYnsGCwGiEG0lxKpfbRr9nl8WpXoRADSOc9QTe7MjcgfbszK8vSQ4Auj6LHsnMecv1esjm1VibzTaZPQcPKsAMHhwbFIj4cqzonobLbHQMe2Q4lsDhWAQ1sKLs8T18l0niM/OBrn7s7m8F380cmqvtmIEscSTgSgHyaGVHnuXBiRlTHMefpwr84JMy/ZO+mgV69ORYdycq37rI9NO56dHikR00x9aN8Ask96qEd7KMt0HdZYj+W9XYtVKdCG1Wf6UZTIXkgzWFXN0K7Z30+J5m8kcvOrMt5sJPLHE44VoKKUJ9816lA4cr85UYDHQCAg2MxBFscgKUAsk4OI58DyeylRbNeUheUNMObzvK0tHhtALBMgtX3f3seUaOqS4DWQEn4VBD8zM4JFyRrstPkd62MFSJVncVbuzB9deejAOKgz6BSAZI4x58RzIstTB3knEo54yAr1LJ/OpdLQmWhU65pjWRf5cX2WC+V9uQAO7ChcSCdQLGvtBYhoj3k+39rU9lGeec3mRDWuWM/i2x54n+jqL+r4SnX73yc6FoCaKg9XmDls+Q6MYTjsvjoWDjpuJVLHR280qjKZ83F9PC86XxXIgxGAwjHzCZGBR3sxQAoOiuj1IaadjynRcT47OxaAds15aqRH+8z/0cNC/qgz6JRjVKI8QDwHhQAx94OS2DHzmyiRgod0UxrGqmy0wbroIbXHfeZ5kDg0n9SKdVsBaqo8h7jbapUsdm5mxRrHDOzo8/geEUGigu11d9bO7521FaBdynOEuy0C0EogRDqUHYMSUR10eKKqUEHgUIUY6TZUaRkcWzpjUxgCoPuM/WZpcblgA5dm6YxPUonaAtBJKU8eML3rIkBwin5CfYGuEhX3Ddi2AHSSyhNDlAHIMvCJtbueou/OVCEAq85vOkSJCgXotCiPsUJ5z8yFmEGAfChCiew1EJvg2pCy1/qQQabDHM7DhiKbVMfHOixySON1YGOsQ5tP03Rvg+0zz15I4yWGO9zcinWRc6JCATotysPOs8COz8yFLIPp2NQxnLv4FWst79NVwbCvjosUxerR6QYQzZqTzeF06EHmRKGcnQ9iAphpPw8Sz8efm8Ebv9EYLhNlNKBQO95sLASg06Y81nkW07HtUCIOgao0dDadiQa1LbaHfSrIQZSIE20FjfVox+phP8CaB4jHPs2UiG3F60O0xdBOJSoEoNOoPK7rGn+1M9HhmfUhyzbHwQGtKJE6m3X8Zo5kuub5OCgM27c0xAEApNvdGssy3WLaNIi4r+nehh6jbca2aVuobyvV4RJph6FgJToSQKddeVyPNf6q89Dh+ZVqK6GT6tPwRmMOKJ63QbQLIA+cAUTla1WJjvIU/0gAnQXlMTgsVmeg05spUR4g1omdl5mT8JNPO6YGXoXCUOTrMp/OZazqkKtnyqMAxODQHuFgfR8bREyzPLNv7Wp5awv1DqJER3mKfyiAnt1/K6sFvM9jTj3uWJ0OB+WVKH9XRocxaHk4g7Ee0zH+Wxx6jHSt6yEysDgnokOtHp1eiZ6ZMT0PkAGjgKC85fNY7aAOy+jcCjEDj3UY9WVsLsY6+TlRmA+xrr87m1o4/FP8QwH07Yvtwt7n0R44gT/qDHY4nG6OCZ9wgnDA94h46qxPgAI42FeHMt3y6WSkHwQgtYfyMRgGlsUHAYhlactA4tei9EOBNIKk/4UKENUGDv8UvyWAVu6tybe/fSR/fJPKrU8vujcJ8VwUPwAfTgx7ZyewE9GpKX9jCPvsXwYbyggFgwFCNaii5/mp5i1zJh95plhUNvwraKdw2C2jTmXHbTrURHadk1EW39nmvpZjDPT42JDONzB5HjacaTpsJvzv2XV8EyUqx/81XUFt/NAfLLB9bDhnXpeeG47jUEJD+g3YS/ipvV/i94muJjI0WpXeGh378dASQPefrstv/7wqt9+l8nQGv4Y6iDeW0EbufD7e4mnKxYnTKRtwHn+oasNfiKoJhigFxC4OcR8cNb5dl344QqGya7Ey/hhFZH3T/fAVk3p26jKwhZ883+a/SrdKzgaPUjh7m//sF3ZrKNOPdgbgVaQoAooB6jFmuwwK09a2lH7akBLiOL2S4F9M8VfbEIeyqBdDphn+D5UowYnVhkXG5vCbjVdKcvlnFfyrqoIBeri2Kb9/tC7ff0hlq78mO1X3xb/4ZM7i/iY6lwDhsjQoHFQJbgw+Hb//JGMECA7+WNiErXUoEH85jaFaBxQAiCA1C/xVWf6iPv8JTB8AqilAJenRMaZZDZeWbKEmAEoAUBwaAFHDGoHXRTUy2Bo5bg8/cAvVSWUM//f10s0yfpuoYIDeb9VlZX1b3qMf6uUyhq79G8if5Gk85nwAc1vJcNGEEbqjimvHlX/0MlIoGlkxeyVqDA4g93vU09+lRT6HMZTlkAd49uvdhA2goYQ/lBQF1iwneGCqmhVlYFc/HNmkcIQqwuGM/9ujHz9+XsXXrvYLLQ1h+xnr5ndeD3QB6jyfF3rFXYAK7c7OM9YFqPN8XugVdwEqtDs7z1gXoM7zeaFX3AWo0O7sPGNdgDrP54VecRegQruz84x1Aeo8nxd6xV2ACu3OzjPWBajzfF7oFXcBKrQ7O89YF6DO83mhV9wFqNDu7Dxj/w8o9lFV27DyYQAAAABJRU5ErkJggg==;" parent="Qo9TZvfHBqD3udErQPZc-18" vertex="1">
          <mxGeometry x="100" y="29.571470588235307" width="20.470588235294116" height="21.604999999999997" as="geometry" />
        </mxCell>
        <mxCell id="Qo9TZvfHBqD3udErQPZc-4" style="edgeStyle=orthogonalEdgeStyle;rounded=0;orthogonalLoop=1;jettySize=auto;html=1;entryX=0;entryY=0.5;entryDx=0;entryDy=0;startArrow=classic;startFill=1;endArrow=none;endFill=0;" parent="Qo9TZvfHBqD3udErQPZc-20" source="Qo9TZvfHBqD3udErQPZc-3" target="Qo9TZvfHBqD3udErQPZc-2" edge="1">
          <mxGeometry relative="1" as="geometry" />
        </mxCell>
        <mxCell id="Qo9TZvfHBqD3udErQPZc-23" value="" style="shape=note;whiteSpace=wrap;html=1;backgroundOutline=1;darkOpacity=0.05;size=12;" parent="Qo9TZvfHBqD3udErQPZc-20" vertex="1">
          <mxGeometry x="229" y="90" width="30" height="40" as="geometry" />
        </mxCell>
        <mxCell id="Qo9TZvfHBqD3udErQPZc-24" value="" style="shape=note;whiteSpace=wrap;html=1;backgroundOutline=1;darkOpacity=0.05;size=12;" parent="Qo9TZvfHBqD3udErQPZc-20" vertex="1">
          <mxGeometry x="90" y="130" width="30" height="40" as="geometry" />
        </mxCell>
        <mxCell id="Qo9TZvfHBqD3udErQPZc-25" value="" style="ellipse;whiteSpace=wrap;html=1;aspect=fixed;" parent="Qo9TZvfHBqD3udErQPZc-20" vertex="1">
          <mxGeometry x="270" y="184.76" width="80" height="80" as="geometry" />
        </mxCell>
        <mxCell id="Qo9TZvfHBqD3udErQPZc-26" style="edgeStyle=orthogonalEdgeStyle;rounded=0;orthogonalLoop=1;jettySize=auto;html=1;" parent="Qo9TZvfHBqD3udErQPZc-20" source="Qo9TZvfHBqD3udErQPZc-15" target="Qo9TZvfHBqD3udErQPZc-25" edge="1">
          <mxGeometry relative="1" as="geometry" />
        </mxCell>
        <mxCell id="Qo9TZvfHBqD3udErQPZc-27" value="" style="shape=note;whiteSpace=wrap;html=1;backgroundOutline=1;darkOpacity=0.05;size=12;" parent="Qo9TZvfHBqD3udErQPZc-20" vertex="1">
          <mxGeometry x="220" y="230" width="30" height="40" as="geometry" />
        </mxCell>
        <mxCell id="Qo9TZvfHBqD3udErQPZc-28" value="" style="shape=note;whiteSpace=wrap;html=1;backgroundOutline=1;darkOpacity=0.05;size=12;" parent="Qo9TZvfHBqD3udErQPZc-20" vertex="1">
          <mxGeometry x="295" y="204.76" width="30" height="40" as="geometry" />
        </mxCell>
        <mxCell id="Qo9TZvfHBqD3udErQPZc-8" style="edgeStyle=orthogonalEdgeStyle;rounded=0;orthogonalLoop=1;jettySize=auto;html=1;entryX=0;entryY=0.5;entryDx=0;entryDy=0;startArrow=classic;startFill=1;" parent="1" source="Qo9TZvfHBqD3udErQPZc-2" target="Qo9TZvfHBqD3udErQPZc-6" edge="1">
          <mxGeometry relative="1" as="geometry" />
        </mxCell>
        <mxCell id="Qo9TZvfHBqD3udErQPZc-9" style="edgeStyle=orthogonalEdgeStyle;rounded=0;orthogonalLoop=1;jettySize=auto;html=1;entryX=0;entryY=0.5;entryDx=0;entryDy=0;startArrow=classic;startFill=1;" parent="1" source="Qo9TZvfHBqD3udErQPZc-6" target="Qo9TZvfHBqD3udErQPZc-7" edge="1">
          <mxGeometry relative="1" as="geometry" />
        </mxCell>
        <mxCell id="Qo9TZvfHBqD3udErQPZc-6" value="MQTT Broker" style="rounded=0;whiteSpace=wrap;html=1;" parent="1" vertex="1">
          <mxGeometry x="730" y="247" width="120" height="60" as="geometry" />
        </mxCell>
        <mxCell id="Qo9TZvfHBqD3udErQPZc-7" value="Hardware" style="rounded=0;whiteSpace=wrap;html=1;" parent="1" vertex="1">
          <mxGeometry x="960" y="247" width="120" height="60" as="geometry" />
        </mxCell>
        <mxCell id="Qo9TZvfHBqD3udErQPZc-11" value="" style="shape=image;verticalLabelPosition=bottom;labelBackgroundColor=default;verticalAlign=top;aspect=fixed;imageAspect=0;image=data:image/png,iVBORw0KGgoAAAANSUhEUgAAAG0AAABvCAYAAADmME5dAAAKs2lDQ1BJQ0MgUHJvZmlsZQAASImVlwdQU+kWx797bzoJARKQTuhNkE4AKaEHUHoVlZAECCWEQBCwK4sruBZERFBZ0KWIgmsBZK1YsKLYsKALsgio62JBVFTeBYbg7pv33rwz8833y8n5/ud8d+6ZORcACp0jEqXCcgCkCbPEIT7ujKjoGAZ+CCAAAvKADLAcbqaIFRQUAFCb2f9uH+6jsajdMZvU+vf//6vJ8/iZXACgIJTjeZncNJSPoWuEKxJnAYDsR/26y7JEk3wZZboYLRDlnklOnOaRSY6fYgxmKiYsxANlZQAIZA5HnAgAWQ/1M7K5iagO2RNlCyFPIEQZ/Q1c0tLSeSijeYERGiNCeVKfGf+dTuLfNOOlmhxOopSn7zJlBE9BpiiVk/t/Po7/bWmpkpkcBugiJ4l9Q9AdrQt6kJLuL2Vh/MLAGRbwpuKnOEniGz7D3EyPmBnmcTz9pWdTFwbMcILAmy3VyWKHzTA/0yt0hsXpIdJcCWIP1gxzxLN5JSnhUn8Sny3Vz0sKi5zhbEHEwhnOTAn1n43xkPrFkhBp/Xyhj/tsXm/p3dMyv7uvgC09m5UU5iu9O2e2fr6QNauZGSWtjcf39JqNCZfGi7LcpblEqUHSeH6qj9SfmR0qPZuFvpCzZ4OkzzCZ4xc0wyAA+AAGCEf3MBACWCASsIEn8Mri50y+o8AjXZQrFiQmZTFYaJfxGWwh13wuw8rCygaAyZ6dfiXehUz1IqR0etaXjvYQ8wPaJ9tmffElALQUoKkfzfr09gJAzQeguZ0rEWdP+ybbCWABCVABHagATaALjIAZsAJ2wAm4AS/gBwLReqPBEsAFSSANiMEysAKsBQWgCGwFO0A5qAT7QB04BI6AFnASnAOXwDVwC9wDj0EvGAAvwQj4AMYhCMJDFIgGqUBakD5kCllBTMgF8oICoBAoGoqDEiEhJIFWQOuhIqgYKoeqoHroV+gEdA66AnVBD6E+aBh6C32GEZgM02EN2ACeBzNhFuwPh8GL4UQ4A86D8+HNcBlcDR+Em+Fz8DX4HtwLv4RHEYDIIEqINmKGMBEPJBCJQRIQMbIKKURKkWqkEWlDOpA7SC/yCvmEwWFoGAbGDOOE8cWEY7iYDMwqzCZMOaYO04y5gLmD6cOMYL5hKVh1rCnWEcvGRmETscuwBdhSbA32OPYi9h52APsBh8Mp4Qxx9jhfXDQuGbcctwm3B9eEO4vrwvXjRvF4vAreFO+MD8Rz8Fn4Avwu/EH8Gfxt/AD+I0GGoEWwIngTYghCwjpCKeEA4TThNmGQME6UI+oTHYmBRB4xl7iFuJ/YRrxJHCCOk+RJhiRnUhgpmbSWVEZqJF0k9ZDeycjI6Mg4yATLCGTWyJTJHJa5LNMn84msQDYhe5BjyRLyZnIt+Sz5IfkdhUIxoLhRYihZlM2Uesp5ylPKR1marLksW5Ynu1q2QrZZ9rbsayqRqk9lUZdQ86il1KPUm9RXckQ5AzkPOY7cKrkKuRNy3XKj8jR5S/lA+TT5TfIH5K/IDyngFQwUvBR4CvkK+xTOK/TTEJouzYPGpa2n7addpA3QcXRDOpueTC+iH6J30kcUFRRtFCMUcxQrFE8p9iohSgZKbKVUpS1KR5TuK32eozGHNYc/Z+Ocxjm354wpqym7KfOVC5WblO8pf1ZhqHippKhsU2lReaKKUTVRDVZdprpX9aLqKzW6mpMaV61Q7YjaI3VY3UQ9RH25+j716+qjGpoaPhoijV0a5zVeaSppumkma5ZontYc1qJpuWgJtEq0zmi9YCgyWIxURhnjAmNEW13bV1uiXaXdqT2uY6gTrrNOp0nniS5Jl6mboFui2647oqelt0BvhV6D3iN9oj5TP0l/p36H/piBoUGkwQaDFoMhQ2VDtmGeYYNhjxHFyNUow6ja6K4xzphpnGK8x/iWCWxia5JkUmFy0xQ2tTMVmO4x7ZqLneswVzi3em63GdmMZZZt1mDWZ65kHmC+zrzF/PU8vXkx87bN65j3zcLWItViv8VjSwVLP8t1lm2Wb61MrLhWFVZ3rSnW3tarrVut39iY2vBt9to8sKXZLrDdYNtu+9XO3k5s12g3bK9nH2e/276bSWcGMTcxLztgHdwdVjucdPjkaOeY5XjE8S8nM6cUpwNOQ/MN5/Pn75/f76zjzHGucu51YbjEufzs0uuq7cpxrXZ95qbrxnOrcRtkGbOSWQdZr90t3MXux93HPBw9Vnqc9UQ8fTwLPTu9FLzCvcq9nnrreCd6N3iP+Nj6LPc564v19ffd5tvN1mBz2fXsET97v5V+F/zJ/qH+5f7PAkwCxAFtC+AFfgu2L+hZqL9QuLAlEASyA7cHPgkyDMoI+i0YFxwUXBH8PMQyZEVIRygtdGnogdAPYe5hW8IehxuFS8LbI6gRsRH1EWORnpHFkb1R86JWRl2LVo0WRLfG4GMiYmpiRhd5LdqxaCDWNrYg9v5iw8U5i68sUV2SuuTUUupSztKjcdi4yLgDcV84gZxqzmg8O353/AjXg7uT+5LnxivhDfOd+cX8wQTnhOKEoUTnxO2Jw0muSaVJrwQegnLBm2Tf5MrksZTAlNqUidTI1KY0Qlpc2gmhgjBFeCFdMz0nvUtkKioQ9WY4ZuzIGBH7i2syoczFma1ZdHQ4ui4xkvwg6ct2ya7I/rgsYtnRHPkcYc71XJPcjbmDed55vyzHLOcub1+hvWLtir6VrJVVq6BV8avaV+uuzl89sMZnTd1a0tqUtTfWWawrXvd+feT6tnyN/DX5/T/4/NBQIFsgLuje4LSh8kfMj4IfOzdab9y18Vshr/BqkUVRadGXTdxNV3+y/Knsp4nNCZs7t9ht2bsVt1W49f421211xfLFecX92xdsby5hlBSWvN+xdMeVUpvSyp2knZKdvWUBZa279HZt3fWlPKn8XoV7RdNu9d0bd4/t4e25vddtb2OlRmVR5eefBT8/qPKpaq42qC7dh9uXve/5/oj9Hb8wf6mvUa0pqvlaK6ztrQupu1BvX19/QP3Alga4QdIwfDD24K1DnodaG80aq5qUmooOg8OSwy9+jfv1/hH/I+1HmUcbj+kf232cdrywGWrObR5pSWrpbY1u7Trhd6K9zant+G/mv9We1D5ZcUrx1JbTpNP5pyfO5J0ZPSs6++pc4rn+9qXtj89Hnb97IfhC50X/i5cveV8638HqOHPZ+fLJK45XTlxlXm25Znet+brt9eM3bG8c77TrbL5pf7P1lsOttq75Xadvu94+d8fzzqW77LvX7i2813U//P6D7tju3ge8B0MPUx++eZT9aPzxmh5sT+ETuSelT9WfVv9u/HtTr13vqT7PvuvPQp897uf2v/wj848vA/nPKc9LB7UG64eshk4Oew/ferHoxcBL0cvxVwV/yv+5+7XR62N/uf11fSRqZOCN+M3E203vVN7Vvrd53z4aNPr0Q9qH8bHCjyof6z4xP3V8jvw8OL7sC/5L2Vfjr23f/L/1TKRNTIg4Ys7UKICgC05IAOBtLQCUaABotwAgLZqeqacMmv4OmCLwn3h67p4yOwD2dQMQthyAgBsA7CpHR1pUnxoLQBAV9TsB2Npaumbm36lZfdI00W+F7M8Azoh4cHDvzEwstek5/ru6/7mDSVUb8M/9XxE0Ca4xw0U6AAAAVmVYSWZNTQAqAAAACAABh2kABAAAAAEAAAAaAAAAAAADkoYABwAAABIAAABEoAIABAAAAAEAAABtoAMABAAAAAEAAABvAAAAAEFTQ0lJAAAAU2NyZWVuc2hvdP6DJlIAAAHWaVRYdFhNTDpjb20uYWRvYmUueG1wAAAAAAA8eDp4bXBtZXRhIHhtbG5zOng9ImFkb2JlOm5zOm1ldGEvIiB4OnhtcHRrPSJYTVAgQ29yZSA2LjAuMCI+CiAgIDxyZGY6UkRGIHhtbG5zOnJkZj0iaHR0cDovL3d3dy53My5vcmcvMTk5OS8wMi8yMi1yZGYtc3ludGF4LW5zIyI+CiAgICAgIDxyZGY6RGVzY3JpcHRpb24gcmRmOmFib3V0PSIiCiAgICAgICAgICAgIHhtbG5zOmV4aWY9Imh0dHA6Ly9ucy5hZG9iZS5jb20vZXhpZi8xLjAvIj4KICAgICAgICAgPGV4aWY6UGl4ZWxZRGltZW5zaW9uPjExMTwvZXhpZjpQaXhlbFlEaW1lbnNpb24+CiAgICAgICAgIDxleGlmOlBpeGVsWERpbWVuc2lvbj4xMDk8L2V4aWY6UGl4ZWxYRGltZW5zaW9uPgogICAgICAgICA8ZXhpZjpVc2VyQ29tbWVudD5TY3JlZW5zaG90PC9leGlmOlVzZXJDb21tZW50PgogICAgICA8L3JkZjpEZXNjcmlwdGlvbj4KICAgPC9yZGY6UkRGPgo8L3g6eG1wbWV0YT4KtKywLQAAEr5JREFUeAHtnQeQFEUXx/uOQxFEVJADRDhRMYEBATFjDmXOAUssc8KIiGXAnHPOiqEUSy2VMitSKooZc0RE1DKgGFBUsL/3a75ZZmcn9OyE3T33Vd3t7kzH9+/4+r3XDQPaj9QNqkHFIx0veOzQC9Jf8C12IhlG8JZqPv+8T4MLYBHSN4hWbRraqYYOjT0EtDbB6Ze88U2tJFT9Qfoc0Gqe6tzUXzXpdrNUn+WWU4sttpj6999/088pxRSbmprUP//8oz755BP1008/xUq5oaFBdenSRa244opKa131dXVXrrGxUf38889q6tSpas7cmappmWWWUWeeeaYaOHCgmjdvnjtsqt9hGgTDyiHiU/jx48erc889NzZo5Nu5c2d1xBFHqKFDh6q//vqrnGJUJA6NdeLEierUU09Vs6fLqNi/f3/96quvSp2ypblz5ybKQBqUvvLKK3XPnj1Bvey/FVZYQU+aNClRWSoR+bnnntMySujmpsG6UQqghKGZtiCG3SlTpqhrr722rHyIf80116izzz5bzZgxo6w0nEiffvqpOvbYY9VLL73kPKqJTzACK6gxjxIztM2cOVONGTNG3XbbbbGzvP7669VZZ52lvv/++9hx/SJMnjxZHXPMMerll1/2e131z3IBDS60adNG/fDDD+qMM85Qd911lzVjbrzxRnX66aebuNaRLAK+/vrr6vDDD1cAWGuUG2jOQuTLL780E6oNcLfccosaPXq0+vHHHzPh69tvv60OPPBA9dprr2WSflaJ5gaauwLTpk0zwN15553ux0Xfb731VjVy5MjYq8SiRCx+vPfee2r48OGKnlcrlAg0JkabP5jRtm3bIp4A3CmnnKJeeeWVouf8YN474YQTzN6k5GUGDz744AO17777GuBs6pM0TNIqNMVN4O+//1ZvvvmmeuCBB9Tnn3+unGEvKh2/IW769OnqyCOPVFdddZVae+21zYZ37NixuQLmlPujjz5Su+66q1pzzTXNftB5nvYnK+Hu3bur7bffXm2wwQaqQ4cO8bPo16+f9b5l9uzZ+rLLLtPt27cve58kJSyJu8Yaa2hpCFqGRL344ouXvPeLU+vPpLFr2XpokexIx42mp556Svft23f+Ps0WZlrICy+8YHrBH3/8YRvNKtw333yjvv32W/Xxxx8X9iJWEWs4kMCkpAOocePGxd4nWw+Pf/75p7r77ruLRF3S41Tv3r1Nd0fEREGCCNkZw6qXRMKhLr/8crXNNtuYP95fd9116tdff/UGzfz3UkstpVZddVWzPckiM7Y8zOXuut1+++1q9913V0sssYR9lrbD46xZs/SQIUMKQ9eiiy6qR4wYoWVeKvRt6Y066A8xjJSq6E+E1FpaWiG+82XUqFGa9L3hs/wt84yWRqlFIB1Yh6C62TynbjKva5Gbamkchbrx/auvvnKqHvjpHh5VHNDWWWedQmYbbrihlpYTmIn3hQg8C3FhPoCJAFQjU/QSz44//vjU584g0Hv06KFlAeQtRia/kcFKz9IyMhl+LLnkkvqLL76IzMsNWtlL/l69epmjDmFEJEmJiobVjh07mlUj+zCGVS/x7JxzzlEHHXSQWnjhhb2vU/299NJLm7z22WefVNMNSgzJ0HJyFOZsgVh9267A56epy5M9komTaVDhgp4zDx566KHqxBNPVIAXRICFvBGJxUILLRQULNFz5lPkocOGDfNtPIkSD4kM//waa0iUolelzbzodfAPek8c4vCSg9ZLLrnEgNGpU6fI6IBK+IsuukjJHBcZPk4Azg/ZxB9wwAGK86o8Cd7F5Z+7fGWD5k4k6jsFlLHbtGpERnGGPMLS2xA0L7LIIlFZWb1fa6211Hnnnac22WSTmEOTVfKZB8qliTEcsJReZZVVVLt27WJXiiH1kEMOMa2T01u2H+VSc3OzOv/88w1gSYaocvNPI15uoCXtJYh7mAshjmpEOhO7/uzDOEjdeOONE80psTNOOUIuoKVVZoA77LDDDMNPO+009fvvv1snDWAXXnih2nPPPTPbPFsXJmHAmgKNujqrT5bOnASwwIkiAGNBs8cee2S2Eo0qQ5rvc1mIpFlg0mKoZag8+OCDI+dIAENMttdee7UKwKh/zfU0Cg2xd7vgggvMUHnzzTf7Lk66du1qAKOH1eqiY35ti//XLGhUgzmOPRxD5U033VS0OAEwUbkzQ2JxlSv/yysBidugaho02M8+DuBgBMCxOHGGRHpYJUkEyeqXX34xUn0aFkQ5kfI7m2vCfP311yX7Rd6zPUIr2gtyzYMGI5BoXHzxxUa++dBDDxkNZOawShOAPP/88+qkk04yGs30KMDjFB8NAAhQOZpxS2XQ9EYadNRRR5n9qbcerQI0KgVDUBend6277rreelbkN0DIaYjaeuutjbKtn1IwwMrRTEn5aHR77713yXMe1OTq0bcm8pA5rloAc8qI/QCnGeiE2BLiNfaUQQL1VgWaLVPyDsfxz8knn6zk3C4y65VWWslIbTiBCKI6aEGcSfk5Qmr2lmGnFQjVUSuUw+bQ3OughbIn3ZdyGm+MP/yAQ2BwxRVXKJvD2Dpo6eISmhoiOFaE2267bYn887jjjjOryNAE/v+yDpoNl1IMwx4SI84BAwYUUt1ll12MFY/tCX0dtALr8vsiho1Gq7pPnz5m/rr00ksj9W3YaDuSE+t9mrcVODv8/KpaXTn99ttvCqsbJDAOM+OUEB0bFhzLL7+8wpbgww8/DIwOrzEQmX8U1TFcYIxFCRaTKJmit//uu++ahBGxPPHEE8ZoQcx/1ZZbbmlOpt27+sAStJIXovammIfgSzmEaAq7b3hmAzpHUJzYd2noror0HmV3rkWsosUEScsu3ujVS7fUknBBT08KaPT1JFMtLUCL7M+EQw9STGy1WGsaZU8BtlWT9DKjW+/wI6/P5qZB2oAmZqx6zpw5+v7779eDBw/W0nU1oMQpiAPiyiuvrMUYUItQtNWDhuF6HB6lEdaAhsXK008/rcVVg6ZXpZEwacixvv7ss89aba+jp1UMNHTY6V1pgeVOR2y9tEygrbLHVRK0RkyMxI+I8Dp9euutt8wO389aJv3c/jspZr5Pw+YMLwJYfdYpHQ5kDhrFpCejZJq2MWI6LKi9VHIBTSY1Y6P94IMP1h6HqrDEuYBGvellWHjiuadOyTiQG2j0NhYmAGdD6FbwV6dSDuQGGlkjhhGLxkj/IDh+wVVFfdVZChhPcgWNDHGzFOQdB4dlOBrjaP79998vUR0jfp0qABoeUf18Ub344otmT3fDDTeo7777zghREarWqZQD1kczpVHLe4KJklsyjvSaeQ6vPTxn7nOIM6RqJU6hK3U8lTtogIJGLQqZaNpy/P7www+XmC2hD4iPjaykNUkaA0cprIKpRyUod9CoJNq14lfE6No//vjjRZ4P3ExgGA2a/9zh8v7OsE3jo2FVgpg0FoxHOZUAj90ctT/77LMF9eicsq75bORoJvzkOqsa4oMEmzEMJvBNHGRDjVoZ85p7nsuqTHHSpaeh4s38XIneVpHhEX0THKBgX4ZrCsDzCpRhzHDxhLDzzjtXhDFhIKIigANrHNT46eGHxU3rXSZnaVI433RRURBNW+k8C+ixxx7TooOvBcxCHJnstXgXXxCoyr7J6YUWbw2F8gbVN+3nnFznvrlGu5Y5zU1YleDhjp6FajQkGFX1hQcM6ayAK0G5g4aRHF5UvdTS0mLmN5y8YIQAaJViirds1fY71zmNeQo9v9VWW82XD8wVyBwBjfmiXP9bvom3ooe5gsbQhy8q7MjCaLPNNlOicKREQyws2H/2XW6gIUUYNGiQ2mqrrayYzTBaJ38O5Dan4e4Vjdwg60b/4tWf+nEgF9DoZTjcxCdVnZJzIBfQsDfGKScLjTol50DmoG2++ebq6quvjucNO3m9WnUKjcsuu6yxQPQzKU1ac26UwHsphuJ1So8Djcj+uAQOT6Ncp8FeKgkRH7e3bJK5lakOWBJu+sdtdG7A465MkQGq/fbbz1glxt3YMl/RW3fYYQdju4aeB+C1ZkJqUwkqrAzoIWxoGc7eeOMNde+99xrNKa4UQc4GuG6xEitCgEJiTw/daKONjHu+9dZbr2LH8HkyEH4hJIi7hSEeQgPHzZKTDvwMagSEgf+OsKGByxS4DdDPdwXmou+8844BcZpct+HcCUPiq6++uuLmXrFHU+uvv76Si33y5FnF8+IaFvQy+YThtkQjp0NgSYt+DKMThvNIi4JAo3NghXvHHXcoNbNXsSWoRAolMTfVskHWIh8MDVd/Gc4B8cGs5YDXHOuI5MfqZie5nEljsNm1bcyjGe5MwxL/nnvuiXWvp20r/K+EY2gUWE11+cQTXRS5j4Ks+zW3uNONIXQXAQ+F0jol5wBzVhyyAo0JEH+K3ObnEGMszpwZ0+uULwesQEMJBz/BbmI1c9999xkXd05Xd7+vf8+OA5GgoSyKL2A/YDBf4upj/I3UKT8OhILG5MdtE9hlB9GMGTMUN77X7c6COJT+81DQ6GHsRaKI3vbII4/EvtsyKt2479n8s2Bq7RQIGvdPYxjh7MLDGIFOPpfuTJkyJSxY5u+4RwYxGqrmrZl8QcNODCEytmS2RAvn/pc4cWzTtgmHIhBOLlnhcgMUxoutlQqyR3cF5dJWc5HOTjvtZKT+jryMFSSg8Bv3rnizZkhyFik8d8sn3Wlm+Z0bDbl+2Nl+oPXLSTmay1tssUWWWVckbV/QUHND6u8mdu0MO05PwvscZkpuArw8bbbYdgAYPcwrVUDNnMvyHODibmDd9aq2777DoyPBR1Dp/nN6FJXgu/sd3znOiSM8TcIMABszZozpYV7AnHSdHvfkk09WZARwypH2py9oaWeSdnrI7pB/MiTiLDOMAI45jlECoFsD1RxoOLZki8EFBbYegBgqcfU0fvx4q/vWqh3YmgLNAQzNLla4cYged/TRRxtTYfcwHyeNaglbM6ABmHh8Nap45Upf6HHcbjh58uTCijcJEBxiVqIB1ARoMIchkduROBZKQqx+SQfhQbkEUM8884zx70xjypuqHjT2fdiuoShUbg/zMnXixIlq9OjRZQGHPBbHbGyJMPavxOKmbNDy2PewSkTKAoPizmFeoLy/AY4rQsaNG2dtHkwvxxRr//33NzJO9D3K2eLAuyT8Kws0hoesWxh5cB8aQmvbVaIXmKjfU6dONUMlfkyiCMc0LIDGjh0buc2ISov3SebCskAjUzSzEBRnRcgS2YfNv0Agq1yUcvzrP/roo4GZMP+x1wMwd2Mtt7ewIHJU6AAvLoCxQHMnjm4k6gZRm9tAToS8QNsZHZQsG4U7e9QDGYL9TgcYPrEFx+cJCyI3MTzibsmWiM/Z44QJEwpDMmK/uKI/X9mjXyFIuKWlpTB5I1RGDQH9vb59+5qM3aD6pRH1jPmBdJlvHOFvVJy03rOP434zR1ZJj+KCWOoYNJ8ileE4yobp+BuhcXA9iXsFjE+VKMvYkjqirDpp0iThdzjJKk7LqsnXBYPIHc0tGWl8CnC+eUjBc3kutgdaepcWM2MtiqSheVLWOHX2q4OMKFqGynDmy1s5ajI3bsTSe6QXYAvNTXresZxWmdZfJTzguFuy8MdoS+MtKGo+paxx6u3Oh++sQocNGxbbIYD18Egm6K2zv8GlBGM93Z1x2gsiYcsh0mGCRlHI5sS8nDzC4qDmziYee4QhQ4YYtXdOEtib+RHhueeTBm1DNAiGUmwfdtxxR7XddtuVZ6RiOzz69V+GTGlpms+0/khPFjhaTLBChyZhUqrvZW7REyZMMPVw6irSDi1qgrp3794lFySRvyjvalmIWdfd4ZX0UCcL60/38Birp3lbk20L88aL+o1BPWmjCZbHCpIFFtZCWP64Rw1Wh1wczmKBUwVklu4VJGV0/qLqlOZ7u36dZo6WaeHLGNCytnHDhSGOrocOHVoEmLuYDJUMm1x87rbbk27iDpbb96oFDQ7Q41j4ZGVGxVYFMy8brwsyRBrb8d122y3+Ej1lOKsaNOrKUcqoUaNSBw67OnxNbrrpptYsxdQZX8sjRoww5ZF5PLY0wzqzkICJ5rSQdFN7xRwDcDAIIxA230kJpSQ2zmxh4hLGfygTMWx369YtbvR0wotzsZq444zVqTj11LLETrRqlDlMy5GK9aotLKAIssNep/pONL21OHozRoVNyA4RiPJZ6Y1tWDOkxw0cOFBxJzQLB1zRxiX8bbGYYFXIWVgSclaZgkySZKzisrfDCbdz+24DF7E2NzcbwWceBbAqZUAgCs/mm9Nn99I7IHjJY6QcPXv2NKp/1dxAvQWngQAYl0x00v1UQ7e2g7UcyXnD+f+2bFSSYAUounDRISKKnTiBiPRDX8sRjtyt27FNi/ofUPdbZ0KjBtAAAAAASUVORK5CYII=;" parent="1" vertex="1">
          <mxGeometry x="220" y="640" width="39.28" height="40" as="geometry" />
        </mxCell>
        <mxCell id="Qo9TZvfHBqD3udErQPZc-12" value="" style="shape=image;verticalLabelPosition=bottom;labelBackgroundColor=default;verticalAlign=top;aspect=fixed;imageAspect=0;image=data:image/png,iVBORw0KGgoAAAANSUhEUgAAAJAAAACYCAYAAAALFWDVAAAMPWlDQ1BJQ0MgUHJvZmlsZQAASImVVwdYU8kWnluSkJDQAhGQEnoTpFcpIbQAAtLBRkgChBJiIKjY0UUF14KKKNjQVRHbWgBZCyJ2FsHeFwsKyrpYsJc3KaDrvvK9+b65899/zvznzLlz750BQL2FKxbnohoA5IkKJbGhgczklFQmqReggAzUgS0w5/IKxKyYmEgAy1D79/LmGkBk7WV7mdY/+/9r0eQLCngAIDEQp/MLeHkQHwQAr+GJJYUAEGW82dRCsQzDCrQlMECIF8lwpgLXyHC6Au+T28THsiFuA0CFyuVKMgFQ64Q8s4iXCTXUBiB2FPGFIgDUmRD75eXl8yFOg9ga2oghlul7pn+nk/k3zfRhTS43cxgr5iIvKkHCAnEud/r/mY7/XfJypUM+LGGlZknCYmVzhnm7kZMfIcNUiPtF6VHREGtB/E7Il9tDjFKypGEJCnvUgFfAhjkDDIgd+dygCIgNIA4R5UZFKvn0DGEIB2K4QtBpwkJOPMS6EC8SFATHKW02SfJjlb7QhgwJm6Xkz3Ilcr8yX/ekOQkspf7LLAFHqY+pFWfFJ0FMgdi8SJgYBbEaxA4FOXERSpsxxVnsqCEbiTRWFr85xLECUWigQh8rypCExCrty/IKhuaLbcoScqKUeH9hVnyYIj9YG48rjx/OBesUiFgJQzqCguTIobnwBUHBirljvQJRQpxS5524MDBWMRaniHNjlPa4qSA3VMabQuxaUBSnHIsnFsIFqdDHM8SFMfGKOPHibG54jCIefDmIBGwQBJhACms6yAfZQNjR39gP7xQ9IYALJCATCIC9khkakSTvEcFrHCgGf0IkAAXD4wLlvQJQBPnPw6ziag8y5L1F8hE54DHEeSAC5MJ7qXyUaNhbIngEGeE/vHNh5cF4c2GV9f97foj9xrAgE6lkpEMemepDlsRgYhAxjBhCtMH1cT/cB4+E1wBYnXFP3GtoHt/sCY8JXYQHhKuEbsLNycISyQ9RjgXdUD9EmYv073OBW0JNNzwQ94XqUBln4PrAHneFfli4P/TsBlm2Mm5ZVpg/aP9tBt89DaUd2ZGMkkeQA8jWP45Us1VzG1aR5fr7/ChiTR/ON3u450f/7O+yz4dtxI+W2CLsAHYGO4Gdw45gjYCJHceasHbsqAwPr65H8tU15C1WHk8O1BH+w9/Qk5VlssCx3rHP8ZOir1AwTfaNBux88XSJMDOrkMmCfwQBkyPiOYxiOjs6uwIg+78oPl+vGPL/BsI4/42b0gKAVxkkM79xXDMADj8GgP7mG2f2Er42ywE42smTSooUHC67EOBXQh2+aXrACJgBazgfZ+AOfEAACAbhIBrEgxQwCUafBde5BEwFM8E8UArKwXKwGqwDG8EWsAPsBvtBIzgCToDT4ALoBFfBbbh6esAzMADegI8IgpAQGkJH9BBjxAKxQ5wRT8QPCUYikVgkBUlDMhERIkVmIvORcqQCWYdsRuqQX5HDyAnkHNKF3ETuI33IS+QDiqFUVBs1RC3R0agnykIj0Hh0IpqJTkGL0QXoUrQKrUV3oQ3oCfQCehXtRp+hgxjAVDEGZoLZY54YG4vGUrEMTILNxsqwSqwW24M1w+d8GevG+rH3OBGn40zcHq7gMDwB5+FT8Nn4EnwdvgNvwNvwy/h9fAD/QqARDAh2BG8Ch5BMyCRMJZQSKgnbCIcIp+C71EN4QyQSGUQrogd8F1OI2cQZxCXE9cS9xBZiF/EhcZBEIumR7Ei+pGgSl1RIKiWtJe0iHSddIvWQ3qmoqhirOKuEqKSqiFRKVCpVdqocU7mk8kTlI1mDbEH2JkeT+eTp5GXkreRm8kVyD/kjRZNiRfGlxFOyKfMoVZQ9lFOUO5RXqqqqpqpequNUhapzVatU96meVb2v+p6qRbWlsqkTqFLqUup2agv1JvUVjUazpAXQUmmFtKW0OtpJ2j3aOzW6moMaR42vNketWq1B7ZLac3WyuoU6S32SerF6pfoB9Yvq/RpkDUsNtgZXY7ZGtcZhjesag5p0TSfNaM08zSWaOzXPafZqkbQstYK1+FoLtLZondR6SMfoZnQ2nUefT99KP0Xv0SZqW2lztLO1y7V3a3doD+ho6bjqJOpM06nWOarTzcAYlgwOI5exjLGfcY3xYYThCNYIwYjFI/aMuDTire5I3QBdgW6Z7l7dq7of9Jh6wXo5eiv0GvXu6uP6tvrj9Kfqb9A/pd8/Unukz0jeyLKR+0feMkANbA1iDWYYbDFoNxg0NDIMNRQbrjU8adhvxDAKMMo2WmV0zKjPmG7sZyw0XmV83PgpU4fJYuYyq5htzAETA5MwE6nJZpMOk4+mVqYJpiWme03vmlHMPM0yzFaZtZoNmBubjzWfaV5vfsuCbOFpkWWxxuKMxVtLK8sky4WWjZa9VrpWHKtiq3qrO9Y0a3/rKda11ldsiDaeNjk26206bVFbN9ss22rbi3aonbud0G69XdcowiivUaJRtaOu21PtWfZF9vX29x0YDpEOJQ6NDs9Hm49OHb1i9JnRXxzdHHMdtzredtJyCncqcWp2euls68xzrna+4kJzCXGZ49Lk8sLVzlXgusH1hhvdbazbQrdWt8/uHu4S9z3ufR7mHmkeNR7XPbU9YzyXeJ71IngFes3xOuL13tvdu9B7v/dfPvY+OT47fXrHWI0RjNk65qGvqS/Xd7Nvtx/TL81vk1+3v4k/17/W/0GAWQA/YFvAE5YNK5u1i/U80DFQEngo8C3bmz2L3RKEBYUGlQV1BGsFJwSvC74XYhqSGVIfMhDqFjojtCWMEBYRtiLsOseQw+PUcQbCPcJnhbdFUCPiItZFPIi0jZRENo9Fx4aPXTn2TpRFlCiqMRpEc6JXRt+NsYqZEvPbOOK4mHHV4x7HOsXOjD0TR4+bHLcz7k18YPyy+NsJ1gnShNZE9cQJiXWJb5OCkiqSupNHJ89KvpCinyJMaUolpSambksdHB88fvX4ngluE0onXJtoNXHaxHOT9CflTjo6WX0yd/KBNEJaUtrOtE/caG4tdzCdk16TPsBj89bwnvED+Kv4fQJfQYXgSYZvRkVGb6Zv5srMviz/rMqsfiFbuE74Ijsse2P225zonO05X3OTcvfmqeSl5R0WaYlyRG35RvnT8rvEduJScfcU7ymrpwxIIiTbCpCCiQVNhdpwI98utZb+JL1f5FdUXfRuauLUA9M0p4mmtU+3nb54+pPikOJfZuAzeDNaZ5rMnDfz/izWrM2zkdnps1vnmM1ZMKdnbujcHfMo83Lm/V7iWFJR8np+0vzmBYYL5i54+FPoT/WlaqWS0usLfRZuXIQvEi7qWOyyeO3iL2X8svPljuWV5Z+W8Jac/9np56qfvy7NWNqxzH3ZhuXE5aLl11b4r9hRoVlRXPFw5diVDauYq8pWvV49efW5StfKjWsoa6Rruqsiq5rWmq9dvvbTuqx1V6sDq/fWGNQsrnm7nr/+0oaADXs2Gm4s3/hhk3DTjc2hmxtqLWsrtxC3FG15vDVx65lfPH+p26a/rXzb5+2i7d07Yne01XnU1e002LmsHq2X1vftmrCrc3fQ7qY99ns272XsLd8H9kn3Pf017ddr+yP2tx7wPLDnoMXBmkP0Q2UNSMP0hoHGrMbuppSmrsPhh1ubfZoP/ebw2/YjJkeqj+ocXXaMcmzBsa/Hi48Ptohb+k9knnjYOrn19snkk1faxrV1nIo4dfZ0yOmTZ1hnjp/1PXvknPe5w+c9zzdecL/Q0O7Wfuh3t98Pdbh3NFz0uNjU6dXZ3DWm69gl/0snLgddPn2Fc+XC1airXdcSrt24PuF69w3+jd6buTdf3Cq69fH23DuEO2V3Ne5W3jO4V/uHzR97u927j94Put/+IO7B7Ye8h88eFTz61LPgMe1x5RPjJ3W9zr1H+kL6Op+Of9rzTPzsY3/pn5p/1jy3fn7wr4C/2geSB3peSF58fbnkld6r7a9dX7cOxgzee5P35uPbsnd673a893x/5kPShycfp34ifar6bPO5+UvElztf875+FXMlXPlWAIMVzcgA4OV2AGgpcO8Az2eU8Yrzn7wgijOrHIH/hBVnRHlxB2B7AAAJcwGIhHuUDbBaQEyFrWwLHx8AUBeX4Tp0VpOfK2WFCM8BmxxkqLOnZ+j8NlwUZ87v4v6xBTJVV/Bj+y9aI3sQ0vLvSgAAAIplWElmTU0AKgAAAAgABAEaAAUAAAABAAAAPgEbAAUAAAABAAAARgEoAAMAAAABAAIAAIdpAAQAAAABAAAATgAAAAAAAACQAAAAAQAAAJAAAAABAAOShgAHAAAAEgAAAHigAgAEAAAAAQAAAJCgAwAEAAAAAQAAAJgAAAAAQVNDSUkAAABTY3JlZW5zaG90iopDaAAAAAlwSFlzAAAWJQAAFiUBSVIk8AAAAdZpVFh0WE1MOmNvbS5hZG9iZS54bXAAAAAAADx4OnhtcG1ldGEgeG1sbnM6eD0iYWRvYmU6bnM6bWV0YS8iIHg6eG1wdGs9IlhNUCBDb3JlIDYuMC4wIj4KICAgPHJkZjpSREYgeG1sbnM6cmRmPSJodHRwOi8vd3d3LnczLm9yZy8xOTk5LzAyLzIyLXJkZi1zeW50YXgtbnMjIj4KICAgICAgPHJkZjpEZXNjcmlwdGlvbiByZGY6YWJvdXQ9IiIKICAgICAgICAgICAgeG1sbnM6ZXhpZj0iaHR0cDovL25zLmFkb2JlLmNvbS9leGlmLzEuMC8iPgogICAgICAgICA8ZXhpZjpQaXhlbFlEaW1lbnNpb24+MTUyPC9leGlmOlBpeGVsWURpbWVuc2lvbj4KICAgICAgICAgPGV4aWY6UGl4ZWxYRGltZW5zaW9uPjE0NDwvZXhpZjpQaXhlbFhEaW1lbnNpb24+CiAgICAgICAgIDxleGlmOlVzZXJDb21tZW50PlNjcmVlbnNob3Q8L2V4aWY6VXNlckNvbW1lbnQ+CiAgICAgIDwvcmRmOkRlc2NyaXB0aW9uPgogICA8L3JkZjpSREY+CjwveDp4bXBtZXRhPgomoUTjAAAAHGlET1QAAAACAAAAAAAAAEwAAAAoAAAATAAAAEwAABhh7lg2fAAAGC1JREFUeAHsnelzG0d6xt8ZXLwpUqRIUaQk66RkSbZXvtaJnWxlN8luUqnK/5ar8mfkY/Jhs/amnIplr09JtmRJJE1LIinxvgkiz/N2v8AABECAIAmQQlcNG9PHOz39/vB0Tw9mGGQQpBmaPbDHHgiaAO2x55rVtAeaADVBqKkHmgDV1H3Nyk2AmgzU1ANNgGrqvmblJkBNBmrqgSZANXVfs3IToCYDNfVAE6Cauq9ZuQlQk4GaeqAqgHjTI41t+4DvfgQ4RsDTqvtNFm0FGrMtoaTRpu2aOvuoVA6CUCSM4bwR7xKqAmgL/be2mZEtUnSAgQDFcCzG9Q1EJpAw2JRkuCIx2apvcw7p6EEsLkGiDU5I7HrEqgCaW8/I44WMvFx3dlUp4ORCR2fTWYz5kWaEVt7SLUYZrYc4BDxxAoSNwdJpx5Rpm3kFShggN+7tuyzs1BBiACcRLktr7KV0xJ5LMrZYg7VGropeZce2dIp0npagtVfCVJsEseSuja4KoO/nM/If4xm5D4gY1NFpxNgUIu8vQhJnOiGI+NDSY8xDuuXzM8vFfBrVh3m6RdIsP4O8LYjBdoESJjKBtCGPxyZgmW1UriG0xWblZPKh9LXck1Mt30h7/FkN1hq4agh6Yhiu+q9IZvTvJDw1KvFECqNYfNdGVwXQFy8z8u8PMvLFC+cYKoSC4gEyEAiUAWRpCgjKJ+B45htAhMKAYWyfmW+fNR11GFOZOJKktzIKiZ0h7SeR17YdSAJlFS7sM51bpYHKFQs2JBEsSU9iXIbaP5cBwNPXchdKNJ1vRr+4VRjPr13/vYAnEJOgrUuC7kGR4dsiV38nQf9VicfjEob7PAf6nAA9BECIGdQ5cJbG2KdiUF1UYYqlMx+bKo8vHwcMCgjT6Tyfb4AZiKY+doyA9lGWgcdXuBAnkMbPBIFlCRPjSgLrcGsJXkpv7IGcav1GznTckRMtjzGULWIOtJFvBgcO/JafcUT2QihMvEUVJzb6NxIOvaFDmKQ6cV6YEBCwXUJVCvT5bEb+7ZEDSKGBYxjrPAcxHUqFIUDRdHO6gaJ1UU2dvunVCvUVGsawo3XwWWHEvgHEOmaP5WnLwDP7/N5oOtuDtjDd2ohPJUMomxKXNemOjcnp1P/JqdTX0tdxT1oTLwBWoFu0cg4eB1I0r6E/m/K09kjQe17CM7cldvWvJTx5sepmVwXQHcyB/vVJRj5/CadgCCEweaDAWTpEFab7fTqeikKHsh6HozgAsn2mGSimQLavyobyBksWMp+mwNCmt0+IWEZtIiZIplileikFlemOT0h/8lsZbvtYelIPnPKEmzvgMRuEiHTmYLKcBo5NeQauAZzfAqA3JegYkCDVUXWjqwLoMwD0L2MAaM4BZJNnA4nDig056lDvQPv206GqUFHHck7k9xUK+EPhYYx0boSoEiWycqpEqMM2UIS5nwSotFUshMGWxIM16YpPykDqG+lv+QqT5i+lDZNmKs9uwcGDC36FabfSdczfR+Wxs9gTQHfmnXMIUFSJ1GFeAczh2qfemUzLKhRawDw6V1UDeXSw2mA6NgXIx7ZfTomoaNF8up72mF4OoGS4JJ2ApT95V0ba/yA9yR8wiV7E4uE6oNgdjCMD0D4qz94BGs8IAWKg8hCgPCVCmoLFGBsdmI0BiSoUYk2HDRuSOJnOlmNd1rMN+wSN+dnY2zVQFUTmw7aW8XUJEY9ZbC7E1eVYsC6diacKD1VnsPWOtMWeSTqNlVjolwOoPES54atB50IHoDzoHA3VKxABWkBdOCg7NNFpBhKcaEOawoE8A0OhYVnbYIMOVlDM+QXldVjyeSynNhDThs6hENvxshBFyqttlmcatuhcKBGsSHtsRvpS38m5jv+W3uR9Sco82oSrLR260Doc0AGCWxk8eIng8qxs6XIlqh9s8gEojzW4NoC8FVUc3OKIQUW0j9F/jFWh4DQDSGPv3KhS2FCjABRRIk0nWN4uYwWIEPl0wsx0HQ49LDyeARRVovh2WhIYnri6fDJxH/Oer+R0+/9iofCpU55MwfqHQkQVOmJKdIDKcyAA2VBmymTKYA6n05kWBcoAKKdErG9DEMFUNYEtjb09BQWfs/Y8UDymQaTtQJkWWZHuzIycin8nZ1O/V+VJJRYASER5rIcsVoioMEdIiQ5QeXLdUsWDhXoV9lNGPvOTaB3GYEmVxoYwOM7AiYJkTjfICAJBylMi1sWWVRzk6z4g0Aky9rUOyxAM1jc7lueBUfveFssRnjjugcSx1tMtU3I6vCdD8T/JUOpTzHl+lu0ANw717jMKlgo4sRDGqETlghvyyqtVufo15x2C8lgbqxvCcA/snycBEOZAuhLMvvabOgzOi16VRQEyh+pkGeV0H36wWJXDO5rOZrpBZ5BxX9UEcRYcHtOna8zPzPdpdlzaSGXWpT2zJIPxe3K55T+lP35XUjKnK8y4FNCDOjh4UkXCUQHoEJTHeqdqgP7pZ0yicVOaAPHnMXRQNUpUaqU6uj5EmxzSCAEXGm1YUniQp4pCSPC5EiWKUXkyaenKvJSB4JEMx7+Uc6mPpSs2jhuuCaz12JyHQ5QpDE+sIKBhlr/bhDo6qS6wcnC7h6g8dhJ7AuizJQ8OAfJqUokScfjKrgPRP9gICyHIpiNZAUK6XmXtw0p1PIOfZWChcCD4Xm7E/kuGwm+lLZzFcLaKo4XadNyo8H2SgyT7zfA5GilEDToXOkTlsS7ZM0A0oI6uVIkAm16tMSZ48Fc2hg1VGcSaDttUG1WgIldllSpRDL/pSKbT0o5L8xPBhAzHvpTR2O+lLxiD6sQiyoPj8sBVQeSUqiGUqA7KQ/8z1ASQM4C/uyiRTpxZxsAhHIDFAFJosM803ZBf7qqM5W0OVG5OlNjelLb0mgxmHio4Q8G30hVMSypY9rcoeJRIgOEjqUR1UB7rtZoBoiE6tNicSBWn0vUh2GB5KpHC5SFSWABeqZXq7MSZ9VFOVcsrT0d6Qfq3f5Kz8rVcCT9R5bETdzGHIlTMKg/OI2+/kuGsjkpUR+WxftwXgGhM+50KAwDMBwaQKpD3E/MqUSKbOJdTIqqPAofj8rPaRpxKb0rnxpoMpR/JqHwiQ3JPOoMZXHEt23lr7CbEWzoxzs84IkpUR+Wx/to3gGhQwSBAcCi/1Iyztzj8vsFlIJmCcF+HNNbxKqR5rOc3VRfk2dDHctH1oRC/BuMQ1LU1LyPrP8n59LdyOfgfOSkTdr55MRcFQ/xUg3FhyFciqkyZBUSc6KGuDzWA8lh/HShAChHBIBBFfj+kwDEfm0HDNAOEsSoR03w5wkSQrLx+9vmcNCcyW3Jm65G8tf4HAHQXyjMF5Vmx882LywGkBXEwNydqMIAaQHmsI/cXIDhXv8xwKB1tU4tKlYhQ2HDH+gRIQWHsbeqQhs82V9J8KE8MW8fWsvRvPZPXNu/Krc1PZGD7iQ5PpRYHc0OYqQsbnR+cEtk8Bwe2k4oWI2g4SbfttGFFacuUzcWWU2HcQMpjLd5XgGhUwaGzAYN+9iDxcyVKVG6l2iCy+Q73WT6epvKk5czGmNxe/SMAui8nMs9wz4tznpxzdzrfOdQNT0XmQr6XKoeI9gxGX7kgigJUNUQNpDx2WvsOEA0Tlr0qUTUr1TbEdWxCeTan5NL6PQD0sZzeGouogSPYFGInRGirqgcBMuezTjRElcMpTTE7PHE7Tjk4mBcFKXqkop8bUHmsnQcCEI0Tot3Whzi0aTkCh40KlV2RZn2fzmEqm+5ta3mfP7w+Ie8sfipX1r6Tvu1Jad/OPQBojqIxc+5O5zuHllYiczgOXtaOa5wDxGBknZ3B2uXK8mTLhAZUHmvtgQHEA9DJFSsRYNIhjrEHKxsDIJ1M+2GRd65ouzW9Kr1bs3Jp7Xt5b/GPuPJ6pL/z4S8NUQJbvuN3c345JTKHw6i3ewhK1MDK4/qBfqjm5xy4G8+bqbwXVmmgo3dTIp04ExoDB3V0Qu33VW3AhE6YEescCGaH1n+W20t35MrqPRncHJfO9BxPSK+c2PdOadgA2NaG8DOhKuV8B1xJJYKNQ12pbmDl0U5lvx40QDwQfVdMiVRx9rBS3ba5Jj2b81CeB/LewqdyDsqTyizjSoyP37g76w4SB89OJSJApYcY5u3P+lAOVgewdXt+7IYxtsnaixbjJ7UBn9vquyCx4bf3/NxW/pH2f+9QAGKztW+oKH4YghC4IQsAqQKx77ApbLso0dDqc3l74Su5svy9DK8/ke70C/f6FT40nx268h2ixpmrDSE8ewMIJrSRFa0PWVkcs/zxDDQHkD3EqM+o3/pHiY3c3vNzW9reA/xzaABpXxpA9DNhQVzNSjWVp3d9Xi4vP5Z3576Q86uP8Sz8HB5ndq8LcXA4Ep0C8ajOKfzEz66MG8JYJj9fC6EM8/fhqsyZ0xMtt1LNNpli6nNofLS484yEI+9I4sbf49Hjq2ap4eK6AmSKo0NZBSvVw8vP5Z25r+Tq4kM5szaBWxZz+KEYbkVgDYjBOYKfDSIDxiCK7pvTikHkyjnVKLY+ZHZ41HJ2mI8AICsBiEUJUMiXG9z4B6c8XUMS8LUrDRoOFyD4kUOYTqqdj7VbyikRC7RtrcuplQW5PP9Y3p+9I68tP8HPNJaweBh92YFBw6HJoDDn0orlM2awfadGbt/l2N9ySpRTO2fLlbXjmgUfZxVm57AKB5B8CeKYuyU7JNM+ICHmPMlbAKiBlcfO8FAB4kF1CoJ+js6F6Eum71Ai38ozK9Py7tRdub7wQM6uPJYTG7OYMAMUkuiDm5NEoSilRCxDn7myBKe0853SlFQigqEg0mI5Ozxg1JZvA+ZsAR4xEr4RrKXVvZ/nwl/ps+qJ3hGJtXbTcEOHQweIvUHfVaJEKShPz+aSXJkflw+m/ySXFp7gftcc3gPEn6LqdbrvXHOkcwwlzjndADPnWr5zpqvMNMsvriAHpUQ8AypQ0HZC5OR5vJ/nFxJcAkB4S0al7+dx51C/v3UBiKerArCLEp1eeSFvvfhBrs8/lAuLjzCBfomfb+ASm+qTHaZoDU5QJTBAdgPI1eHfeipRiLeCBYkkXuiEN4NdwetV8H6eePeQhJjzVPp+Hp5DPUPdAOJJl1Ki1s0N6V1ahvJMyPvTX6vydG+8kBasPOev85hiGEC0aooShcwUxvIZMzDdlXf7Bp6B6FLtL1WtsvUhO561zywgxvECrITqS1DbuiXoGZHgzFtHTnnsjOoKEBuxQ4mQNrg0K29OP5LrL3/ExPmR9K3OYNhaV+VBDd/2Qic5p+eUyPJLzYVohmX2ByBtFOFQgM02gYxAxHzsh3FMmpMpKM9lkcu/OZLKo+eLP3UHiA2hDzknovJ0ry3LpblJeffpfbk8NyYn16akdcv9IEzRyXO4QWJOynegA6ScErG+qY0Dyc13zJ51k4tdXiXrQ1avQNEUIKhPexfmOWclGD66ymNn2BAAsTH04+DirLz1HMoz/ViuzDyB8rzAs1tbusqsZfzkWFcg7QxURaLfdAdE5Urky2fBLIQyeyB8cMCVvCrLKprVKQBI1RNfg/5LEr/5txI7++aRm/PYmVlcf4DQn6kt9yP4Sy8n5YOJ72R0Zkz6lmeEK8/pGFDga2g1eIcULiQVgSg6lBymEpUaEt0KM96G2jkowQjAufEbiQ9cPjJXWwZMYVxfgMAF75r3rSzKtRc/yevPH8vNpz9gDjSF2xOYsAKUDJXB+AEoCkOjKxGHKm2rA56dzgcZAyhP+DrAOfuGJHqGJdZ2dK62CsGx/foBBCiS6S1px1rP+bkpeWfygYxOP5Hh2Z+lE2s/aVzi8h1P+XMUazYdw6cpOFeJhsIhwxzphqnS60O04eHUoSy6T5vVzoncUOeUD3X58spOXJ4P4zL9JpUHQ1iF72GOnl0jfq4PQAqGyAlMmC/Mzsi16XF5a+K+DM/j3wlsb+i8xy1VmyMNpCgI+wGQs09Ic0OPO0Z0v/TE2tXbOScye87lQf/FiPKcORbKYzAfPkAR5RleeCm3no3J6NS4XARE3WsLUB48s47bQk5hDJioQ5jmlabmuZB1A+3TZuHxbL9Q2ayei4utD6ktKE/QiXtbI7eOnfJYDxwuQAXKMzo9Ibcmf5ARDGEt6XWsMm9h2GIhOpQKYw5kc91nl+aGFP1fOnpTLTqUGQw27Ph6foiyYYVON5u5NDueAWv71QPEFof9F6A8v5b4Oc55jpfy8PwYDg+gksozId2ri7IVp/KgEBwdBSN3NcXmlnBszUpk0Llj5I4T3SdEBiXTcyGnQJj085eELVCern78HOPmsVUeO/vDAaik8uBNGbiE5/0tKo+bNNNJcBYVQ4cVLASqerDJhQBRIfKBYykXDApzulMTZ8vX8/Zpw2w7hXP7tBPdLzUXMoBoI5PBnXUoT/zmX0ri3M1jqzyujw9DgQAPL8lbAcoI5zxPx+Ta1BjmPE550vgpw3b2P+PR6Rha/NC1U4kMIDbfAeFOxA8xdVIiBxZWqFva9Z+VUHkSt34liUGAdEyutgyYwvhgFcgrT+f6mgwvzMvV6Ul5e+x7OTv7XFpw+Z7QOQ9A4MilIR8gVQWCkqdEDpycMrAi01CXylXznMhBmrNfeDzmFw5nrk546jwWCH+FOc9NSfaePlZXW+qeIn8ODiBAwbei8g1hpxfnsUj4k1x/Ni6j2HqW5/3VFuYLdAaVwyDAvlMg5zi2OQqGDUHOwczNlXNXZ9Vc3lt9r2A8tgaDxPIdIJaXvQpUpcSJ4r/7hd39WCB8/ZVRHtcXdNVBPBfmlad1c1NOrq7IlSnconh8Ty7OPNXbE3EsILqrLUoPnKPKkYOIABGsHBwsA1AIGxTGIOJJ5JSCe8yvBCCW9cqiMW+42k1X5jE4aHL2fXmFxsqjFNYcqDzJmx9J/Pzrr4zyuD46CIAiytO3siQXXkxDeSbkzfEHMoCfabh1HgeONSL7jfZOdc4rpUTRy3vnZGeHDjbACus6IPOhZC0PptXLg9bnK7QOHoPKHQfHasH/Fe0agPJcl+Qbf4E5z2vHfs7DXomG/VWgAuW5OPNcbo/j14TTz6VndQlXXBu5S/U8Z5njzVFsIj4XKJFTqihAvhwipxROtaJDHku4UAwiA4jHtfxK14cC/Oj9LIasjyRxHgD1Dr4Scx7rTYv3D6AiyjP6fFJuTj6RU5gDZQPFR7/5hMaGKe88KIGCky3M9HJXZVaQ5RwELsWA3E2JUI+gajCIbCizfdpiAez7L4gqT2cfLtOv4ekJAHQak+djfrXl+mjn3/0ByHeszXmyygMF6l5bkRTmQjsC1UWHDoOmcJ81CEYOIAceHWmA0MkMLOccbvuurCvH8rnAskzPHZd5uXmV5ZsSOdtqn7dYsOwQG4DyXP9AEmdHJXly4JVUHuvP2gECPHa11be8LK+9nMGV1lOvPPjXhhoKHYxE/63eARGdm1Ui58zarsqgKLRXAFghRJUoUdjWLjEMVVSexA0ABJBeVeXxjkW31nIVVqA8F2am5RdPxuU1xCdWl3WV2R2Iw0KxJzwJEiApq0RUHA9SZLhRh6uSEJCc+hykEsVPn5XUGx9izoOhq+cUlAe3LDC+VfLfja3Dj1u8d4AIj++NvqUlLBJO4WrrmdyYmMScx/4jnSvgvu14Fx1+nprvYCSpkWJD0mEokT+uqhPbSpgNRnzGC4q4hXjoL+w6iQXCqwDozyX5Cs952EvRsDeA8OpBnVhSHMDFxekZ+fWD+xi6nkF5Vt2cZ8eQQccQoAIlKgoQm7hTmfZfiQoBih4XyoaXMIZ45Dg+MII5zy8VIM554sfgl4Q80/0IewOI/2wFR29f35D+uWW5/vSZfPTooZybfYFU/w2OfKutoW6xbgMQcYLqgwJUCItlegerTaahHCe/eXCyLSwXvbxnObaDwWJ+tnI2qXb2chNqV97ZS2PNqlXWE/2YLF+V7vd/KW3nzkkiiUk0fi3ZDK4H9gSQ/rsn+ODczKx8+COeogBAnEC34+3wOWd4x0WcXRQg8wTK5c+FmFEIENNgl2WzV1HFAPLlEOUPmYUAuXK05ewhVuDY9owshcPyPP5nWCi8Kuff65Pe8x2SagnxKLtSz8qvfNgTQHdnNqE8Kzrn+fDHH6E8s74j/TcajnfffOdsl2nf9nJzoUKICu2Zv5ieu7w3xdDL+zzFYTkHg6tpQBaqmE/3ZbcybfhHUL0yF1yRp8EHuFUxImevhTJ4PpATg4G0duAVLPqrSWvPqxv/PwAAAP//zN1ZTAAAFpVJREFU7Z1ZcxxHdoVv9QKgse8bSVBcQI7CY2mkGY39ZP9J/wi/euzwy7zNiBPhcMzG0UggHaRIiOIKkAQXiNi6fM7NvNlZhQaBBqqxdWdEIatyuVmV9+uTWVnVjSRFkAOG/32Tyr89TuX5gzX5l7sP5dPHT2Vq/Y0MbG5EFlJJpC5JUkcaTXvzCWOmM95GzI1lcgH5+frZY5ZHmWRHRG35Y7YDe0xPrE0tx/a4Mbh9Z4/1rX1fL0GJtCRv04vyOP0neZUuyvudSUmr/TIwnMjMlUQWfykyeSmRam8i5bKz2sl/k1YA+mZ1U/797rq8u/Nc/vXOA7m8+so5LMBiXUkHwykAxpzmnO0cqXkAyIEUOxhJcCLr5Os3O45tslYMhoOIdmJ4WIrBQMP5aT6P67IpffJeJmQ1vSFP0n+WtfolSbdwQv4yJmZErn2RyPyiyOhsIrXBREolmNBzdpY77W9LAD15uCZ/+t1DeXf3hcyuvZOhD1Qe72wqQviksxuRro5i75ujGs7cU4mCM+L6DrKGPQ8d1SoDL+sgj/AGJXJtuvbcvjtPs29KlMrrZE7ul76UFwDow86sbNcHtWgJRarYentEBkdFZq91lYgeZmgJoLW7K7L830sKUHVnR0ph9KPDmg1J5kgDiE2aE/nJdfUyShQAcmWbKU+sbAqQqkhk1yuMgqTtETTLZ+w2B9uObCW9sp6MyNPkqtwr/Upep5ck2amielkFseIBKneViE7JhJYAenNnRX78r+8UoFIK5wcY9gPInIa2M842xzaZEwWQTCm899Dm0ZUI8yRTzLQM5ZmV78ufyZPSNXmTzMhmOiClnZKU6hiicOrcCA+3rhJl+GlNgd4CoMf/CYAQNybEhMMrTWY4YUMEhKA1nO8Acnn8y7C/Enn7GWDzk2W0kYETh3peWxn1cUrEujuymbg5z9PSFblf/kJWSxdkJ4XyAKoyVIfA0CRZNogIUFeJ1G36pyUFUoB+sySMnSPoWAdQgMU+2aGNJorBvIyzCRrt7KVE+wFEg/S0A9YNUXQ86zUDiG2JvJYZKM/n8qR8VV6Wp+RDAuWplwAI7rAACqHhaXHjDVfJA9VVIu0+/dMSQBzCHgOgd3dWvcPpCIPI9jk8mOJYQwdVItbdxAbvWdChbDeEWWWzwmwHdRVGA4jHOEdVL+an8kF65W15XJ6VPpEHGLpWoDybSRVXAuXBqVewqQJ5eGhOhzI0o/vIb6ZEc7g7G8HdWf8QAMR5d8Ld2aEBci5zDmlA5MBxQxIhIFQWdkOgOepsV07vnPIAWXWUy899sscsyPNpAKTHqkyxgqWyUpmVb2ufy+PKFVmvT8pW2q/rP0SOpxMgIkjYmMbNINpLiaavJ3L1K5EprBP1VROp4Bb/vIeCADKQCAI377ADKxHr8BPLeu1bH9oo9UB5RuTHnk/k77VfAKR5SbYrfthykPD0CQrvvAgPt8xQhjwFCudLkGIlGpsT+eRLt040OS0ygFWABDLE7byGggBi9xACAwk9q/sOJJfHMgyxkqAcvaF1fZ4e7zUXytf3bSqwrk21BRvZYZRtQnmq0/Jd/8/lEQB6VZmUDekHILjT2vF3WzChKoOYABk4jBUkn08ceJqWzzyC1NMLaMZE5q6lcvPXdZm6CDsVAMrVxnMajggQP2F5ANCbAQinKM6ZcQ96hYLjHUDMox0XmipR5kPsAOEQ5uo1O24MZR9KffIGyvOob0EBelGdw91WBVU5YXZKUiYQ2A/HHwFIwUHLvHSeVl6JJudSuf6rHZnHkDYyWZG+QSwJnNMV6yMD5FxOBzqQsp/8/QByddTGLhCZd1gl8sqnNkWeV2fkb0M/l+W+y7JWGVfl4RpPkro5jyoMgFF40KxBFIBCGk1ZOcYxRLrv61GJeqFEQ2OpzF4Vuf5l6Vw/O2sRoFXchd2Vt0t2G49e88EAakyomeeV5sBzIRqLbToA916p9vZDHTtmXJcP5V4oz7As1xbkr0OfybPeWUyWsbpM5YkUhnAYNEUqUSc8O2sNoKVX8ug39+Td0gs4iOrAISQOpkR0oAOIQLghCR4LjmYdpOfnLkzWegaR2dtLiQwYKx8f462Bnin5Zvgf5EHtsrzsGZOfkn60ifkO13k4dKEam7ONx7aAqPt+eDu0EnXAs7OWAFpbei2P/uO+XwfCAh1WcxvK46HwADTS6Vzv2AMrEes0QtPbe50T7YaQsG6Uq/K6OiTL/Rfl9tA/ytOeWdlJsBQI5SEYYfOAxJNiA4iXEUMUK1acbrbMBmPC2bOF+oj5uHAcd2fXz+lT/EMB9HbppYKT7JqjmGLQ+YTAjtGTuu9AcnkswxBDgHIeQJfn/jYFyAqgfF7JntUm5Pb4Tfl+4BJu1SdkA8rDOy2b87AJG6oCAExD8zEoeYgOqkRciCRAtihf7cOcaJx3Z+fvKf4hAXql7nNDU1aJGsrDIgaQg+lgSmQQGSG0QfD2WR+Cym1WqDyD8mBoXv4y/qk8rs3IllTRbMndlnvTBMHA0ZjH2AhVM4AMHApoPPSxrh5H9qhA9vSer4EYRKBcJuahRHghbX4Rd2fT5+N9oiMBZIC0RYmMH1UkAkQIm8yFonLPa+Pyt4lFuT94ARPmcVkv9+MUG8oTFAYOpzluGSXyEBkwATQPDj4PWieAEx/7SbmBqW2hXgXcG0S9A3jUMZ1CiUSufl6SiQtn/83GIwLkvMchppRsqFIEf6rD0cManIoQOBecolBZssENcY3XRLyHfL29lGij3COve6A8w3Pyl4mb8mP/tCpPXUoBFCoDgdAFQsQ8vQAI9+0YeUGJ/L4BZZek4CGPddQO4gMpEdaCKtVUlejKZ4mCNIq3HPlm41ldsW4bQA6MxhDmYEFPazgcQKZ4eSV65pXn3vAFedI/Ju8quNuyOQ/ao5PN0eZ8Hao8SJqGMgGoGBwoi8IR5R9aiWCXQ1lffyojU27F+tqXdVWis7piXRBABCI7F3KgoL/oHVUQlon3j/LU3gH4oVqW1V6nPLcxdP04MCU/4Q4MeujmMh4QPkhg07phv11KZMpF4EJbaJfHXGAMcyKvRJMX6kKA+IrsyERZ+gagmGfs2VkhAJky7J4LGUamRAYRP4o2OUbP+iHKlUb6AdeHHg2Oy//gDfd7I3Oy1jMAePpYE+Y473GghEkxjBtENvTQsUUqkb0GYvbZXv49Ip0T8fK9Eo1OA6DrKV7W5yQbT/DP2LOzggByrndzlHYqETyCsFHtkbXakNwdn5VbczdkGSAZMIzDEJMDhEpkzqWdopXIAKISxbCaArK986ZEhQLkVIUKstfd0mGVCD1vZMDxz4cn5JuF63JnYlYe9A7JWqk3oyQxQAYWlUYdi/rmXIuLUiLaUYgIrj9lbR9AKbw+Tcvx7gzHZ12JCgYIHcI+aXJX5nIMoEbshi8Obc3mRD4dAxO97pQHc56pGfnTwqI8xOrcGzyW2MKEmU7hJ1wd5uMYJAWIZagOPEevEjwvdSgW/hgzBKejTGzX5jhsh/sa59pSW8w3YH07QZVgfy8lmphP5eoXdb07G5kqS+0MzIlOCCC6CT2LzU2s6TnuO2BcHssYQK7ss5Fx+fvCNbk7NSs/1AblZaVXdgAQviASnB7PaWKADKzwng+sG0R5gNiyQRTKRyAoOAQE7RJIHjO29gJESNcyPt/AtWFUy0VK1FtL8RQf3zvDnOjGV3WZvHj650RtAoiO328uRDc5aHYBo9ruPEKo1qsVWQEwD6dn5Pbla/LDyJisYaK8pa9kNBzHauYwA4axOTbveHOoOZL5BhXPjscckszhBpXaYTq2ZkrE8gSPdu18mKZ2YFfb8PYzcyKeK05q8mIqi7/G+0R8x/qU3521BSAHBuDYdy6UB8h5O6tEqQJza+GK/N/MjLwcHgRQPVLHJ9eUxwAhQObkVpRInUtn0+nYCAYDbSkEiNUu0hUCO2Z+EyVS8GgnV07bYZq3bfkGcFixHkxllCvWi7jNP+V3Z20CSPvfD0n7KRHVCr1KCkJwQ9d6L5RnoF/uQHluLVyV5bFR2amw++G47dStq9AhHpwYJPvkm+OtCTuOHW8ONUcSACtnTteYADEP7TOfm7UTKxHLKIi+DOtaObMXbMAWy2eU6AytE7UVoIMrUR4i9DhoWB4fka+vXZal2WlZ6R9Q5cHIpUEdzE8/QGoGkObTcV5ReGyAxYCEOQ6yDRKFK6qnoKA+6wUAcMz0uB2FBGkBFoLk68Tlgg20aemMWfasrRO1GSD1dctKtN5TVeX5bm5avr5+WUEKAoWOtqBznnOkRAQofg2E9/58dnaaV6yPBaBWlWh5bFjBIUAvRvuFQOn8AB0cAkHCpp/gc6JEnLDHL6LptUJx+ezstK5YHxNAzu17r1RzMp0ClIqsDvbJd3NTCtDDqRHhlycUFECCh1wKjForWImqmJTr0AbjhDIMKdFQFg9hNtzFdZhmcysFm8eAgmUOMificMq5EOuo4lp8ipXoWAHaW4kcQMvjVJ5LsgSAqDzva3gZjH3pHarriTFEmskCR1MiOtcAoklzPoEwkBQAOJTHmoY4BipTzpdhmkKFeloWsQLl8w04xrYxnxtB4hAdfkHnlCrRMQNE96BjcivVTnlqsjQ/CYAW5OHUsFMedJp2IDpY67Hj0bF+Ydol+jwe8Gl3ecvdnfHYnG2A6ZwJTlHVoNOwr05GPZ1M02lMj+pyzs5ymm/laYPlbOMxNt6JxUpjAGke67IMy6Kc5emxT9N0tHeWlOhUAETluUXlAUAvRmsN5UFnqpQz9oEdn1EiHvuQB4jJWt47jA4MjgMsBpCmET6/mSOZbuUZ09kfVSLmo5wBw1ghYzo2A5lpu0Di+bCu37Qt1DntSnRCALmV6p/wQ5WrA1Secfl6cUGW91Aez0eI1LHo8KBE6HQG/YRHd2UGn4FgDgxKAAcpIIyxBYAsnTZhWzfsE4iWlIg2CQRjb9POYRdAyA/ARRCd9jnRiQDEjyInzT9MDMgfrs/K0oVxWdlHeQhIHOjUXUrkna1K5NeHrI6W9/l5JSI4TKMDWU4d7hWBQxjTNN3Hqg7M9+WZZ6AExYnsGCwGiEG0lxKpfbRr9nl8WpXoRADSOc9QTe7MjcgfbszK8vSQ4Auj6LHsnMecv1esjm1VibzTaZPQcPKsAMHhwbFIj4cqzonobLbHQMe2Q4lsDhWAQ1sKLs8T18l0niM/OBrn7s7m8F380cmqvtmIEscSTgSgHyaGVHnuXBiRlTHMefpwr84JMy/ZO+mgV69ORYdycq37rI9NO56dHikR00x9aN8Ask96qEd7KMt0HdZYj+W9XYtVKdCG1Wf6UZTIXkgzWFXN0K7Z30+J5m8kcvOrMt5sJPLHE44VoKKUJ9816lA4cr85UYDHQCAg2MxBFscgKUAsk4OI58DyeylRbNeUheUNMObzvK0tHhtALBMgtX3f3seUaOqS4DWQEn4VBD8zM4JFyRrstPkd62MFSJVncVbuzB9deejAOKgz6BSAZI4x58RzIstTB3knEo54yAr1LJ/OpdLQmWhU65pjWRf5cX2WC+V9uQAO7ChcSCdQLGvtBYhoj3k+39rU9lGeec3mRDWuWM/i2x54n+jqL+r4SnX73yc6FoCaKg9XmDls+Q6MYTjsvjoWDjpuJVLHR280qjKZ83F9PC86XxXIgxGAwjHzCZGBR3sxQAoOiuj1IaadjynRcT47OxaAds15aqRH+8z/0cNC/qgz6JRjVKI8QDwHhQAx94OS2DHzmyiRgod0UxrGqmy0wbroIbXHfeZ5kDg0n9SKdVsBaqo8h7jbapUsdm5mxRrHDOzo8/geEUGigu11d9bO7521FaBdynOEuy0C0EogRDqUHYMSUR10eKKqUEHgUIUY6TZUaRkcWzpjUxgCoPuM/WZpcblgA5dm6YxPUonaAtBJKU8eML3rIkBwin5CfYGuEhX3Ddi2AHSSyhNDlAHIMvCJtbueou/OVCEAq85vOkSJCgXotCiPsUJ5z8yFmEGAfChCiew1EJvg2pCy1/qQQabDHM7DhiKbVMfHOixySON1YGOsQ5tP03Rvg+0zz15I4yWGO9zcinWRc6JCATotysPOs8COz8yFLIPp2NQxnLv4FWst79NVwbCvjosUxerR6QYQzZqTzeF06EHmRKGcnQ9iAphpPw8Sz8efm8Ebv9EYLhNlNKBQO95sLASg06Y81nkW07HtUCIOgao0dDadiQa1LbaHfSrIQZSIE20FjfVox+phP8CaB4jHPs2UiG3F60O0xdBOJSoEoNOoPK7rGn+1M9HhmfUhyzbHwQGtKJE6m3X8Zo5kuub5OCgM27c0xAEApNvdGssy3WLaNIi4r+nehh6jbca2aVuobyvV4RJph6FgJToSQKddeVyPNf6q89Dh+ZVqK6GT6tPwRmMOKJ63QbQLIA+cAUTla1WJjvIU/0gAnQXlMTgsVmeg05spUR4g1omdl5mT8JNPO6YGXoXCUOTrMp/OZazqkKtnyqMAxODQHuFgfR8bREyzPLNv7Wp5awv1DqJER3mKfyiAnt1/K6sFvM9jTj3uWJ0OB+WVKH9XRocxaHk4g7Ee0zH+Wxx6jHSt6yEysDgnokOtHp1eiZ6ZMT0PkAGjgKC85fNY7aAOy+jcCjEDj3UY9WVsLsY6+TlRmA+xrr87m1o4/FP8QwH07Yvtwt7n0R44gT/qDHY4nG6OCZ9wgnDA94h46qxPgAI42FeHMt3y6WSkHwQgtYfyMRgGlsUHAYhlactA4tei9EOBNIKk/4UKENUGDv8UvyWAVu6tybe/fSR/fJPKrU8vujcJ8VwUPwAfTgx7ZyewE9GpKX9jCPvsXwYbyggFgwFCNaii5/mp5i1zJh95plhUNvwraKdw2C2jTmXHbTrURHadk1EW39nmvpZjDPT42JDONzB5HjacaTpsJvzv2XV8EyUqx/81XUFt/NAfLLB9bDhnXpeeG47jUEJD+g3YS/ipvV/i94muJjI0WpXeGh378dASQPefrstv/7wqt9+l8nQGv4Y6iDeW0EbufD7e4mnKxYnTKRtwHn+oasNfiKoJhigFxC4OcR8cNb5dl344QqGya7Ey/hhFZH3T/fAVk3p26jKwhZ883+a/SrdKzgaPUjh7m//sF3ZrKNOPdgbgVaQoAooB6jFmuwwK09a2lH7akBLiOL2S4F9M8VfbEIeyqBdDphn+D5UowYnVhkXG5vCbjVdKcvlnFfyrqoIBeri2Kb9/tC7ff0hlq78mO1X3xb/4ZM7i/iY6lwDhsjQoHFQJbgw+Hb//JGMECA7+WNiErXUoEH85jaFaBxQAiCA1C/xVWf6iPv8JTB8AqilAJenRMaZZDZeWbKEmAEoAUBwaAFHDGoHXRTUy2Bo5bg8/cAvVSWUM//f10s0yfpuoYIDeb9VlZX1b3qMf6uUyhq79G8if5Gk85nwAc1vJcNGEEbqjimvHlX/0MlIoGlkxeyVqDA4g93vU09+lRT6HMZTlkAd49uvdhA2goYQ/lBQF1iwneGCqmhVlYFc/HNmkcIQqwuGM/9ujHz9+XsXXrvYLLQ1h+xnr5ndeD3QB6jyfF3rFXYAK7c7OM9YFqPN8XugVdwEqtDs7z1gXoM7zeaFX3AWo0O7sPGNdgDrP54VecRegQruz84x1Aeo8nxd6xV2ACu3OzjPWBajzfF7oFXcBKrQ7O89YF6DO83mhV9wFqNDu7Dxj/w8o9lFV27DyYQAAAABJRU5ErkJggg==;" parent="1" vertex="1">
          <mxGeometry x="220" y="680" width="37.9" height="40" as="geometry" />
        </mxCell>
        <mxCell id="Qo9TZvfHBqD3udErQPZc-22" value="" style="shape=note;whiteSpace=wrap;html=1;backgroundOutline=1;darkOpacity=0.05;size=12;" parent="1" vertex="1">
          <mxGeometry x="660" y="290" width="30" height="40" as="geometry" />
        </mxCell>
        <mxCell id="Qo9TZvfHBqD3udErQPZc-29" value="Redes&amp;nbsp;" style="text;html=1;align=center;verticalAlign=middle;whiteSpace=wrap;rounded=0;" parent="1" vertex="1">
          <mxGeometry x="280" y="650" width="60" height="30" as="geometry" />
        </mxCell>
        <mxCell id="Qo9TZvfHBqD3udErQPZc-30" value="Classes Java" style="text;html=1;align=center;verticalAlign=middle;whiteSpace=wrap;rounded=0;" parent="1" vertex="1">
          <mxGeometry x="280" y="690" width="60" height="30" as="geometry" />
        </mxCell>
        <mxCell id="ngIMHmZwQ2UIuRAYk3kQ-2" value="Fazer deployment diagram" style="text;html=1;align=center;verticalAlign=middle;whiteSpace=wrap;rounded=0;" vertex="1" parent="1">
          <mxGeometry x="180" y="20" width="240" height="80" as="geometry" />
        </mxCell>
      </root>
    </mxGraphModel>
  </diagram>
</mxfile>
